STARTFONT 2.1
FONT -gnu-Unifont-Medium-R-Normal-Sans-16-160-75-75-c-80-iso10646-1
SIZE 16 75 75
FONTBOUNDINGBOX 16 16 0 -2
STARTPROPERTIES 24
COPYRIGHT ""
FONT_VERSION "1.0"
FONT_TYPE "Bitmap"
FOUNDRY "GNU"
FAMILY_NAME "Unifont"
WEIGHT_NAME "Medium"
SLANT "R"
SETWIDTH_NAME "Normal"
ADD_STYLE_NAME "Sans Serif"
PIXEL_SIZE 16
POINT_SIZE 160
RESOLUTION_X 75
RESOLUTION_Y 75
SPACING "C"
AVERAGE_WIDTH 80
CHARSET_REGISTRY "ISO10646"
CHARSET_ENCODING "1"
UNDERLINE_POSITION -2
UNDERLINE_THICKNESS 1
CAP_HEIGHT 10
X_HEIGHT 8
FONT_ASCENT 14
FONT_DESCENT 2
DEFAULT_CHAR 65533
ENDPROPERTIES
CHARS 11677
STARTCHAR U+0020
ENCODING 32
SWIDTH 500 0
DWIDTH 8 0
BBX 8 16 0 -2
BITMAP 
00
00
00
00
00
00
00
00
00
00
00
00
00
00
00
00
ENDCHAR
STARTCHAR U+010000
ENCODING 65536
SWIDTH 500 0
DWIDTH 8 0
BBX 8 16 0 -2
BITMAP 
00
00
00
41
41
7F
49
49
08
08
08
08
08
08
00
00
ENDCHAR
STARTCHAR U+010001
ENCODING 65537
SWIDTH 500 0
DWIDTH 8 0
BBX 8 16 0 -2
BITMAP 
00
00
00
08
14
22
3E
41
41
7F
41
41
41
41
00
00
ENDCHAR
STARTCHAR U+010002
ENCODING 65538
SWIDTH 500 0
DWIDTH 8 0
BBX 8 16 0 -2
BITMAP 
00
00
00
49
49
2A
2A
1C
1C
3E
08
08
08
08
00
00
ENDCHAR
STARTCHAR U+010003
ENCODING 65539
SWIDTH 500 0
DWIDTH 8 0
BBX 8 16 0 -2
BITMAP 
00
00
00
62
54
48
48
47
41
41
41
41
41
7F
00
00
ENDCHAR
STARTCHAR U+010004
ENCODING 65540
SWIDTH 500 0
DWIDTH 8 0
BBX 8 16 0 -2
BITMAP 
00
00
00
1C
28
3C
28
20
20
20
20
20
20
20
00
00
ENDCHAR
STARTCHAR U+010005
ENCODING 65541
SWIDTH 500 0
DWIDTH 8 0
BBX 8 16 0 -2
BITMAP 
00
00
00
40
40
40
40
40
7C
40
40
40
40
40
00
00
ENDCHAR
STARTCHAR U+010006
ENCODING 65542
SWIDTH 500 0
DWIDTH 8 0
BBX 8 16 0 -2
BITMAP 
00
00
00
2A
55
55
00
7F
22
1C
08
1C
22
41
00
00
ENDCHAR
STARTCHAR U+010007
ENCODING 65543
SWIDTH 500 0
DWIDTH 8 0
BBX 8 16 0 -2
BITMAP 
00
00
00
7F
00
49
49
49
49
00
08
08
08
08
00
00
ENDCHAR
STARTCHAR U+010008
ENCODING 65544
SWIDTH 500 0
DWIDTH 8 0
BBX 8 16 0 -2
BITMAP 
00
00
00
08
12
21
12
0B
08
08
08
08
08
08
00
00
ENDCHAR
STARTCHAR U+010009
ENCODING 65545
SWIDTH 500 0
DWIDTH 8 0
BBX 8 16 0 -2
BITMAP 
00
00
00
50
4D
3A
34
54
54
54
52
4A
2A
29
00
00
ENDCHAR
STARTCHAR U+01000A
ENCODING 65546
SWIDTH 500 0
DWIDTH 8 0
BBX 8 16 0 -2
BITMAP 
00
00
00
7F
41
41
7F
41
41
41
7F
41
41
7F
00
00
ENDCHAR
STARTCHAR U+01000B
ENCODING 65547
SWIDTH 500 0
DWIDTH 8 0
BBX 8 16 0 -2
BITMAP 
00
00
00
41
41
22
22
5D
49
1C
22
22
41
41
00
00
ENDCHAR
STARTCHAR U+01000D
ENCODING 65549
SWIDTH 500 0
DWIDTH 8 0
BBX 8 16 0 -2
BITMAP 
00
00
00
7F
40
58
64
44
08
10
10
10
08
08
00
00
ENDCHAR
STARTCHAR U+01000E
ENCODING 65550
SWIDTH 1000 0
DWIDTH 16 0
BBX 16 16 0 -2
BITMAP 
0000
0000
0000
7000
0800
0800
0820
0820
0FFC
0924
0924
0924
0924
0924
0000
0000
ENDCHAR
STARTCHAR U+01000F
ENCODING 65551
SWIDTH 1000 0
DWIDTH 16 0
BBX 16 16 0 -2
BITMAP 
0000
0000
07C0
0920
1110
2108
2108
3FF8
2108
2108
1110
0920
07C0
0000
0000
0000
ENDCHAR
STARTCHAR U+010010
ENCODING 65552
SWIDTH 500 0
DWIDTH 8 0
BBX 8 16 0 -2
BITMAP 
00
00
00
2A
55
55
00
3E
2A
2A
2A
49
49
49
00
00
ENDCHAR
STARTCHAR U+010011
ENCODING 65553
SWIDTH 500 0
DWIDTH 8 0
BBX 8 16 0 -2
BITMAP 
00
00
00
24
48
7F
51
51
22
62
22
14
14
08
08
00
ENDCHAR
STARTCHAR U+010012
ENCODING 65554
SWIDTH 500 0
DWIDTH 8 0
BBX 8 16 0 -2
BITMAP 
00
00
00
3E
41
55
55
36
14
14
14
14
14
08
08
00
ENDCHAR
STARTCHAR U+010013
ENCODING 65555
SWIDTH 1000 0
DWIDTH 16 0
BBX 16 16 0 -2
BITMAP 
0000
0000
0000
0C00
0300
0100
0098
2CA4
2B88
1090
0090
0110
0308
0C04
0000
0000
ENDCHAR
STARTCHAR U+010014
ENCODING 65556
SWIDTH 500 0
DWIDTH 8 0
BBX 8 16 0 -2
BITMAP 
00
00
00
41
41
22
22
14
14
2A
2A
49
49
2A
00
00
ENDCHAR
STARTCHAR U+010015
ENCODING 65557
SWIDTH 500 0
DWIDTH 8 0
BBX 8 16 0 -2
BITMAP 
00
00
00
72
49
7D
0A
09
08
08
08
08
08
08
00
00
ENDCHAR
STARTCHAR U+010016
ENCODING 65558
SWIDTH 500 0
DWIDTH 8 0
BBX 8 16 0 -2
BITMAP 
00
00
00
42
44
42
44
44
48
48
50
50
60
40
00
00
ENDCHAR
STARTCHAR U+010017
ENCODING 65559
SWIDTH 500 0
DWIDTH 8 0
BBX 8 16 0 -2
BITMAP 
00
00
00
62
14
72
11
62
04
04
04
04
04
04
00
00
ENDCHAR
STARTCHAR U+010018
ENCODING 65560
SWIDTH 500 0
DWIDTH 8 0
BBX 8 16 0 -2
BITMAP 
00
00
00
23
52
52
3E
12
17
10
10
10
10
10
00
00
ENDCHAR
STARTCHAR U+010019
ENCODING 65561
SWIDTH 500 0
DWIDTH 8 0
BBX 8 16 0 -2
BITMAP 
00
00
00
3E
00
3E
00
22
14
08
08
08
08
08
00
00
ENDCHAR
STARTCHAR U+01001A
ENCODING 65562
SWIDTH 500 0
DWIDTH 8 0
BBX 8 16 0 -2
BITMAP 
00
00
00
1C
49
2A
49
3E
08
08
08
08
08
08
00
00
ENDCHAR
STARTCHAR U+01001B
ENCODING 65563
SWIDTH 500 0
DWIDTH 8 0
BBX 8 16 0 -2
BITMAP 
00
00
00
55
55
22
22
55
55
08
08
08
08
08
00
00
ENDCHAR
STARTCHAR U+01001C
ENCODING 65564
SWIDTH 1000 0
DWIDTH 16 0
BBX 16 16 0 -2
BITMAP 
0000
0000
0000
1540
1540
1540
1548
1FD0
0008
0210
0500
0500
0880
0A80
0000
0000
ENDCHAR
STARTCHAR U+01001D
ENCODING 65565
SWIDTH 500 0
DWIDTH 8 0
BBX 8 16 0 -2
BITMAP 
00
00
00
41
41
41
5D
63
41
63
5D
41
41
41
00
00
ENDCHAR
STARTCHAR U+01001E
ENCODING 65566
SWIDTH 500 0
DWIDTH 8 0
BBX 8 16 0 -2
BITMAP 
00
00
00
08
08
08
3E
08
08
3E
08
08
08
08
00
00
ENDCHAR
STARTCHAR U+01001F
ENCODING 65567
SWIDTH 500 0
DWIDTH 8 0
BBX 8 16 0 -2
BITMAP 
00
00
40
60
50
48
40
58
44
58
40
48
50
60
40
00
ENDCHAR
STARTCHAR U+010020
ENCODING 65568
SWIDTH 500 0
DWIDTH 8 0
BBX 8 16 0 -2
BITMAP 
00
00
00
08
14
7F
2A
2A
2A
49
49
49
49
5D
00
00
ENDCHAR
STARTCHAR U+010021
ENCODING 65569
SWIDTH 500 0
DWIDTH 8 0
BBX 8 16 0 -2
BITMAP 
00
00
00
40
40
7E
40
40
7E
42
02
02
02
02
00
00
ENDCHAR
STARTCHAR U+010022
ENCODING 65570
SWIDTH 1000 0
DWIDTH 16 0
BBX 16 16 0 -2
BITMAP 
0000
0000
0000
00E0
0010
0010
00E0
0340
0620
0A20
1110
1110
1110
3BB8
0000
0000
ENDCHAR
STARTCHAR U+010023
ENCODING 65571
SWIDTH 1000 0
DWIDTH 16 0
BBX 16 16 0 -2
BITMAP 
0000
0000
0000
0100
1290
2448
1450
0280
0100
0100
0100
0100
0100
0100
0000
0000
ENDCHAR
STARTCHAR U+010024
ENCODING 65572
SWIDTH 1000 0
DWIDTH 16 0
BBX 16 16 0 -2
BITMAP 
0000
0000
0000
07C0
0820
1010
2008
2EE8
2008
2EE8
2008
1010
0820
07C0
0000
0000
ENDCHAR
STARTCHAR U+010025
ENCODING 65573
SWIDTH 500 0
DWIDTH 8 0
BBX 8 16 0 -2
BITMAP 
00
00
00
7F
42
4D
35
06
04
04
04
04
04
04
00
00
ENDCHAR
STARTCHAR U+010026
ENCODING 65574
SWIDTH 500 0
DWIDTH 8 0
BBX 8 16 0 -2
BITMAP 
00
00
14
14
00
63
1C
00
1C
08
08
08
08
08
00
00
ENDCHAR
STARTCHAR U+010028
ENCODING 65576
SWIDTH 500 0
DWIDTH 8 0
BBX 8 16 0 -2
BITMAP 
00
00
00
40
40
40
40
40
4C
52
52
4C
40
7E
00
00
ENDCHAR
STARTCHAR U+010029
ENCODING 65577
SWIDTH 500 0
DWIDTH 8 0
BBX 8 16 0 -2
BITMAP 
00
00
00
49
49
2A
1C
08
08
08
08
08
08
08
00
00
ENDCHAR
STARTCHAR U+01002A
ENCODING 65578
SWIDTH 500 0
DWIDTH 8 0
BBX 8 16 0 -2
BITMAP 
00
00
0C
02
0A
14
14
08
3E
08
14
14
22
22
00
00
ENDCHAR
STARTCHAR U+01002B
ENCODING 65579
SWIDTH 500 0
DWIDTH 8 0
BBX 8 16 0 -2
BITMAP 
00
00
00
08
08
08
08
08
3E
08
08
08
08
08
00
00
ENDCHAR
STARTCHAR U+01002C
ENCODING 65580
SWIDTH 500 0
DWIDTH 8 0
BBX 8 16 0 -2
BITMAP 
00
00
00
22
41
5D
2A
08
08
08
08
08
08
1C
00
00
ENDCHAR
STARTCHAR U+01002D
ENCODING 65581
SWIDTH 500 0
DWIDTH 8 0
BBX 8 16 0 -2
BITMAP 
00
00
00
41
41
22
22
14
14
2A
49
08
08
08
00
00
ENDCHAR
STARTCHAR U+01002E
ENCODING 65582
SWIDTH 500 0
DWIDTH 8 0
BBX 8 16 0 -2
BITMAP 
00
00
00
55
55
40
7F
40
40
40
40
40
40
40
00
00
ENDCHAR
STARTCHAR U+01002F
ENCODING 65583
SWIDTH 500 0
DWIDTH 8 0
BBX 8 16 0 -2
BITMAP 
00
00
00
08
08
2A
2A
2A
3E
2A
49
5D
49
49
00
00
ENDCHAR
STARTCHAR U+010030
ENCODING 65584
SWIDTH 500 0
DWIDTH 8 0
BBX 8 16 0 -2
BITMAP 
00
00
00
44
72
41
72
44
04
04
04
04
04
04
00
00
ENDCHAR
STARTCHAR U+010031
ENCODING 65585
SWIDTH 500 0
DWIDTH 8 0
BBX 8 16 0 -2
BITMAP 
00
00
00
7E
42
42
7E
42
40
40
40
40
40
7E
00
00
ENDCHAR
STARTCHAR U+010032
ENCODING 65586
SWIDTH 500 0
DWIDTH 8 0
BBX 8 16 0 -2
BITMAP 
00
00
00
42
3E
22
20
10
10
10
20
22
3E
42
00
00
ENDCHAR
STARTCHAR U+010033
ENCODING 65587
SWIDTH 500 0
DWIDTH 8 0
BBX 8 16 0 -2
BITMAP 
00
00
00
08
08
08
6B
08
6B
08
6B
08
08
08
00
00
ENDCHAR
STARTCHAR U+010034
ENCODING 65588
SWIDTH 500 0
DWIDTH 8 0
BBX 8 16 0 -2
BITMAP 
00
00
00
08
14
14
22
2A
2A
49
49
49
49
41
00
00
ENDCHAR
STARTCHAR U+010035
ENCODING 65589
SWIDTH 500 0
DWIDTH 8 0
BBX 8 16 0 -2
BITMAP 
00
00
00
7F
08
7F
08
08
08
08
08
08
08
08
00
00
ENDCHAR
STARTCHAR U+010036
ENCODING 65590
SWIDTH 1000 0
DWIDTH 16 0
BBX 16 16 0 -2
BITMAP 
0000
0000
0040
0080
0100
0D60
1390
1110
0920
0540
0540
0380
0380
0100
0000
0000
ENDCHAR
STARTCHAR U+010037
ENCODING 65591
SWIDTH 500 0
DWIDTH 8 0
BBX 8 16 0 -2
BITMAP 
00
00
00
7F
41
41
7F
41
49
49
49
49
49
49
00
00
ENDCHAR
STARTCHAR U+010038
ENCODING 65592
SWIDTH 500 0
DWIDTH 8 0
BBX 8 16 0 -2
BITMAP 
00
00
00
0C
12
22
02
04
08
10
20
22
24
18
00
00
ENDCHAR
STARTCHAR U+010039
ENCODING 65593
SWIDTH 500 0
DWIDTH 8 0
BBX 8 16 0 -2
BITMAP 
00
00
00
01
02
04
0C
14
14
22
3E
4A
49
5D
00
00
ENDCHAR
STARTCHAR U+01003A
ENCODING 65594
SWIDTH 500 0
DWIDTH 8 0
BBX 8 16 0 -2
BITMAP 
00
00
02
01
3A
11
2A
28
44
44
44
82
82
FE
00
00
ENDCHAR
STARTCHAR U+01003C
ENCODING 65596
SWIDTH 500 0
DWIDTH 8 0
BBX 8 16 0 -2
BITMAP 
00
00
00
08
14
14
14
08
3E
08
08
08
08
08
00
00
ENDCHAR
STARTCHAR U+01003D
ENCODING 65597
SWIDTH 500 0
DWIDTH 8 0
BBX 8 16 0 -2
BITMAP 
00
00
20
2E
20
2E
20
2E
20
30
28
28
30
3E
00
00
ENDCHAR
STARTCHAR U+01003F
ENCODING 65599
SWIDTH 500 0
DWIDTH 8 0
BBX 8 16 0 -2
BITMAP 
00
00
00
08
1C
2A
49
1C
08
08
08
08
08
08
00
00
ENDCHAR
STARTCHAR U+010040
ENCODING 65600
SWIDTH 500 0
DWIDTH 8 0
BBX 8 16 0 -2
BITMAP 
00
00
00
3E
00
5D
5D
2A
08
08
08
08
08
08
00
00
ENDCHAR
STARTCHAR U+010041
ENCODING 65601
SWIDTH 1000 0
DWIDTH 16 0
BBX 16 16 0 -2
BITMAP 
0000
0000
0000
2540
12A0
2540
4000
3F00
0900
0900
1080
1080
2040
2040
0000
0000
ENDCHAR
STARTCHAR U+010042
ENCODING 65602
SWIDTH 500 0
DWIDTH 8 0
BBX 8 16 0 -2
BITMAP 
00
00
00
40
A0
78
44
53
41
7F
40
40
40
40
00
00
ENDCHAR
STARTCHAR U+010043
ENCODING 65603
SWIDTH 500 0
DWIDTH 8 0
BBX 8 16 0 -2
BITMAP 
00
00
00
3E
41
55
55
36
14
55
36
5D
36
14
1C
00
ENDCHAR
STARTCHAR U+010044
ENCODING 65604
SWIDTH 1000 0
DWIDTH 16 0
BBX 16 16 0 -2
BITMAP 
0000
0140
0080
1D5C
0888
1554
1414
1414
2222
2222
2222
4141
4141
7F7F
0000
0000
ENDCHAR
STARTCHAR U+010045
ENCODING 65605
SWIDTH 1000 0
DWIDTH 16 0
BBX 16 16 0 -2
BITMAP 
0000
0000
0000
5454
5454
4004
701C
0820
0440
0280
0100
0280
0440
0820
0000
0000
ENDCHAR
STARTCHAR U+010046
ENCODING 65606
SWIDTH 1000 0
DWIDTH 16 0
BBX 16 16 0 -2
BITMAP 
0000
0000
0000
2108
2BA8
1110
2928
0920
0540
0FE0
0100
0100
0100
0100
0000
0000
ENDCHAR
STARTCHAR U+010047
ENCODING 65607
SWIDTH 500 0
DWIDTH 8 0
BBX 8 16 0 -2
BITMAP 
00
00
00
63
14
55
49
41
41
41
41
41
41
7F
00
00
ENDCHAR
STARTCHAR U+010048
ENCODING 65608
SWIDTH 500 0
DWIDTH 8 0
BBX 8 16 0 -2
BITMAP 
00
00
09
12
7F
12
09
12
12
12
12
24
24
24
00
00
ENDCHAR
STARTCHAR U+010049
ENCODING 65609
SWIDTH 500 0
DWIDTH 8 0
BBX 8 16 0 -2
BITMAP 
00
00
63
2A
55
41
22
1C
08
6B
08
6B
08
6B
08
00
ENDCHAR
STARTCHAR U+01004A
ENCODING 65610
SWIDTH 1000 0
DWIDTH 16 0
BBX 16 16 0 -2
BITMAP 
0000
0000
0000
0400
0400
0400
0E00
0400
1F00
2480
2480
1500
0E00
0400
0000
0000
ENDCHAR
STARTCHAR U+01004B
ENCODING 65611
SWIDTH 1000 0
DWIDTH 16 0
BBX 16 16 0 -2
BITMAP 
0000
0000
0000
3FF8
2008
2548
2548
2008
2288
1290
1010
0920
0AA0
0440
0000
0000
ENDCHAR
STARTCHAR U+01004C
ENCODING 65612
SWIDTH 500 0
DWIDTH 8 0
BBX 8 16 0 -2
BITMAP 
00
00
00
2C
22
22
22
24
28
24
22
22
22
2C
00
00
ENDCHAR
STARTCHAR U+01004D
ENCODING 65613
SWIDTH 1000 0
DWIDTH 16 0
BBX 16 16 0 -2
BITMAP 
0000
0000
0000
0100
0280
0440
0BA0
1010
2388
5014
1390
0920
0AA0
0440
0000
0000
ENDCHAR
STARTCHAR U+010050
ENCODING 65616
SWIDTH 500 0
DWIDTH 8 0
BBX 8 16 0 -2
BITMAP 
00
00
08
2A
14
14
14
08
0B
3C
0B
08
08
08
00
00
ENDCHAR
STARTCHAR U+010051
ENCODING 65617
SWIDTH 500 0
DWIDTH 8 0
BBX 8 16 0 -2
BITMAP 
00
00
00
08
14
14
14
08
3E
08
14
14
22
3E
00
00
ENDCHAR
STARTCHAR U+010052
ENCODING 65618
SWIDTH 1000 0
DWIDTH 16 0
BBX 16 16 0 -2
BITMAP 
0000
0000
0000
0880
1440
22A0
0098
0080
0080
0080
0080
0080
0080
0080
0000
0000
ENDCHAR
STARTCHAR U+010053
ENCODING 65619
SWIDTH 500 0
DWIDTH 8 0
BBX 8 16 0 -2
BITMAP 
00
00
00
06
08
08
10
38
54
38
10
08
08
06
00
00
ENDCHAR
STARTCHAR U+010054
ENCODING 65620
SWIDTH 500 0
DWIDTH 8 0
BBX 8 16 0 -2
BITMAP 
00
00
00
41
22
22
1C
36
2A
36
1C
22
22
41
00
00
ENDCHAR
STARTCHAR U+010055
ENCODING 65621
SWIDTH 1000 0
DWIDTH 16 0
BBX 16 16 0 -2
BITMAP 
0000
0000
0E38
1144
2080
0000
0490
0490
0888
0888
1DDC
0888
1088
39DC
0000
0000
ENDCHAR
STARTCHAR U+010056
ENCODING 65622
SWIDTH 500 0
DWIDTH 8 0
BBX 8 16 0 -2
BITMAP 
00
00
00
42
42
42
5A
42
5A
42
5A
42
42
42
00
00
ENDCHAR
STARTCHAR U+010057
ENCODING 65623
SWIDTH 1000 0
DWIDTH 16 0
BBX 16 16 0 -2
BITMAP 
0000
0000
0000
739C
4A52
4A52
4631
4210
4210
5AD0
4210
4210
4210
7FF0
0000
0000
ENDCHAR
STARTCHAR U+010058
ENCODING 65624
SWIDTH 1000 0
DWIDTH 16 0
BBX 16 16 0 -2
BITMAP 
0000
0000
0000
3C78
2008
2FE8
2448
2288
2108
2288
2448
2FE8
2008
3C78
0000
0000
ENDCHAR
STARTCHAR U+010059
ENCODING 65625
SWIDTH 1000 0
DWIDTH 16 0
BBX 16 16 0 -2
BITMAP 
0000
0080
0100
0020
0640
0908
0890
0842
2424
4210
0910
1090
0260
0400
0080
0100
ENDCHAR
STARTCHAR U+01005A
ENCODING 65626
SWIDTH 500 0
DWIDTH 8 0
BBX 8 16 0 -2
BITMAP 
00
04
0A
42
24
13
10
24
4A
22
14
13
20
40
00
00
ENDCHAR
STARTCHAR U+01005B
ENCODING 65627
SWIDTH 1000 0
DWIDTH 16 0
BBX 16 16 0 -2
BITMAP 
0000
0000
4040
2080
1F00
2080
4A40
0A00
0000
7F80
0040
0E40
0140
0140
0000
0000
ENDCHAR
STARTCHAR U+01005C
ENCODING 65628
SWIDTH 1000 0
DWIDTH 16 0
BBX 16 16 0 -2
BITMAP 
0000
0000
0000
4000
4000
4000
4000
4000
4000
4000
7002
4FFC
4808
7FF0
0000
0000
ENDCHAR
STARTCHAR U+01005D
ENCODING 65629
SWIDTH 1000 0
DWIDTH 16 0
BBX 16 16 0 -2
BITMAP 
0000
0000
0000
07C0
0100
0100
3FF8
2108
2288
2288
2448
2448
2828
701C
0000
0000
ENDCHAR
STARTCHAR U+010080
ENCODING 65664
SWIDTH 500 0
DWIDTH 8 0
BBX 8 16 0 -2
BITMAP 
00
00
00
08
08
7F
14
22
22
22
41
41
41
41
00
00
ENDCHAR
STARTCHAR U+010081
ENCODING 65665
SWIDTH 500 0
DWIDTH 8 0
BBX 8 16 0 -2
BITMAP 
00
00
0C
10
10
0C
7F
08
55
14
22
22
22
3E
00
00
ENDCHAR
STARTCHAR U+010082
ENCODING 65666
SWIDTH 1000 0
DWIDTH 16 0
BBX 16 16 0 -2
BITMAP 
0000
1050
1560
0880
0500
1FC0
24B0
184C
1002
209C
2160
4100
4080
4080
0000
0000
ENDCHAR
STARTCHAR U+010083
ENCODING 65667
SWIDTH 1000 0
DWIDTH 16 0
BBX 16 16 0 -2
BITMAP 
0000
0880
1540
1740
08C0
4820
2910
9108
5204
2182
A172
410C
4080
4080
0000
0000
ENDCHAR
STARTCHAR U+010084
ENCODING 65668
SWIDTH 1000 0
DWIDTH 16 0
BBX 16 16 0 -2
BITMAP 
0000
0880
1540
1740
08C0
0820
4910
3108
1204
2182
2162
411C
4080
4080
0000
0000
ENDCHAR
STARTCHAR U+010085
ENCODING 65669
SWIDTH 1000 0
DWIDTH 16 0
BBX 16 16 0 -2
BITMAP 
0000
0880
1540
1740
08C0
0820
4910
3108
9204
6982
2162
511C
4080
4080
0000
0000
ENDCHAR
STARTCHAR U+010086
ENCODING 65670
SWIDTH 500 0
DWIDTH 8 0
BBX 8 16 0 -2
BITMAP 
00
00
00
3F
48
36
00
08
14
14
14
22
22
22
00
00
ENDCHAR
STARTCHAR U+010087
ENCODING 65671
SWIDTH 500 0
DWIDTH 8 0
BBX 8 16 0 -2
BITMAP 
00
00
00
3F
48
36
00
08
08
1C
08
1C
08
08
00
00
ENDCHAR
STARTCHAR U+010088
ENCODING 65672
SWIDTH 500 0
DWIDTH 8 0
BBX 8 16 0 -2
BITMAP 
00
00
00
12
29
44
00
08
14
14
14
22
22
22
00
00
ENDCHAR
STARTCHAR U+010089
ENCODING 65673
SWIDTH 500 0
DWIDTH 8 0
BBX 8 16 0 -2
BITMAP 
00
00
00
12
29
44
00
04
04
0E
04
0E
04
04
00
00
ENDCHAR
STARTCHAR U+01008A
ENCODING 65674
SWIDTH 1000 0
DWIDTH 16 0
BBX 16 16 0 -2
BITMAP 
0000
0000
0800
1400
1F80
0440
0538
0408
07F8
0400
0A00
1100
1100
1100
0000
0000
ENDCHAR
STARTCHAR U+01008B
ENCODING 65675
SWIDTH 1000 0
DWIDTH 16 0
BBX 16 16 0 -2
BITMAP 
0000
0000
0800
1400
1F80
0440
0538
0408
07F8
0400
0E00
0400
0E00
0400
0400
0000
ENDCHAR
STARTCHAR U+01008C
ENCODING 65676
SWIDTH 1000 0
DWIDTH 16 0
BBX 16 16 0 -2
BITMAP 
0000
0000
0000
1838
2420
1FE0
0420
0A20
0A70
0A00
1100
1100
1100
1100
0000
0000
ENDCHAR
STARTCHAR U+01008D
ENCODING 65677
SWIDTH 1000 0
DWIDTH 16 0
BBX 16 16 0 -2
BITMAP 
0000
0000
0000
1838
2420
1FE0
0420
0420
0E70
0400
0E00
0400
0400
0400
0000
0000
ENDCHAR
STARTCHAR U+01008E
ENCODING 65678
SWIDTH 1000 0
DWIDTH 16 0
BBX 16 16 0 -2
BITMAP 
0000
0000
0000
0FE0
0540
1930
2108
2108
7FFC
0100
0100
0100
0100
0100
0000
0000
ENDCHAR
STARTCHAR U+01008F
ENCODING 65679
SWIDTH 500 0
DWIDTH 8 0
BBX 8 16 0 -2
BITMAP 
00
00
00
5C
42
42
3E
02
02
02
02
02
02
02
00
00
ENDCHAR
STARTCHAR U+010090
ENCODING 65680
SWIDTH 1000 0
DWIDTH 16 0
BBX 16 16 0 -2
BITMAP 
0000
0000
1110
2AA8
2AA8
2448
1010
0060
0080
0080
0080
0080
0080
0080
0000
0000
ENDCHAR
STARTCHAR U+010091
ENCODING 65681
SWIDTH 500 0
DWIDTH 8 0
BBX 8 16 0 -2
BITMAP 
00
00
00
04
0A
11
1F
31
51
5F
31
31
51
1F
00
00
ENDCHAR
STARTCHAR U+010092
ENCODING 65682
SWIDTH 500 0
DWIDTH 8 0
BBX 8 16 0 -2
BITMAP 
00
00
00
08
08
12
24
78
40
40
40
40
40
40
00
00
ENDCHAR
STARTCHAR U+010093
ENCODING 65683
SWIDTH 500 0
DWIDTH 8 0
BBX 8 16 0 -2
BITMAP 
00
00
00
38
20
20
38
08
08
1C
2A
3E
2A
1C
00
00
ENDCHAR
STARTCHAR U+010094
ENCODING 65684
SWIDTH 500 0
DWIDTH 8 0
BBX 8 16 0 -2
BITMAP 
00
08
14
08
14
7E
28
28
18
1C
2A
3E
2A
1C
00
00
ENDCHAR
STARTCHAR U+010095
ENCODING 65685
SWIDTH 1000 0
DWIDTH 16 0
BBX 16 16 0 -2
BITMAP 
0000
0000
2000
1000
0980
26B0
10C8
0990
06A0
00C0
0080
0080
0080
0080
0000
0000
ENDCHAR
STARTCHAR U+010096
ENCODING 65686
SWIDTH 1000 0
DWIDTH 16 0
BBX 16 16 0 -2
BITMAP 
0000
0000
0000
3FF8
2000
2000
2000
3FF8
2108
2948
2528
2108
2948
2528
0000
0000
ENDCHAR
STARTCHAR U+010097
ENCODING 65687
SWIDTH 1000 0
DWIDTH 16 0
BBX 16 16 0 -2
BITMAP 
0000
0100
0180
0140
07C0
0920
07C0
0540
0920
1110
1110
0920
0540
0380
0000
0000
ENDCHAR
STARTCHAR U+010098
ENCODING 65688
SWIDTH 1000 0
DWIDTH 16 0
BBX 16 16 0 -2
BITMAP 
0000
0100
0380
0100
0BA0
0920
0440
0280
0920
0BA0
0920
0100
0100
0100
0000
0000
ENDCHAR
STARTCHAR U+010099
ENCODING 65689
SWIDTH 1000 0
DWIDTH 16 0
BBX 16 16 0 -2
BITMAP 
0000
7C18
1224
1148
1090
0094
0188
0280
0280
0180
0080
01C0
0080
0140
0220
0000
ENDCHAR
STARTCHAR U+01009A
ENCODING 65690
SWIDTH 500 0
DWIDTH 8 0
BBX 8 16 0 -2
BITMAP 
00
00
00
42
42
7E
42
42
7E
42
42
40
40
40
00
00
ENDCHAR
STARTCHAR U+01009B
ENCODING 65691
SWIDTH 1000 0
DWIDTH 16 0
BBX 16 16 0 -2
BITMAP 
0000
0000
27C8
1290
0AA0
0440
1390
2108
2288
1450
0440
0820
0820
1010
0000
0000
ENDCHAR
STARTCHAR U+01009C
ENCODING 65692
SWIDTH 1000 0
DWIDTH 16 0
BBX 16 16 0 -2
BITMAP 
0000
0000
1800
2400
1800
07C0
0820
1010
16D0
1010
16D0
1010
0820
07C0
0000
0000
ENDCHAR
STARTCHAR U+01009D
ENCODING 65693
SWIDTH 1000 0
DWIDTH 16 0
BBX 16 16 0 -2
BITMAP 
0000
0000
4544
2548
3398
4924
4924
4924
4104
4D64
1110
0D60
0000
0380
0000
0000
ENDCHAR
STARTCHAR U+01009E
ENCODING 65694
SWIDTH 1000 0
DWIDTH 16 0
BBX 16 16 0 -2
BITMAP 
0000
3018
2828
27C8
2008
2308
2488
2108
2208
2488
2308
2008
3FF8
2108
2108
0000
ENDCHAR
STARTCHAR U+01009F
ENCODING 65695
SWIDTH 1000 0
DWIDTH 16 0
BBX 16 16 0 -2
BITMAP 
0000
0000
0000
1C20
2210
418C
0820
0820
0820
0A20
0A20
09A0
0820
0FA0
0000
0000
ENDCHAR
STARTCHAR U+0100A0
ENCODING 65696
SWIDTH 1000 0
DWIDTH 16 0
BBX 16 16 0 -2
BITMAP 
0000
0000
0000
0F00
10B0
2648
2954
4924
50B8
50A4
60B8
40A0
00A0
01F0
0000
0000
ENDCHAR
STARTCHAR U+0100A1
ENCODING 65697
SWIDTH 1000 0
DWIDTH 16 0
BBX 16 16 0 -2
BITMAP 
0000
0000
783C
47C4
2088
1110
1290
1450
27C8
2548
4544
27C8
1830
06C0
0100
0000
ENDCHAR
STARTCHAR U+0100A2
ENCODING 65698
SWIDTH 1000 0
DWIDTH 16 0
BBX 16 16 0 -2
BITMAP 
0000
0080
0140
0220
0490
0948
0490
0550
0550
0948
0490
0220
0140
0080
0000
0000
ENDCHAR
STARTCHAR U+0100A3
ENCODING 65699
SWIDTH 1000 0
DWIDTH 16 0
BBX 16 16 0 -2
BITMAP 
0000
0000
0000
0440
0380
0440
0C60
1290
0440
0820
1450
0280
0280
0280
0000
0000
ENDCHAR
STARTCHAR U+0100A4
ENCODING 65700
SWIDTH 1000 0
DWIDTH 16 0
BBX 16 16 0 -2
BITMAP 
0000
0000
0000
00C0
0100
0540
0920
0920
0540
0380
0100
0380
0540
0380
0100
0000
ENDCHAR
STARTCHAR U+0100A5
ENCODING 65701
SWIDTH 1000 0
DWIDTH 16 0
BBX 16 16 0 -2
BITMAP 
0000
0000
0000
0060
0080
0100
0280
0280
0280
0440
0AA0
0100
0970
1088
0F10
0000
ENDCHAR
STARTCHAR U+0100A6
ENCODING 65702
SWIDTH 1000 0
DWIDTH 16 0
BBX 16 16 0 -2
BITMAP 
0000
0000
0040
0080
0100
0280
0EE0
1450
2548
2928
4924
4004
4004
7FFC
0000
0000
ENDCHAR
STARTCHAR U+0100A7
ENCODING 65703
SWIDTH 500 0
DWIDTH 8 0
BBX 8 16 0 -2
BITMAP 
00
00
00
7F
41
41
41
41
41
41
41
7F
41
41
00
00
ENDCHAR
STARTCHAR U+0100A8
ENCODING 65704
SWIDTH 1000 0
DWIDTH 16 0
BBX 16 16 0 -2
BITMAP 
0000
0000
0000
3FFC
2024
28A4
2524
2224
2224
2224
2224
2224
2024
3FFC
0000
0000
ENDCHAR
STARTCHAR U+0100A9
ENCODING 65705
SWIDTH 1000 0
DWIDTH 16 0
BBX 16 16 0 -2
BITMAP 
0000
0000
0000
6248
1248
1150
18E0
1554
1948
1244
1240
1440
1440
1440
0000
0000
ENDCHAR
STARTCHAR U+0100AA
ENCODING 65706
SWIDTH 1000 0
DWIDTH 16 0
BBX 16 16 0 -2
BITMAP 
0000
0000
0000
0440
0AA0
0BA0
0440
07C0
0820
0FE0
0820
0FE0
1010
1FF0
0000
0000
ENDCHAR
STARTCHAR U+0100AB
ENCODING 65707
SWIDTH 1000 0
DWIDTH 16 0
BBX 16 16 0 -2
BITMAP 
0000
0100
0AA0
07C0
2008
5394
2448
07C0
0820
0FE0
0820
0FE0
1010
1FF0
0000
0000
ENDCHAR
STARTCHAR U+0100AC
ENCODING 65708
SWIDTH 1000 0
DWIDTH 16 0
BBX 16 16 0 -2
BITMAP 
0000
0000
0000
1FF0
1450
1390
1830
1450
1450
1830
1010
1FF0
1110
1110
0000
0000
ENDCHAR
STARTCHAR U+0100AD
ENCODING 65709
SWIDTH 1000 0
DWIDTH 16 0
BBX 16 16 0 -2
BITMAP 
0000
0000
0000
0000
1008
2004
5C3A
13C8
0810
0810
13C8
5C3A
2004
1008
0000
0000
ENDCHAR
STARTCHAR U+0100AE
ENCODING 65710
SWIDTH 1000 0
DWIDTH 16 0
BBX 16 16 0 -2
BITMAP 
0000
0000
0000
0000
0000
4004
3838
27C8
1010
1010
27C8
3838
4004
0000
0000
0000
ENDCHAR
STARTCHAR U+0100AF
ENCODING 65711
SWIDTH 1000 0
DWIDTH 16 0
BBX 16 16 0 -2
BITMAP 
0000
0000
0000
0000
2008
5014
4824
27C8
2008
2008
27C8
4824
5014
2008
0000
0000
ENDCHAR
STARTCHAR U+0100B0
ENCODING 65712
SWIDTH 1000 0
DWIDTH 16 0
BBX 16 16 0 -2
BITMAP 
0000
0000
0000
0000
0000
0000
003C
01D4
0E14
7014
5014
5014
7FFC
0000
0000
0000
ENDCHAR
STARTCHAR U+0100B1
ENCODING 65713
SWIDTH 1000 0
DWIDTH 16 0
BBX 16 16 0 -2
BITMAP 
0000
0000
1010
2828
4444
4444
3FF8
2828
4444
4444
4444
4444
4444
7C7C
0000
0000
ENDCHAR
STARTCHAR U+0100B2
ENCODING 65714
SWIDTH 1000 0
DWIDTH 16 0
BBX 16 16 0 -2
BITMAP 
0000
0000
0280
0280
0280
0480
0900
1200
14E0
1510
14C8
1228
09C8
0410
03E0
0000
ENDCHAR
STARTCHAR U+0100B3
ENCODING 65715
SWIDTH 500 0
DWIDTH 8 0
BBX 8 16 0 -2
BITMAP 
00
00
00
7F
08
1C
08
08
08
08
08
1C
08
7F
00
00
ENDCHAR
STARTCHAR U+0100B4
ENCODING 65716
SWIDTH 1000 0
DWIDTH 16 0
BBX 16 16 0 -2
BITMAP 
0000
0000
0000
3800
2400
1200
0EF0
0108
0204
0204
0204
0204
0108
00F0
0000
0000
ENDCHAR
STARTCHAR U+0100B5
ENCODING 65717
SWIDTH 500 0
DWIDTH 8 0
BBX 8 16 0 -2
BITMAP 
00
00
00
0F
14
24
44
44
44
44
44
24
14
0F
00
00
ENDCHAR
STARTCHAR U+0100B6
ENCODING 65718
SWIDTH 1000 0
DWIDTH 16 0
BBX 16 16 0 -2
BITMAP 
0000
0000
0000
4002
4182
F24F
4892
E527
566A
55AA
1428
1428
1008
3FFC
0000
0000
ENDCHAR
STARTCHAR U+0100B7
ENCODING 65719
SWIDTH 1000 0
DWIDTH 16 0
BBX 16 16 0 -2
BITMAP 
0000
0820
4444
2AA8
1010
A82A
4444
2288
0100
0100
0280
0440
0440
07C0
0000
0000
ENDCHAR
STARTCHAR U+0100B8
ENCODING 65720
SWIDTH 1000 0
DWIDTH 16 0
BBX 16 16 0 -2
BITMAP 
0000
0000
0440
0280
0100
7FFC
4444
4444
4444
4444
4444
4444
4444
4444
0000
0000
ENDCHAR
STARTCHAR U+0100B9
ENCODING 65721
SWIDTH 1000 0
DWIDTH 16 0
BBX 16 16 0 -2
BITMAP 
0000
0000
0100
0380
0540
0100
0100
1FF0
1010
1010
1010
3FF8
5014
5014
0000
0000
ENDCHAR
STARTCHAR U+0100BA
ENCODING 65722
SWIDTH 1000 0
DWIDTH 16 0
BBX 16 16 0 -2
BITMAP 
0000
0000
0810
1008
2244
4422
4812
7FFE
4812
4812
7FFE
4812
4812
7FFE
0000
0000
ENDCHAR
STARTCHAR U+0100BB
ENCODING 65723
SWIDTH 500 0
DWIDTH 8 0
BBX 8 16 0 -2
BITMAP 
00
00
00
60
50
48
44
48
50
50
48
44
48
7C
00
00
ENDCHAR
STARTCHAR U+0100BC
ENCODING 65724
SWIDTH 500 0
DWIDTH 8 0
BBX 8 16 0 -2
BITMAP 
00
00
00
41
21
1A
04
1A
22
42
42
42
42
3C
00
00
ENDCHAR
STARTCHAR U+0100BD
ENCODING 65725
SWIDTH 1000 0
DWIDTH 16 0
BBX 16 16 0 -2
BITMAP 
0000
0000
0770
0080
0140
0E38
1004
2002
2FFA
280A
180C
0808
0808
0FF8
0000
0000
ENDCHAR
STARTCHAR U+0100BE
ENCODING 65726
SWIDTH 1000 0
DWIDTH 16 0
BBX 16 16 0 -2
BITMAP 
0000
0000
0000
0880
0500
0200
1FC0
1240
1240
1040
0880
0880
0500
0F80
0000
0000
ENDCHAR
STARTCHAR U+0100BF
ENCODING 65727
SWIDTH 1000 0
DWIDTH 16 0
BBX 16 16 0 -2
BITMAP 
0000
0000
5C00
0380
4040
0380
5C0C
0014
5758
08A0
54A0
0110
4110
0110
0000
0000
ENDCHAR
STARTCHAR U+0100C0
ENCODING 65728
SWIDTH 1000 0
DWIDTH 16 0
BBX 16 16 0 -2
BITMAP 
0000
0000
381C
2814
381C
2814
3FF4
1014
1014
1014
7C3E
542A
542A
7C3E
0000
0000
ENDCHAR
STARTCHAR U+0100C1
ENCODING 65729
SWIDTH 1000 0
DWIDTH 16 0
BBX 16 16 0 -2
BITMAP 
0000
FFFF
8001
C105
A289
9291
AFE9
A109
8281
8441
8441
8921
8921
8001
FFFF
0000
ENDCHAR
STARTCHAR U+0100C2
ENCODING 65730
SWIDTH 1000 0
DWIDTH 16 0
BBX 16 16 0 -2
BITMAP 
0000
0000
0100
0280
0440
1EF0
0440
0820
3C78
0820
1010
783C
1010
1010
0000
0000
ENDCHAR
STARTCHAR U+0100C3
ENCODING 65731
SWIDTH 500 0
DWIDTH 8 0
BBX 8 16 0 -2
BITMAP 
00
00
00
00
1C
22
22
41
41
7F
0A
0A
0A
06
00
00
ENDCHAR
STARTCHAR U+0100C4
ENCODING 65732
SWIDTH 1000 0
DWIDTH 16 0
BBX 16 16 0 -2
BITMAP 
0000
0000
0000
0000
0000
0000
0000
3FFC
4812
381C
0810
0FF0
0810
0810
0000
0000
ENDCHAR
STARTCHAR U+0100C5
ENCODING 65733
SWIDTH 1000 0
DWIDTH 16 0
BBX 16 16 0 -2
BITMAP 
0000
0000
0000
0000
0000
3E00
1100
1080
1078
1008
336C
548A
300C
1FF8
0000
0000
ENDCHAR
STARTCHAR U+0100C6
ENCODING 65734
SWIDTH 1000 0
DWIDTH 16 0
BBX 16 16 0 -2
BITMAP 
0000
0000
0000
0000
0000
0000
6000
1800
0600
0198
0064
0018
0000
0000
0000
0000
ENDCHAR
STARTCHAR U+0100C7
ENCODING 65735
SWIDTH 1000 0
DWIDTH 16 0
BBX 16 16 0 -2
BITMAP 
0000
0000
0000
0000
0000
0000
0000
2400
1200
7FFE
1200
2400
0000
0000
0000
0000
ENDCHAR
STARTCHAR U+0100C8
ENCODING 65736
SWIDTH 1000 0
DWIDTH 16 0
BBX 16 16 0 -2
BITMAP 
0000
0000
0000
0000
0000
00FE
0082
0044
0028
7FFE
0028
0044
0028
0010
0000
0000
ENDCHAR
STARTCHAR U+0100C9
ENCODING 65737
SWIDTH 500 0
DWIDTH 8 0
BBX 8 16 0 -2
BITMAP 
00
00
00
08
1C
2A
2A
49
49
49
3E
08
08
1C
00
00
ENDCHAR
STARTCHAR U+0100CA
ENCODING 65738
SWIDTH 500 0
DWIDTH 8 0
BBX 8 16 0 -2
BITMAP 
00
00
00
20
20
30
28
24
24
24
28
30
20
20
00
00
ENDCHAR
STARTCHAR U+0100CB
ENCODING 65739
SWIDTH 500 0
DWIDTH 8 0
BBX 8 16 0 -2
BITMAP 
00
00
00
1C
08
08
3E
49
49
49
2A
2A
1C
08
00
00
ENDCHAR
STARTCHAR U+0100CC
ENCODING 65740
SWIDTH 1000 0
DWIDTH 16 0
BBX 16 16 0 -2
BITMAP 
0000
0010
0008
0024
0005
0005
7FE4
A2B8
E2A8
AEA8
75B4
1FE5
15A5
0E24
0008
0010
ENDCHAR
STARTCHAR U+0100CD
ENCODING 65741
SWIDTH 1000 0
DWIDTH 16 0
BBX 16 16 0 -2
BITMAP 
0000
0010
0008
0024
0005
0005
7FE4
B2B8
EAA8
AAA8
6AB4
1FE5
02A5
0024
0008
0010
ENDCHAR
STARTCHAR U+0100CE
ENCODING 65742
SWIDTH 1000 0
DWIDTH 16 0
BBX 16 16 0 -2
BITMAP 
0000
0000
0000
0000
0000
0000
0000
0000
7E0E
4210
6220
5240
5280
7F00
0000
0000
ENDCHAR
STARTCHAR U+0100CF
ENCODING 65743
SWIDTH 1000 0
DWIDTH 16 0
BBX 16 16 0 -2
BITMAP 
0000
0000
07C0
0920
1110
2108
4384
4544
7FFC
4544
4384
2108
1110
0920
07C0
0000
ENDCHAR
STARTCHAR U+0100D0
ENCODING 65744
SWIDTH 1000 0
DWIDTH 16 0
BBX 16 16 0 -2
BITMAP 
0000
0000
0000
1FF0
1550
1548
2544
4BA2
5552
5392
0100
0100
0100
0100
0000
0000
ENDCHAR
STARTCHAR U+0100D1
ENCODING 65745
SWIDTH 1000 0
DWIDTH 16 0
BBX 16 16 0 -2
BITMAP 
0000
0000
0000
0000
0000
0000
0000
0000
0000
3FFC
2004
2004
2004
3FFC
0000
0000
ENDCHAR
STARTCHAR U+0100D2
ENCODING 65746
SWIDTH 1000 0
DWIDTH 16 0
BBX 16 16 0 -2
BITMAP 
0000
0000
3838
2448
2388
2008
27C8
2548
2108
2388
2108
2108
2008
3FF8
0000
0000
ENDCHAR
STARTCHAR U+0100D3
ENCODING 65747
SWIDTH 1000 0
DWIDTH 16 0
BBX 16 16 0 -2
BITMAP 
0000
0000
0380
0440
0440
0440
0380
1450
0820
1450
0280
0100
0100
0100
0100
0000
ENDCHAR
STARTCHAR U+0100D4
ENCODING 65748
SWIDTH 1000 0
DWIDTH 16 0
BBX 16 16 0 -2
BITMAP 
0000
0000
0000
0000
0000
0000
0000
4004
4004
3FF8
2008
1830
07C0
0000
0000
0000
ENDCHAR
STARTCHAR U+0100D5
ENCODING 65749
SWIDTH 1000 0
DWIDTH 16 0
BBX 16 16 0 -2
BITMAP 
0000
0000
0010
5FE0
0020
403C
0022
203C
0024
13EA
000A
080A
020A
0080
002A
0000
ENDCHAR
STARTCHAR U+0100D6
ENCODING 65750
SWIDTH 1000 0
DWIDTH 16 0
BBX 16 16 0 -2
BITMAP 
0000
0000
0008
0000
0010
0240
0000
09FC
0222
12AA
0222
2124
0020
4070
0000
0000
ENDCHAR
STARTCHAR U+0100D7
ENCODING 65751
SWIDTH 1000 0
DWIDTH 16 0
BBX 16 16 0 -2
BITMAP 
0000
0000
0000
07E0
0810
13C8
2428
2810
2800
2810
2428
13C8
0810
07E0
0000
0000
ENDCHAR
STARTCHAR U+0100D8
ENCODING 65752
SWIDTH 1000 0
DWIDTH 16 0
BBX 16 16 0 -2
BITMAP 
0000
0000
0000
0000
0000
0010
0008
0004
7FFE
0004
0008
0010
0000
0000
0000
0000
ENDCHAR
STARTCHAR U+0100D9
ENCODING 65753
SWIDTH 1000 0
DWIDTH 16 0
BBX 16 16 0 -2
BITMAP 
0000
0000
0000
0000
3FFC
0004
2FF4
2814
2814
2814
2814
2FF4
2014
3FF4
0000
0000
ENDCHAR
STARTCHAR U+0100DA
ENCODING 65754
SWIDTH 1000 0
DWIDTH 16 0
BBX 16 16 0 -2
BITMAP 
0000
0000
0000
4000
4000
4000
4000
2000
2C00
2300
10C0
1030
0E00
017E
0000
0000
ENDCHAR
STARTCHAR U+0100DB
ENCODING 65755
SWIDTH 1000 0
DWIDTH 16 0
BBX 16 16 0 -2
BITMAP 
0000
0000
0000
003E
0022
7FE2
4002
4002
7FFE
5014
5014
5014
5014
701C
0000
0000
ENDCHAR
STARTCHAR U+0100DC
ENCODING 65756
SWIDTH 1000 0
DWIDTH 16 0
BBX 16 16 0 -2
BITMAP 
0000
1010
0820
0FE0
08A0
5114
628C
57D4
1550
1550
2548
2388
2FE8
3018
4004
0000
ENDCHAR
STARTCHAR U+0100DD
ENCODING 65757
SWIDTH 1000 0
DWIDTH 16 0
BBX 16 16 0 -2
BITMAP 
0000
0000
0000
2108
2108
2108
2108
2108
2388
2548
2928
1110
0920
07C0
0000
0000
ENDCHAR
STARTCHAR U+0100DE
ENCODING 65758
SWIDTH 1000 0
DWIDTH 16 0
BBX 16 16 0 -2
BITMAP 
0000
0000
0000
0000
0000
0000
0000
0000
0000
3FFC
500A
300C
0810
07E0
0000
0000
ENDCHAR
STARTCHAR U+0100DF
ENCODING 65759
SWIDTH 1000 0
DWIDTH 16 0
BBX 16 16 0 -2
BITMAP 
0000
0000
0000
0000
381C
2814
2814
3FFC
2004
4002
4002
3C7C
0440
0FE0
0000
0000
ENDCHAR
STARTCHAR U+0100E0
ENCODING 65760
SWIDTH 1000 0
DWIDTH 16 0
BBX 16 16 0 -2
BITMAP 
0000
2008
5014
5014
2008
3FF8
2008
2008
1010
2828
17D0
1290
1110
1110
1110
0000
ENDCHAR
STARTCHAR U+0100E1
ENCODING 65761
SWIDTH 1000 0
DWIDTH 16 0
BBX 16 16 0 -2
BITMAP 
0000
0000
0000
0FF0
0420
0420
0810
1008
1008
0810
0810
0420
0420
03C0
0000
0000
ENDCHAR
STARTCHAR U+0100E2
ENCODING 65762
SWIDTH 1000 0
DWIDTH 16 0
BBX 16 16 0 -2
BITMAP 
0000
0000
03C0
2424
524A
542A
381C
1008
1008
0810
0810
0420
0420
03C0
0000
0000
ENDCHAR
STARTCHAR U+0100E3
ENCODING 65763
SWIDTH 1000 0
DWIDTH 16 0
BBX 16 16 0 -2
BITMAP 
0000
0000
03FC
0448
0448
03F0
0608
0C04
1404
0208
0110
00A0
00A0
00E0
0000
0000
ENDCHAR
STARTCHAR U+0100E4
ENCODING 65764
SWIDTH 1000 0
DWIDTH 16 0
BBX 16 16 0 -2
BITMAP 
0000
0000
0FF0
1120
1120
0FC0
1820
1010
1010
0820
0440
0280
0280
0380
0000
0000
ENDCHAR
STARTCHAR U+0100E5
ENCODING 65765
SWIDTH 1000 0
DWIDTH 16 0
BBX 16 16 0 -2
BITMAP 
0000
0000
0FF0
1120
1120
0FC0
3828
5014
5014
2828
0820
0440
0280
0380
0000
0000
ENDCHAR
STARTCHAR U+0100E6
ENCODING 65766
SWIDTH 1000 0
DWIDTH 16 0
BBX 16 16 0 -2
BITMAP 
0000
0000
07C0
0AA0
0AA0
06C0
06C0
0820
1010
1010
0820
07C0
0AA0
0AA0
0920
0000
ENDCHAR
STARTCHAR U+0100E7
ENCODING 65767
SWIDTH 1000 0
DWIDTH 16 0
BBX 16 16 0 -2
BITMAP 
0000
0000
0000
0000
4002
2004
1FF8
0810
0810
1008
3C3C
0240
0240
03C0
0000
0000
ENDCHAR
STARTCHAR U+0100E8
ENCODING 65768
SWIDTH 1000 0
DWIDTH 16 0
BBX 16 16 0 -2
BITMAP 
0000
0000
0000
0FE0
1290
1450
0AA0
0440
0820
0820
0440
0440
0280
0380
0000
0000
ENDCHAR
STARTCHAR U+0100E9
ENCODING 65769
SWIDTH 1000 0
DWIDTH 16 0
BBX 16 16 0 -2
BITMAP 
0000
0000
0000
1FE0
2490
2490
14A0
084C
1034
1038
0840
0840
0480
0780
0000
0000
ENDCHAR
STARTCHAR U+0100EA
ENCODING 65770
SWIDTH 1000 0
DWIDTH 16 0
BBX 16 16 0 -2
BITMAP 
0000
0000
0000
0000
0000
3FFC
300C
4A12
53CA
320C
1388
0A90
04A0
03C0
0000
0000
ENDCHAR
STARTCHAR U+0100EB
ENCODING 65771
SWIDTH 1000 0
DWIDTH 16 0
BBX 16 16 0 -2
BITMAP 
0000
0000
0000
0FF8
0808
380E
4809
4C19
3416
0410
0220
0140
0140
03E0
0000
0000
ENDCHAR
STARTCHAR U+0100EC
ENCODING 65772
SWIDTH 1000 0
DWIDTH 16 0
BBX 16 16 0 -2
BITMAP 
0000
0000
0000
0000
0000
0000
0000
7FFC
4004
2008
2008
1830
07C0
0000
0000
0000
ENDCHAR
STARTCHAR U+0100ED
ENCODING 65773
SWIDTH 1000 0
DWIDTH 16 0
BBX 16 16 0 -2
BITMAP 
0000
0000
3018
4FE4
3838
0820
1010
1010
0820
0820
0440
0440
07C0
0000
0000
0000
ENDCHAR
STARTCHAR U+0100EE
ENCODING 65774
SWIDTH 1000 0
DWIDTH 16 0
BBX 16 16 0 -2
BITMAP 
0000
0000
0000
0000
3018
4FE4
5014
2828
0440
0280
0280
0280
0440
07C0
0000
0000
ENDCHAR
STARTCHAR U+0100EF
ENCODING 65775
SWIDTH 500 0
DWIDTH 8 0
BBX 8 16 0 -2
BITMAP 
00
00
00
7F
41
41
22
14
08
08
08
14
22
3E
00
00
ENDCHAR
STARTCHAR U+0100F0
ENCODING 65776
SWIDTH 1000 0
DWIDTH 16 0
BBX 16 16 0 -2
BITMAP 
0000
0000
3F00
1200
1200
1E00
1200
2100
4080
4080
4080
2100
1E00
3F00
0000
0000
ENDCHAR
STARTCHAR U+0100F1
ENCODING 65777
SWIDTH 1000 0
DWIDTH 16 0
BBX 16 16 0 -2
BITMAP 
0000
0000
0000
0FFF
4402
4204
3E04
2A04
3E04
4108
4108
0108
0108
01F8
0000
0000
ENDCHAR
STARTCHAR U+0100F2
ENCODING 65778
SWIDTH 1000 0
DWIDTH 16 0
BBX 16 16 0 -2
BITMAP 
0000
0000
0000
1008
2814
2814
2814
1008
3FFC
2004
2004
2004
2004
3FFC
0000
0000
ENDCHAR
STARTCHAR U+0100F3
ENCODING 65779
SWIDTH 1000 0
DWIDTH 16 0
BBX 16 16 0 -2
BITMAP 
0000
0000
0000
3000
4800
4800
5FFF
4802
2404
2404
4802
0F1E
00A0
00E0
0000
0000
ENDCHAR
STARTCHAR U+0100F4
ENCODING 65780
SWIDTH 1000 0
DWIDTH 16 0
BBX 16 16 0 -2
BITMAP 
0000
0000
0000
1FFC
1004
1004
1004
1004
0808
0808
0410
0410
0220
01C0
0000
0000
ENDCHAR
STARTCHAR U+0100F5
ENCODING 65781
SWIDTH 1000 0
DWIDTH 16 0
BBX 16 16 0 -2
BITMAP 
0000
6020
9FDC
6894
2514
4897
0891
051F
1FC0
1240
8D88
DFD8
A028
DFD8
8008
0000
ENDCHAR
STARTCHAR U+0100F6
ENCODING 65782
SWIDTH 1000 0
DWIDTH 16 0
BBX 16 16 0 -2
BITMAP 
0000
0000
0500
0500
0900
0FE0
1218
14C4
2D02
28CA
481A
5024
1C20
0210
01F0
0000
ENDCHAR
STARTCHAR U+0100F7
ENCODING 65783
SWIDTH 1000 0
DWIDTH 16 0
BBX 16 16 0 -2
BITMAP 
0000
0000
0000
0000
0000
0000
0000
0000
0000
0000
7FFE
0082
0044
0038
0000
0000
ENDCHAR
STARTCHAR U+0100F8
ENCODING 65784
SWIDTH 1000 0
DWIDTH 16 0
BBX 16 16 0 -2
BITMAP 
0000
0000
0000
0C00
1200
1200
0200
0200
0200
0200
03F8
0208
0110
00E0
0000
0000
ENDCHAR
STARTCHAR U+0100F9
ENCODING 65785
SWIDTH 1000 0
DWIDTH 16 0
BBX 16 16 0 -2
BITMAP 
0000
0000
000C
0012
4028
3FF0
2040
1080
1080
0900
2940
4920
4620
2640
0000
0000
ENDCHAR
STARTCHAR U+0100FA
ENCODING 65786
SWIDTH 1000 0
DWIDTH 16 0
BBX 16 16 0 -2
BITMAP 
0000
0000
0000
0002
0000
1804
2400
2408
19E0
0A08
1200
21D0
0000
0020
0000
0000
ENDCHAR
STARTCHAR U+010100
ENCODING 65792
SWIDTH 500 0
DWIDTH 8 0
BBX 8 16 0 -2
BITMAP 
00
00
00
00
00
00
00
00
00
00
00
00
10
10
00
00
ENDCHAR
STARTCHAR U+010101
ENCODING 65793
SWIDTH 500 0
DWIDTH 8 0
BBX 8 16 0 -2
BITMAP 
00
00
00
00
00
00
00
18
18
00
00
00
00
00
00
00
ENDCHAR
STARTCHAR U+010102
ENCODING 65794
SWIDTH 500 0
DWIDTH 8 0
BBX 8 16 0 -2
BITMAP 
00
00
00
00
00
00
22
14
08
14
22
00
00
00
00
00
ENDCHAR
STARTCHAR U+010107
ENCODING 65799
SWIDTH 500 0
DWIDTH 8 0
BBX 8 16 0 -2
BITMAP 
00
00
00
00
00
00
00
08
08
08
00
00
00
00
00
00
ENDCHAR
STARTCHAR U+010108
ENCODING 65800
SWIDTH 500 0
DWIDTH 8 0
BBX 8 16 0 -2
BITMAP 
00
00
00
00
00
00
00
24
24
24
00
00
00
00
00
00
ENDCHAR
STARTCHAR U+010109
ENCODING 65801
SWIDTH 500 0
DWIDTH 8 0
BBX 8 16 0 -2
BITMAP 
00
00
00
00
00
00
00
2A
2A
2A
00
00
00
00
00
00
ENDCHAR
STARTCHAR U+01010A
ENCODING 65802
SWIDTH 500 0
DWIDTH 8 0
BBX 8 16 0 -2
BITMAP 
00
00
00
00
00
24
24
24
00
00
24
24
24
00
00
00
ENDCHAR
STARTCHAR U+01010B
ENCODING 65803
SWIDTH 500 0
DWIDTH 8 0
BBX 8 16 0 -2
BITMAP 
00
00
00
00
00
2A
2A
2A
00
00
14
14
14
00
00
00
ENDCHAR
STARTCHAR U+01010C
ENCODING 65804
SWIDTH 500 0
DWIDTH 8 0
BBX 8 16 0 -2
BITMAP 
00
00
00
00
00
54
54
54
00
00
54
54
54
00
00
00
ENDCHAR
STARTCHAR U+01010D
ENCODING 65805
SWIDTH 500 0
DWIDTH 8 0
BBX 8 16 0 -2
BITMAP 
00
00
00
00
00
55
55
55
00
00
2A
2A
2A
00
00
00
ENDCHAR
STARTCHAR U+01010E
ENCODING 65806
SWIDTH 500 0
DWIDTH 8 0
BBX 8 16 0 -2
BITMAP 
00
00
00
00
00
55
55
55
00
00
55
55
55
00
00
00
ENDCHAR
STARTCHAR U+01010F
ENCODING 65807
SWIDTH 500 0
DWIDTH 8 0
BBX 8 16 0 -2
BITMAP 
00
00
00
00
2A
2A
00
00
2A
2A
00
00
2A
2A
00
00
ENDCHAR
STARTCHAR U+010110
ENCODING 65808
SWIDTH 500 0
DWIDTH 8 0
BBX 8 16 0 -2
BITMAP 
00
00
00
00
00
00
00
00
00
00
3C
00
00
00
00
00
ENDCHAR
STARTCHAR U+010111
ENCODING 65809
SWIDTH 500 0
DWIDTH 8 0
BBX 8 16 0 -2
BITMAP 
00
00
00
00
00
00
00
00
00
3C
00
00
3C
00
00
00
ENDCHAR
STARTCHAR U+010112
ENCODING 65810
SWIDTH 500 0
DWIDTH 8 0
BBX 8 16 0 -2
BITMAP 
00
00
00
00
00
00
00
3C
00
00
3C
00
00
3C
00
00
ENDCHAR
STARTCHAR U+010113
ENCODING 65811
SWIDTH 500 0
DWIDTH 8 0
BBX 8 16 0 -2
BITMAP 
00
00
00
00
00
00
00
00
00
66
00
00
66
00
00
00
ENDCHAR
STARTCHAR U+010114
ENCODING 65812
SWIDTH 500 0
DWIDTH 8 0
BBX 8 16 0 -2
BITMAP 
00
00
00
00
00
00
00
00
60
06
60
06
60
00
00
00
ENDCHAR
STARTCHAR U+010115
ENCODING 65813
SWIDTH 500 0
DWIDTH 8 0
BBX 8 16 0 -2
BITMAP 
00
00
00
00
00
00
00
00
66
00
66
00
66
00
00
00
ENDCHAR
STARTCHAR U+010116
ENCODING 65814
SWIDTH 500 0
DWIDTH 8 0
BBX 8 16 0 -2
BITMAP 
00
00
00
00
00
00
00
60
06
60
06
60
06
60
00
00
ENDCHAR
STARTCHAR U+010117
ENCODING 65815
SWIDTH 500 0
DWIDTH 8 0
BBX 8 16 0 -2
BITMAP 
00
00
00
00
00
00
00
66
00
66
00
66
00
66
00
00
ENDCHAR
STARTCHAR U+010118
ENCODING 65816
SWIDTH 500 0
DWIDTH 8 0
BBX 8 16 0 -2
BITMAP 
00
00
00
00
00
00
00
00
DB
00
DB
00
DB
00
00
00
ENDCHAR
STARTCHAR U+010119
ENCODING 65817
SWIDTH 500 0
DWIDTH 8 0
BBX 8 16 0 -2
BITMAP 
00
00
00
00
00
18
24
24
24
18
00
00
00
00
00
00
ENDCHAR
STARTCHAR U+01011A
ENCODING 65818
SWIDTH 500 0
DWIDTH 8 0
BBX 8 16 0 -2
BITMAP 
00
00
00
00
00
00
22
55
22
00
00
00
00
00
00
00
ENDCHAR
STARTCHAR U+01011B
ENCODING 65819
SWIDTH 500 0
DWIDTH 8 0
BBX 8 16 0 -2
BITMAP 
00
00
00
10
28
10
00
10
28
10
00
10
28
10
00
00
ENDCHAR
STARTCHAR U+01011C
ENCODING 65820
SWIDTH 500 0
DWIDTH 8 0
BBX 8 16 0 -2
BITMAP 
00
00
00
00
22
55
22
00
00
22
55
22
00
00
00
00
ENDCHAR
STARTCHAR U+01011D
ENCODING 65821
SWIDTH 500 0
DWIDTH 8 0
BBX 8 16 0 -2
BITMAP 
00
00
00
20
50
24
0A
24
50
24
0A
24
50
20
00
00
ENDCHAR
STARTCHAR U+01011E
ENCODING 65822
SWIDTH 500 0
DWIDTH 8 0
BBX 8 16 0 -2
BITMAP 
00
00
00
22
55
22
00
22
55
22
00
22
55
22
00
00
ENDCHAR
STARTCHAR U+01011F
ENCODING 65823
SWIDTH 500 0
DWIDTH 8 0
BBX 8 16 0 -2
BITMAP 
00
20
50
24
0A
24
50
24
0A
24
50
24
0A
24
50
20
ENDCHAR
STARTCHAR U+010120
ENCODING 65824
SWIDTH 500 0
DWIDTH 8 0
BBX 8 16 0 -2
BITMAP 
00
22
55
22
00
22
55
22
00
22
55
22
00
22
55
22
ENDCHAR
STARTCHAR U+010121
ENCODING 65825
SWIDTH 1000 0
DWIDTH 16 0
BBX 16 16 0 -2
BITMAP 
0000
0000
0000
1110
2AA8
1110
0000
1110
2AA8
1110
0000
1110
2AA8
1110
0000
0000
ENDCHAR
STARTCHAR U+010122
ENCODING 65826
SWIDTH 500 0
DWIDTH 8 0
BBX 8 16 0 -2
BITMAP 
00
00
00
00
08
1C
22
63
22
1C
08
00
00
00
00
00
ENDCHAR
STARTCHAR U+010123
ENCODING 65827
SWIDTH 1000 0
DWIDTH 16 0
BBX 16 16 0 -2
BITMAP 
0000
0000
0000
0000
0810
1C38
2244
63C6
2244
1C38
0810
0000
0000
0000
0000
0000
ENDCHAR
STARTCHAR U+010124
ENCODING 65828
SWIDTH 500 0
DWIDTH 8 0
BBX 8 16 0 -2
BITMAP 
1C
22
63
22
1C
1C
22
63
22
1C
1C
22
63
22
1C
08
ENDCHAR
STARTCHAR U+010125
ENCODING 65829
SWIDTH 1000 0
DWIDTH 16 0
BBX 16 16 0 -2
BITMAP 
0000
0000
0810
1C38
2244
63C6
2244
1C38
1C38
2244
63C6
2244
1C38
0810
0000
0000
ENDCHAR
STARTCHAR U+010126
ENCODING 65830
SWIDTH 1000 0
DWIDTH 16 0
BBX 16 16 0 -2
BITMAP 
1C00
2200
6310
2238
1C44
1CC6
2244
6338
2238
1C44
1CC6
2244
6338
2210
1C00
0800
ENDCHAR
STARTCHAR U+010127
ENCODING 65831
SWIDTH 1000 0
DWIDTH 16 0
BBX 16 16 0 -2
BITMAP 
1C38
2244
63C6
2244
1C38
1C38
2244
63C6
2244
1C38
1C38
2244
63C6
2244
1C38
0810
ENDCHAR
STARTCHAR U+010128
ENCODING 65832
SWIDTH 1000 0
DWIDTH 16 0
BBX 16 16 0 -2
BITMAP 
1C38
2244
63C6
2244
1C38
2238
6344
22C6
1C44
2238
6338
2244
1CC6
2244
6338
1C10
ENDCHAR
STARTCHAR U+010129
ENCODING 65833
SWIDTH 1000 0
DWIDTH 16 0
BBX 16 16 0 -2
BITMAP 
1C38
2244
63C6
2244
1C38
2244
63C6
2244
1C38
2244
63C6
2244
1C38
2244
63C6
1C38
ENDCHAR
STARTCHAR U+01012A
ENCODING 65834
SWIDTH 1000 0
DWIDTH 16 0
BBX 16 16 0 -2
BITMAP 
318C
4A52
CE73
4A52
318C
318C
4A52
CE73
4A52
318C
318C
4A52
CE73
4A52
318C
1084
ENDCHAR
STARTCHAR U+01012B
ENCODING 65835
SWIDTH 500 0
DWIDTH 8 0
BBX 8 16 0 -2
BITMAP 
00
00
00
00
08
1C
22
7F
22
1C
08
00
00
00
00
00
ENDCHAR
STARTCHAR U+01012C
ENCODING 65836
SWIDTH 1000 0
DWIDTH 16 0
BBX 16 16 0 -2
BITMAP 
0000
0000
0000
0000
0810
1C38
2244
7FFE
2244
1C38
0810
0000
0000
0000
0000
0000
ENDCHAR
STARTCHAR U+01012D
ENCODING 65837
SWIDTH 500 0
DWIDTH 8 0
BBX 8 16 0 -2
BITMAP 
1C
22
7F
22
1C
1C
22
7F
22
1C
1C
22
7F
22
1C
08
ENDCHAR
STARTCHAR U+01012E
ENCODING 65838
SWIDTH 1000 0
DWIDTH 16 0
BBX 16 16 0 -2
BITMAP 
0000
0000
0810
1C38
2244
7FFE
2244
1C38
0810
1C38
2244
7FFE
2244
1C38
0810
0000
ENDCHAR
STARTCHAR U+01012F
ENCODING 65839
SWIDTH 1000 0
DWIDTH 16 0
BBX 16 16 0 -2
BITMAP 
1C00
2208
7F1C
2222
1C7F
1C22
221C
7F08
221C
1C22
1C7F
2222
7F1C
2208
1C00
0800
ENDCHAR
STARTCHAR U+010130
ENCODING 65840
SWIDTH 1000 0
DWIDTH 16 0
BBX 16 16 0 -2
BITMAP 
1C38
2244
7FFE
2244
1C38
1C38
2244
7FFE
2244
1C38
1C38
2244
7FFE
2244
1C38
0810
ENDCHAR
STARTCHAR U+010131
ENCODING 65841
SWIDTH 1000 0
DWIDTH 16 0
BBX 16 16 0 -2
BITMAP 
1C38
2244
7FFE
2244
1C38
2238
7F44
22FE
1C44
2238
7F38
2244
1CFE
2244
7F38
3E10
ENDCHAR
STARTCHAR U+010132
ENCODING 65842
SWIDTH 1000 0
DWIDTH 16 0
BBX 16 16 0 -2
BITMAP 
1C38
2244
7FFE
2244
1C38
2244
7FFE
2244
1C38
2244
7FFE
2244
1C38
2244
7FFE
3E7C
ENDCHAR
STARTCHAR U+010133
ENCODING 65843
SWIDTH 1000 0
DWIDTH 16 0
BBX 16 16 0 -2
BITMAP 
318C
4A52
FFFF
4A52
318C
318C
4A52
FFFF
4A52
318C
318C
4A52
FFFF
4A52
318C
1084
ENDCHAR
STARTCHAR U+010137
ENCODING 65847
SWIDTH 1000 0
DWIDTH 16 0
BBX 16 16 0 -2
BITMAP 
0000
0000
0220
0140
1FFC
0888
1494
1494
22A2
22A2
3EBE
0080
0080
0080
0000
0000
ENDCHAR
STARTCHAR U+010138
ENCODING 65848
SWIDTH 500 0
DWIDTH 8 0
BBX 8 16 0 -2
BITMAP 
00
00
30
48
10
24
18
00
30
48
10
24
18
00
00
00
ENDCHAR
STARTCHAR U+010139
ENCODING 65849
SWIDTH 1000 0
DWIDTH 16 0
BBX 16 16 0 -2
BITMAP 
0000
0000
0000
0440
0440
0440
1FF0
0440
0440
0440
1FF0
0440
0440
0440
0000
0000
ENDCHAR
STARTCHAR U+01013A
ENCODING 65850
SWIDTH 500 0
DWIDTH 8 0
BBX 8 16 0 -2
BITMAP 
00
00
00
38
44
12
42
24
18
26
40
48
22
1C
00
00
ENDCHAR
STARTCHAR U+01013B
ENCODING 65851
SWIDTH 500 0
DWIDTH 8 0
BBX 8 16 0 -2
BITMAP 
00
00
00
00
1C
22
22
10
08
3E
08
08
08
08
00
00
ENDCHAR
STARTCHAR U+01013C
ENCODING 65852
SWIDTH 500 0
DWIDTH 8 0
BBX 8 16 0 -2
BITMAP 
00
00
00
00
3E
00
08
08
08
08
08
08
08
08
00
00
ENDCHAR
STARTCHAR U+01013D
ENCODING 65853
SWIDTH 500 0
DWIDTH 8 0
BBX 8 16 0 -2
BITMAP 
00
00
00
00
21
42
FC
44
24
04
04
04
04
04
00
00
ENDCHAR
STARTCHAR U+01013E
ENCODING 65854
SWIDTH 500 0
DWIDTH 8 0
BBX 8 16 0 -2
BITMAP 
00
00
00
00
04
04
1C
24
44
44
24
14
04
04
00
00
ENDCHAR
STARTCHAR U+01013F
ENCODING 65855
SWIDTH 1000 0
DWIDTH 16 0
BBX 16 16 0 -2
BITMAP 
0000
0000
0000
0000
0000
0000
0000
3000
4800
4FFC
3804
0804
0408
03F0
0000
0000
ENDCHAR
STARTCHAR U+010140
ENCODING 65856
SWIDTH 500 0
DWIDTH 8 0
BBX 8 16 0 -2
BITMAP 
00
00
00
00
70
08
04
02
02
02
02
04
08
70
00
00
ENDCHAR
STARTCHAR U+010141
ENCODING 65857
SWIDTH 500 0
DWIDTH 8 0
BBX 8 16 0 -2
BITMAP 
00
00
00
00
0E
10
20
40
40
40
40
20
10
0E
00
00
ENDCHAR
STARTCHAR U+010142
ENCODING 65858
SWIDTH 500 0
DWIDTH 8 0
BBX 8 16 0 -2
BITMAP 
00
00
00
00
40
40
40
40
7E
40
40
40
40
40
00
00
ENDCHAR
STARTCHAR U+010143
ENCODING 65859
SWIDTH 500 0
DWIDTH 8 0
BBX 8 16 0 -2
BITMAP 
00
00
00
00
7E
42
42
40
40
40
40
40
40
40
00
00
ENDCHAR
STARTCHAR U+010144
ENCODING 65860
SWIDTH 500 0
DWIDTH 8 0
BBX 8 16 0 -2
BITMAP 
00
00
00
00
7F
41
49
54
62
7E
40
40
40
40
00
00
ENDCHAR
STARTCHAR U+010145
ENCODING 65861
SWIDTH 500 0
DWIDTH 8 0
BBX 8 16 0 -2
BITMAP 
00
00
00
00
7F
41
51
5F
51
40
40
40
40
40
00
00
ENDCHAR
STARTCHAR U+010146
ENCODING 65862
SWIDTH 500 0
DWIDTH 8 0
BBX 8 16 0 -2
BITMAP 
00
00
00
00
7F
41
55
48
54
40
40
40
40
40
00
00
ENDCHAR
STARTCHAR U+010147
ENCODING 65863
SWIDTH 500 0
DWIDTH 8 0
BBX 8 16 0 -2
BITMAP 
00
00
00
00
FF
81
A3
B6
AA
A2
80
80
80
80
00
00
ENDCHAR
STARTCHAR U+010148
ENCODING 65864
SWIDTH 500 0
DWIDTH 8 0
BBX 8 16 0 -2
BITMAP 
00
00
00
00
7F
41
5D
48
48
40
40
40
40
40
00
00
ENDCHAR
STARTCHAR U+010149
ENCODING 65865
SWIDTH 500 0
DWIDTH 8 0
BBX 8 16 0 -2
BITMAP 
00
00
00
08
14
14
22
22
41
41
7F
08
08
08
00
00
ENDCHAR
STARTCHAR U+01014A
ENCODING 65866
SWIDTH 500 0
DWIDTH 8 0
BBX 8 16 0 -2
BITMAP 
00
00
00
00
7F
41
49
54
62
7E
48
48
40
40
00
00
ENDCHAR
STARTCHAR U+01014B
ENCODING 65867
SWIDTH 500 0
DWIDTH 8 0
BBX 8 16 0 -2
BITMAP 
00
00
00
00
41
41
41
41
41
7F
49
49
49
49
00
00
ENDCHAR
STARTCHAR U+01014C
ENCODING 65868
SWIDTH 500 0
DWIDTH 8 0
BBX 8 16 0 -2
BITMAP 
00
00
00
00
7F
41
51
5F
55
55
40
40
40
40
00
00
ENDCHAR
STARTCHAR U+01014D
ENCODING 65869
SWIDTH 500 0
DWIDTH 8 0
BBX 8 16 0 -2
BITMAP 
00
00
00
41
22
14
08
14
22
41
7F
08
08
08
00
00
ENDCHAR
STARTCHAR U+01014E
ENCODING 65870
SWIDTH 500 0
DWIDTH 8 0
BBX 8 16 0 -2
BITMAP 
00
00
00
00
7F
41
55
48
54
40
5C
48
48
48
00
00
ENDCHAR
STARTCHAR U+01014F
ENCODING 65871
SWIDTH 500 0
DWIDTH 8 0
BBX 8 16 0 -2
BITMAP 
00
00
00
00
7F
41
5D
50
48
50
5C
40
40
40
00
00
ENDCHAR
STARTCHAR U+010150
ENCODING 65872
SWIDTH 500 0
DWIDTH 8 0
BBX 8 16 0 -2
BITMAP 
00
00
00
08
14
14
22
22
41
7F
00
1C
10
08
10
1C
ENDCHAR
STARTCHAR U+010151
ENCODING 65873
SWIDTH 500 0
DWIDTH 8 0
BBX 8 16 0 -2
BITMAP 
00
00
00
00
7F
41
49
54
7E
40
5C
50
48
50
1C
00
ENDCHAR
STARTCHAR U+010152
ENCODING 65874
SWIDTH 500 0
DWIDTH 8 0
BBX 8 16 0 -2
BITMAP 
00
00
00
00
41
41
41
7F
41
5D
51
49
51
5D
00
00
ENDCHAR
STARTCHAR U+010153
ENCODING 65875
SWIDTH 500 0
DWIDTH 8 0
BBX 8 16 0 -2
BITMAP 
00
00
00
00
7F
41
51
5F
51
40
5C
50
48
50
1C
00
ENDCHAR
STARTCHAR U+010154
ENCODING 65876
SWIDTH 500 0
DWIDTH 8 0
BBX 8 16 0 -2
BITMAP 
00
00
00
41
22
14
08
14
22
5D
10
08
10
1C
00
00
ENDCHAR
STARTCHAR U+010155
ENCODING 65877
SWIDTH 500 0
DWIDTH 8 0
BBX 8 16 0 -2
BITMAP 
00
00
00
00
41
63
55
49
41
5D
51
49
51
5D
00
00
ENDCHAR
STARTCHAR U+010156
ENCODING 65878
SWIDTH 500 0
DWIDTH 8 0
BBX 8 16 0 -2
BITMAP 
00
00
00
00
FF
81
A3
B6
AA
A2
9C
90
88
90
1C
00
ENDCHAR
STARTCHAR U+010157
ENCODING 65879
SWIDTH 500 0
DWIDTH 8 0
BBX 8 16 0 -2
BITMAP 
00
00
00
00
08
14
22
3E
00
41
63
55
49
41
00
00
ENDCHAR
STARTCHAR U+010158
ENCODING 65880
SWIDTH 500 0
DWIDTH 8 0
BBX 8 16 0 -2
BITMAP 
00
00
00
00
7F
41
4D
4C
40
40
40
40
40
40
00
00
ENDCHAR
STARTCHAR U+010159
ENCODING 65881
SWIDTH 500 0
DWIDTH 8 0
BBX 8 16 0 -2
BITMAP 
00
00
00
00
00
40
60
50
48
7C
48
50
60
40
00
00
ENDCHAR
STARTCHAR U+01015A
ENCODING 65882
SWIDTH 500 0
DWIDTH 8 0
BBX 8 16 0 -2
BITMAP 
00
00
00
00
7F
42
44
48
50
60
40
40
40
40
00
00
ENDCHAR
STARTCHAR U+01015B
ENCODING 65883
SWIDTH 500 0
DWIDTH 8 0
BBX 8 16 0 -2
BITMAP 
00
00
00
00
18
18
00
00
00
00
00
00
18
18
00
00
ENDCHAR
STARTCHAR U+01015C
ENCODING 65884
SWIDTH 500 0
DWIDTH 8 0
BBX 8 16 0 -2
BITMAP 
00
00
00
00
7F
40
20
10
08
04
08
10
20
40
00
00
ENDCHAR
STARTCHAR U+01015D
ENCODING 65885
SWIDTH 500 0
DWIDTH 8 0
BBX 8 16 0 -2
BITMAP 
00
00
00
00
7E
40
40
40
40
40
40
40
40
7E
00
00
ENDCHAR
STARTCHAR U+01015E
ENCODING 65886
SWIDTH 500 0
DWIDTH 8 0
BBX 8 16 0 -2
BITMAP 
00
00
00
00
7E
00
00
00
00
00
00
00
00
7E
00
00
ENDCHAR
STARTCHAR U+01015F
ENCODING 65887
SWIDTH 500 0
DWIDTH 8 0
BBX 8 16 0 -2
BITMAP 
00
00
00
00
7E
42
4A
50
48
40
40
40
40
40
00
00
ENDCHAR
STARTCHAR U+010160
ENCODING 65888
SWIDTH 500 0
DWIDTH 8 0
BBX 8 16 0 -2
BITMAP 
00
00
00
00
7E
02
04
08
10
10
08
04
02
7E
00
00
ENDCHAR
STARTCHAR U+010161
ENCODING 65889
SWIDTH 500 0
DWIDTH 8 0
BBX 8 16 0 -2
BITMAP 
00
00
00
7C
44
44
28
28
10
28
28
44
44
7C
00
00
ENDCHAR
STARTCHAR U+010162
ENCODING 65890
SWIDTH 500 0
DWIDTH 8 0
BBX 8 16 0 -2
BITMAP 
00
00
00
00
08
1C
1C
2A
2A
2A
49
49
49
7F
00
00
ENDCHAR
STARTCHAR U+010163
ENCODING 65891
SWIDTH 500 0
DWIDTH 8 0
BBX 8 16 0 -2
BITMAP 
00
00
00
00
08
9C
5C
2A
09
08
08
08
08
08
00
00
ENDCHAR
STARTCHAR U+010164
ENCODING 65892
SWIDTH 500 0
DWIDTH 8 0
BBX 8 16 0 -2
BITMAP 
00
00
00
00
00
60
50
48
44
7F
44
48
50
60
00
00
ENDCHAR
STARTCHAR U+010165
ENCODING 65893
SWIDTH 500 0
DWIDTH 8 0
BBX 8 16 0 -2
BITMAP 
00
00
00
00
FC
60
50
48
44
7F
44
48
50
60
00
00
ENDCHAR
STARTCHAR U+010166
ENCODING 65894
SWIDTH 500 0
DWIDTH 8 0
BBX 8 16 0 -2
BITMAP 
00
00
00
00
7F
49
49
48
48
40
40
40
40
40
00
00
ENDCHAR
STARTCHAR U+010167
ENCODING 65895
SWIDTH 500 0
DWIDTH 8 0
BBX 8 16 0 -2
BITMAP 
00
00
00
00
7F
41
5D
44
48
44
5C
40
40
40
00
00
ENDCHAR
STARTCHAR U+010168
ENCODING 65896
SWIDTH 500 0
DWIDTH 8 0
BBX 8 16 0 -2
BITMAP 
00
00
00
00
41
71
4D
43
40
40
40
40
40
40
00
00
ENDCHAR
STARTCHAR U+010169
ENCODING 65897
SWIDTH 1000 0
DWIDTH 16 0
BBX 16 16 0 -2
BITMAP 
0000
0000
0000
0000
7FF8
4100
4100
4100
41F8
4100
4100
4100
4100
41F8
0000
0000
ENDCHAR
STARTCHAR U+01016A
ENCODING 65898
SWIDTH 1000 0
DWIDTH 16 0
BBX 16 16 0 -2
BITMAP 
0000
0000
0000
0000
41F8
4100
4100
4100
7FF8
4100
4100
4100
4100
41F8
0000
0000
ENDCHAR
STARTCHAR U+01016B
ENCODING 65899
SWIDTH 1000 0
DWIDTH 16 0
BBX 16 16 0 -2
BITMAP 
0000
0000
0000
0000
7DF8
1100
1100
1100
1FF8
1100
1100
1100
1100
11F8
0000
0000
ENDCHAR
STARTCHAR U+01016C
ENCODING 65900
SWIDTH 1000 0
DWIDTH 16 0
BBX 16 16 0 -2
BITMAP 
0000
0000
0000
0000
3F80
2080
2080
20F8
2000
2000
2000
2000
2000
2000
0000
0000
ENDCHAR
STARTCHAR U+01016D
ENCODING 65901
SWIDTH 1000 0
DWIDTH 16 0
BBX 16 16 0 -2
BITMAP 
0000
0000
0000
0000
7F04
4104
4104
4104
4104
4104
4104
4104
4104
41FC
0000
0000
ENDCHAR
STARTCHAR U+01016E
ENCODING 65902
SWIDTH 1000 0
DWIDTH 16 0
BBX 16 16 0 -2
BITMAP 
0000
0000
0000
0000
7C7C
4440
4440
4440
47FC
4440
4440
4440
4440
447C
0000
0000
ENDCHAR
STARTCHAR U+01016F
ENCODING 65903
SWIDTH 500 0
DWIDTH 8 0
BBX 8 16 0 -2
BITMAP 
00
00
00
00
7F
41
41
40
40
40
7C
44
44
44
00
00
ENDCHAR
STARTCHAR U+010170
ENCODING 65904
SWIDTH 500 0
DWIDTH 8 0
BBX 8 16 0 -2
BITMAP 
00
00
00
00
7F
49
49
49
7F
49
49
49
49
49
00
00
ENDCHAR
STARTCHAR U+010171
ENCODING 65905
SWIDTH 500 0
DWIDTH 8 0
BBX 8 16 0 -2
BITMAP 
00
00
00
00
49
49
2A
2A
1C
08
08
08
08
08
00
00
ENDCHAR
STARTCHAR U+010172
ENCODING 65906
SWIDTH 500 0
DWIDTH 8 0
BBX 8 16 0 -2
BITMAP 
00
00
00
00
3E
22
22
A8
70
20
20
20
20
20
00
00
ENDCHAR
STARTCHAR U+010173
ENCODING 65907
SWIDTH 500 0
DWIDTH 8 0
BBX 8 16 0 -2
BITMAP 
00
00
00
00
18
24
7E
42
42
42
42
42
42
42
00
00
ENDCHAR
STARTCHAR U+010174
ENCODING 65908
SWIDTH 500 0
DWIDTH 8 0
BBX 8 16 0 -2
BITMAP 
00
22
36
2A
22
00
7F
41
49
54
62
7E
40
40
40
00
ENDCHAR
STARTCHAR U+010175
ENCODING 65909
SWIDTH 500 0
DWIDTH 8 0
BBX 8 16 0 -2
BITMAP 
00
00
00
00
00
00
00
00
02
04
08
10
20
7E
00
00
ENDCHAR
STARTCHAR U+010176
ENCODING 65910
SWIDTH 500 0
DWIDTH 8 0
BBX 8 16 0 -2
BITMAP 
00
00
00
00
00
00
09
52
40
3E
01
01
00
00
00
00
ENDCHAR
STARTCHAR U+010177
ENCODING 65911
SWIDTH 1000 0
DWIDTH 16 0
BBX 16 16 0 -2
BITMAP 
0000
0000
0000
0000
0008
0004
0004
0868
1090
2068
2008
2108
1110
0EE0
0000
0000
ENDCHAR
STARTCHAR U+010178
ENCODING 65912
SWIDTH 500 0
DWIDTH 8 0
BBX 8 16 0 -2
BITMAP 
00
00
00
1A
22
42
42
22
1A
22
42
42
22
1A
00
00
ENDCHAR
STARTCHAR U+010179
ENCODING 65913
SWIDTH 500 0
DWIDTH 8 0
BBX 8 16 0 -2
BITMAP 
00
00
00
00
00
00
00
00
00
20
20
20
10
0E
00
00
ENDCHAR
STARTCHAR U+01017A
ENCODING 65914
SWIDTH 500 0
DWIDTH 8 0
BBX 8 16 0 -2
BITMAP 
00
00
00
00
00
00
7F
08
14
14
22
22
41
41
00
00
ENDCHAR
STARTCHAR U+01017B
ENCODING 65915
SWIDTH 500 0
DWIDTH 8 0
BBX 8 16 0 -2
BITMAP 
00
00
00
00
00
04
08
10
20
44
20
10
08
04
00
00
ENDCHAR
STARTCHAR U+01017C
ENCODING 65916
SWIDTH 500 0
DWIDTH 8 0
BBX 8 16 0 -2
BITMAP 
00
00
00
00
00
00
00
06
49
30
00
00
00
00
00
00
ENDCHAR
STARTCHAR U+01017D
ENCODING 65917
SWIDTH 500 0
DWIDTH 8 0
BBX 8 16 0 -2
BITMAP 
00
00
00
00
00
00
06
49
30
00
06
49
30
00
00
00
ENDCHAR
STARTCHAR U+01017E
ENCODING 65918
SWIDTH 500 0
DWIDTH 8 0
BBX 8 16 0 -2
BITMAP 
00
00
00
00
1C
22
40
40
40
40
40
40
40
40
00
00
ENDCHAR
STARTCHAR U+01017F
ENCODING 65919
SWIDTH 500 0
DWIDTH 8 0
BBX 8 16 0 -2
BITMAP 
00
00
00
00
1C
22
40
40
40
7C
40
40
40
40
00
00
ENDCHAR
STARTCHAR U+010180
ENCODING 65920
SWIDTH 500 0
DWIDTH 8 0
BBX 8 16 0 -2
BITMAP 
00
00
00
00
1C
22
40
40
7C
40
70
40
40
40
00
00
ENDCHAR
STARTCHAR U+010181
ENCODING 65921
SWIDTH 500 0
DWIDTH 8 0
BBX 8 16 0 -2
BITMAP 
00
00
00
00
40
40
40
40
40
7C
40
40
40
7C
00
00
ENDCHAR
STARTCHAR U+010182
ENCODING 65922
SWIDTH 500 0
DWIDTH 8 0
BBX 8 16 0 -2
BITMAP 
00
00
00
00
42
44
48
50
60
60
50
4A
44
4A
00
00
ENDCHAR
STARTCHAR U+010183
ENCODING 65923
SWIDTH 500 0
DWIDTH 8 0
BBX 8 16 0 -2
BITMAP 
00
00
00
00
3F
42
42
32
02
02
02
02
04
18
00
00
ENDCHAR
STARTCHAR U+010184
ENCODING 65924
SWIDTH 500 0
DWIDTH 8 0
BBX 8 16 0 -2
BITMAP 
00
00
00
00
7E
42
42
48
54
48
40
40
40
40
00
00
ENDCHAR
STARTCHAR U+010185
ENCODING 65925
SWIDTH 500 0
DWIDTH 8 0
BBX 8 16 0 -2
BITMAP 
00
00
00
00
00
00
00
56
49
35
00
00
00
00
00
00
ENDCHAR
STARTCHAR U+010186
ENCODING 65926
SWIDTH 500 0
DWIDTH 8 0
BBX 8 16 0 -2
BITMAP 
00
00
00
00
00
00
00
00
00
7F
00
08
14
08
00
00
ENDCHAR
STARTCHAR U+010187
ENCODING 65927
SWIDTH 500 0
DWIDTH 8 0
BBX 8 16 0 -2
BITMAP 
00
00
00
00
70
10
10
20
20
26
24
22
22
1C
00
00
ENDCHAR
STARTCHAR U+010188
ENCODING 65928
SWIDTH 1000 0
DWIDTH 16 0
BBX 16 16 0 -2
BITMAP 
0000
0000
0000
00E0
7F10
4190
4160
4100
4180
4300
4500
4000
4000
4000
0000
0000
ENDCHAR
STARTCHAR U+010189
ENCODING 65929
SWIDTH 500 0
DWIDTH 8 0
BBX 8 16 0 -2
BITMAP 
00
00
00
00
07
02
02
22
52
54
38
10
10
10
00
00
ENDCHAR
STARTCHAR U+01018A
ENCODING 65930
SWIDTH 500 0
DWIDTH 8 0
BBX 8 16 0 -2
BITMAP 
00
00
00
00
00
00
00
00
00
7F
00
08
14
08
00
00
ENDCHAR
STARTCHAR U+01018B
ENCODING 65931
SWIDTH 500 0
DWIDTH 8 0
BBX 8 16 0 -2
BITMAP 
00
00
00
00
08
04
02
02
02
1A
26
22
22
1C
00
00
ENDCHAR
STARTCHAR U+01018C
ENCODING 65932
SWIDTH 500 0
DWIDTH 8 0
BBX 8 16 0 -2
BITMAP 
00
00
00
08
10
20
20
20
10
08
04
04
04
08
10
00
ENDCHAR
STARTCHAR U+01018D
ENCODING 65933
SWIDTH 500 0
DWIDTH 8 0
BBX 8 16 0 -2
BITMAP 
00
00
00
00
08
08
0A
0A
1C
28
28
08
08
08
00
00
ENDCHAR
STARTCHAR U+01018E
ENCODING 65934
SWIDTH 500 0
DWIDTH 8 0
BBX 8 16 0 -2
BITMAP 
18
24
24
18
42
62
62
52
52
4A
4A
46
46
42
00
00
ENDCHAR
STARTCHAR U+010190
ENCODING 65936
SWIDTH 500 0
DWIDTH 8 0
BBX 8 16 0 -2
BITMAP 
00
00
00
00
00
00
00
7E
00
00
00
7E
00
00
00
00
ENDCHAR
STARTCHAR U+010191
ENCODING 65937
SWIDTH 500 0
DWIDTH 8 0
BBX 8 16 0 -2
BITMAP 
00
00
00
00
00
00
00
00
00
FE
00
00
00
00
00
00
ENDCHAR
STARTCHAR U+010192
ENCODING 65938
SWIDTH 500 0
DWIDTH 8 0
BBX 8 16 0 -2
BITMAP 
00
00
00
00
0E
10
10
10
10
10
10
10
3E
61
00
00
ENDCHAR
STARTCHAR U+010193
ENCODING 65939
SWIDTH 500 0
DWIDTH 8 0
BBX 8 16 0 -2
BITMAP 
00
00
00
00
3C
42
42
02
0C
30
40
42
42
3C
00
00
ENDCHAR
STARTCHAR U+010194
ENCODING 65940
SWIDTH 500 0
DWIDTH 8 0
BBX 8 16 0 -2
BITMAP 
00
00
00
00
3C
42
42
02
0C
FF
20
42
42
3C
00
00
ENDCHAR
STARTCHAR U+010195
ENCODING 65941
SWIDTH 500 0
DWIDTH 8 0
BBX 8 16 0 -2
BITMAP 
00
00
00
00
00
00
00
48
24
12
12
12
24
48
00
00
ENDCHAR
STARTCHAR U+010196
ENCODING 65942
SWIDTH 500 0
DWIDTH 8 0
BBX 8 16 0 -2
BITMAP 
00
00
00
00
42
42
24
24
18
FF
24
24
42
42
00
00
ENDCHAR
STARTCHAR U+010197
ENCODING 65943
SWIDTH 1000 0
DWIDTH 16 0
BBX 16 16 0 -2
BITMAP 
0000
0000
0000
0000
0820
0820
0820
0440
1FF0
0440
0280
0280
0100
0100
0000
0000
ENDCHAR
STARTCHAR U+010198
ENCODING 65944
SWIDTH 1000 0
DWIDTH 16 0
BBX 16 16 0 -2
BITMAP 
0000
0000
0000
0000
213C
2142
2142
2140
FFFF
210C
2102
2142
2142
213C
0000
0000
ENDCHAR
STARTCHAR U+010199
ENCODING 65945
SWIDTH 1000 0
DWIDTH 16 0
BBX 16 16 0 -2
BITMAP 
0000
0000
0000
0000
0420
0420
0420
0420
1FF8
0420
0420
0420
0420
0420
0000
0000
ENDCHAR
STARTCHAR U+01019A
ENCODING 65946
SWIDTH 500 0
DWIDTH 8 0
BBX 8 16 0 -2
BITMAP 
00
00
00
00
02
02
04
08
7E
10
10
20
40
40
00
00
ENDCHAR
STARTCHAR U+01019B
ENCODING 65947
SWIDTH 500 0
DWIDTH 8 0
BBX 8 16 0 -2
BITMAP 
00
00
00
00
40
30
0C
02
04
08
10
20
40
80
00
00
ENDCHAR
STARTCHAR U+0101A0
ENCODING 65952
SWIDTH 500 0
DWIDTH 8 0
BBX 8 16 0 -2
BITMAP 
00
00
00
00
0E
12
12
12
1C
10
7E
10
10
10
00
00
ENDCHAR
STARTCHAR U+0101D0
ENCODING 66000
SWIDTH 1000 0
DWIDTH 16 0
BBX 16 16 0 -2
BITMAP 
0000
0000
01C0
0220
0520
2240
1180
0E70
0248
0244
03C0
0240
0440
0820
0000
0000
ENDCHAR
STARTCHAR U+0101D1
ENCODING 66001
SWIDTH 1000 0
DWIDTH 16 0
BBX 16 16 0 -2
BITMAP 
0000
0280
0290
05A0
03C8
03D0
042C
0950
0450
0420
0420
0340
0140
0180
0000
0000
ENDCHAR
STARTCHAR U+0101D2
ENCODING 66002
SWIDTH 1000 0
DWIDTH 16 0
BBX 16 16 0 -2
BITMAP 
0000
0000
0000
03C0
0420
0810
0A50
1050
1910
0A20
0840
0680
0280
0300
0000
0000
ENDCHAR
STARTCHAR U+0101D3
ENCODING 66003
SWIDTH 1000 0
DWIDTH 16 0
BBX 16 16 0 -2
BITMAP 
0000
0000
0700
0880
1480
0880
0700
0340
02A0
02F0
03A0
0280
0240
06C0
0000
0000
ENDCHAR
STARTCHAR U+0101D4
ENCODING 66004
SWIDTH 1000 0
DWIDTH 16 0
BBX 16 16 0 -2
BITMAP 
0000
0000
0700
0880
1480
0880
0700
0340
06A0
0AA0
0BA0
0A80
0240
06C0
0000
0000
ENDCHAR
STARTCHAR U+0101D5
ENCODING 66005
SWIDTH 1000 0
DWIDTH 16 0
BBX 16 16 0 -2
BITMAP 
0000
0000
01C0
0230
0528
0254
0180
0260
05D0
0250
03C0
0220
03E0
0140
0000
0000
ENDCHAR
STARTCHAR U+0101D6
ENCODING 66006
SWIDTH 1000 0
DWIDTH 16 0
BBX 16 16 0 -2
BITMAP 
0000
0000
0000
0000
0000
0380
0280
06C0
0820
0820
0820
0820
0820
0FE0
0000
0000
ENDCHAR
STARTCHAR U+0101D7
ENCODING 66007
SWIDTH 1000 0
DWIDTH 16 0
BBX 16 16 0 -2
BITMAP 
0000
0000
0000
0000
1540
2AB0
2AA8
2408
3210
1920
16C0
1FC0
1040
1FC0
0000
0000
ENDCHAR
STARTCHAR U+0101D8
ENCODING 66008
SWIDTH 1000 0
DWIDTH 16 0
BBX 16 16 0 -2
BITMAP 
0000
0000
0300
0680
0A40
0E40
1120
14A0
1490
1450
1450
1C48
07E8
0038
0000
0000
ENDCHAR
STARTCHAR U+0101D9
ENCODING 66009
SWIDTH 1000 0
DWIDTH 16 0
BBX 16 16 0 -2
BITMAP 
0000
0000
07C0
0D60
0BA0
0D60
0BA0
0540
0380
0100
0100
0100
0100
0100
0000
0000
ENDCHAR
STARTCHAR U+0101DA
ENCODING 66010
SWIDTH 500 0
DWIDTH 8 0
BBX 8 16 0 -2
BITMAP 
00
00
10
08
08
10
20
30
20
30
20
10
08
08
10
00
ENDCHAR
STARTCHAR U+0101DB
ENCODING 66011
SWIDTH 1000 0
DWIDTH 16 0
BBX 16 16 0 -2
BITMAP 
0000
0000
0000
0000
07C0
0820
1290
1010
1550
1010
1290
0820
07C0
0000
0000
0000
ENDCHAR
STARTCHAR U+0101DC
ENCODING 66012
SWIDTH 1000 0
DWIDTH 16 0
BBX 16 16 0 -2
BITMAP 
0000
0000
0380
06C0
0280
06C0
0280
06C0
0280
06C0
0280
0280
0440
0380
0000
0000
ENDCHAR
STARTCHAR U+0101DD
ENCODING 66013
SWIDTH 1000 0
DWIDTH 16 0
BBX 16 16 0 -2
BITMAP 
0000
0000
0000
1FE0
1410
1410
1410
1FE0
1400
1FE0
1410
1410
1410
1FE0
0000
0000
ENDCHAR
STARTCHAR U+0101DE
ENCODING 66014
SWIDTH 1000 0
DWIDTH 16 0
BBX 16 16 0 -2
BITMAP 
0000
0000
0000
0020
0050
0050
3FD8
4054
3FD8
0050
0088
0088
0104
00F8
0000
0000
ENDCHAR
STARTCHAR U+0101DF
ENCODING 66015
SWIDTH 1000 0
DWIDTH 16 0
BBX 16 16 0 -2
BITMAP 
0000
0000
0180
0240
0280
0CC0
0840
0840
0440
0440
0480
0480
0500
0600
0000
0000
ENDCHAR
STARTCHAR U+0101E0
ENCODING 66016
SWIDTH 1000 0
DWIDTH 16 0
BBX 16 16 0 -2
BITMAP 
0000
0000
0080
0140
0240
0240
0640
0A40
0A40
0640
0240
0240
0140
0080
0000
0000
ENDCHAR
STARTCHAR U+0101E1
ENCODING 66017
SWIDTH 1000 0
DWIDTH 16 0
BBX 16 16 0 -2
BITMAP 
0000
0000
0000
0080
0140
0220
0440
0880
1100
0880
0440
0220
0140
0080
0000
0000
ENDCHAR
STARTCHAR U+0101E2
ENCODING 66018
SWIDTH 1000 0
DWIDTH 16 0
BBX 16 16 0 -2
BITMAP 
0000
0000
0000
1000
1000
0800
0800
0440
0440
0280
0280
0100
0100
0080
0000
0000
ENDCHAR
STARTCHAR U+0101E3
ENCODING 66019
SWIDTH 1000 0
DWIDTH 16 0
BBX 16 16 0 -2
BITMAP 
0000
0000
0000
00C0
0340
0440
0B80
0C80
08C0
0B40
0C40
0580
0680
0380
0000
0000
ENDCHAR
STARTCHAR U+0101E4
ENCODING 66020
SWIDTH 1000 0
DWIDTH 16 0
BBX 16 16 0 -2
BITMAP 
0000
0000
0000
0550
0550
0FF8
0080
0080
0380
0080
0080
0FF8
0550
0550
0000
0000
ENDCHAR
STARTCHAR U+0101E5
ENCODING 66021
SWIDTH 1000 0
DWIDTH 16 0
BBX 16 16 0 -2
BITMAP 
0000
0000
0000
03C0
0240
0240
0240
0240
0180
0180
0240
0240
0420
0420
0000
0000
ENDCHAR
STARTCHAR U+0101E6
ENCODING 66022
SWIDTH 1000 0
DWIDTH 16 0
BBX 16 16 0 -2
BITMAP 
0000
0000
0000
07C0
0440
07C0
0100
0100
0100
0100
0100
0100
0100
0100
0000
0000
ENDCHAR
STARTCHAR U+0101E7
ENCODING 66023
SWIDTH 1000 0
DWIDTH 16 0
BBX 16 16 0 -2
BITMAP 
0000
0000
0100
07C0
0D60
1550
1FF0
0540
7FFC
0540
0FE0
0540
0540
0540
0000
0000
ENDCHAR
STARTCHAR U+0101E8
ENCODING 66024
SWIDTH 1000 0
DWIDTH 16 0
BBX 16 16 0 -2
BITMAP 
0000
00D0
0630
0BF0
0890
0910
0980
0900
0900
0900
0900
0500
03A0
0070
0000
0000
ENDCHAR
STARTCHAR U+0101E9
ENCODING 66025
SWIDTH 1000 0
DWIDTH 16 0
BBX 16 16 0 -2
BITMAP 
0000
0000
0180
0180
0280
0280
0500
0500
0480
0280
0240
0240
0240
03C0
0000
0000
ENDCHAR
STARTCHAR U+0101EA
ENCODING 66026
SWIDTH 1000 0
DWIDTH 16 0
BBX 16 16 0 -2
BITMAP 
0000
0000
0000
07C0
0440
7C7C
4004
701C
0820
0820
0820
1010
26C8
1930
0000
0000
ENDCHAR
STARTCHAR U+0101EB
ENCODING 66027
SWIDTH 1000 0
DWIDTH 16 0
BBX 16 16 0 -2
BITMAP 
0000
0000
0000
03C0
0240
0240
0240
0480
0480
0480
0880
0F80
0900
0E00
0000
0000
ENDCHAR
STARTCHAR U+0101EC
ENCODING 66028
SWIDTH 1000 0
DWIDTH 16 0
BBX 16 16 0 -2
BITMAP 
0000
0180
0140
0640
0840
1420
2030
3C10
3020
0C40
0240
0280
0300
0000
0000
0000
ENDCHAR
STARTCHAR U+0101ED
ENCODING 66029
SWIDTH 1000 0
DWIDTH 16 0
BBX 16 16 0 -2
BITMAP 
0000
0000
0000
007C
00BE
0742
08C6
3434
4008
4034
3E02
0184
0078
0000
0000
0000
ENDCHAR
STARTCHAR U+0101EE
ENCODING 66030
SWIDTH 1000 0
DWIDTH 16 0
BBX 16 16 0 -2
BITMAP 
0000
0000
0300
0500
0904
090A
38F2
4002
5802
28F2
292A
0964
0570
0330
0000
0000
ENDCHAR
STARTCHAR U+0101EF
ENCODING 66031
SWIDTH 1000 0
DWIDTH 16 0
BBX 16 16 0 -2
BITMAP 
0000
0000
0000
0300
0480
0480
0A80
0280
0550
04E0
0410
0388
017C
0300
0000
0000
ENDCHAR
STARTCHAR U+0101F0
ENCODING 66032
SWIDTH 1000 0
DWIDTH 16 0
BBX 16 16 0 -2
BITMAP 
0000
0000
0100
0100
0280
0440
0940
0420
0450
0440
0AA0
0280
0540
06C0
0000
0000
ENDCHAR
STARTCHAR U+0101F1
ENCODING 66033
SWIDTH 1000 0
DWIDTH 16 0
BBX 16 16 0 -2
BITMAP 
0000
0000
0000
0820
1110
1290
0AA0
0440
0820
0920
1110
1290
0D60
0000
0000
0000
ENDCHAR
STARTCHAR U+0101F2
ENCODING 66034
SWIDTH 1000 0
DWIDTH 16 0
BBX 16 16 0 -2
BITMAP 
0000
0000
0080
0140
0140
0E80
1360
0D90
0160
0D00
1360
0D90
0160
0100
0000
0000
ENDCHAR
STARTCHAR U+0101F3
ENCODING 66035
SWIDTH 1000 0
DWIDTH 16 0
BBX 16 16 0 -2
BITMAP 
0000
0000
1020
3870
1020
0C70
1820
0AC0
1440
04A0
0B00
0300
0300
0780
0000
0000
ENDCHAR
STARTCHAR U+0101F4
ENCODING 66036
SWIDTH 1000 0
DWIDTH 16 0
BBX 16 16 0 -2
BITMAP 
0000
0000
0000
07C0
0AA0
0440
0280
0100
01C0
0700
0100
0180
0300
0100
0000
0000
ENDCHAR
STARTCHAR U+0101F5
ENCODING 66037
SWIDTH 1000 0
DWIDTH 16 0
BBX 16 16 0 -2
BITMAP 
0000
0000
0000
06C0
0920
1550
1390
0EE0
1390
1550
0920
06C0
0000
0000
0000
0000
ENDCHAR
STARTCHAR U+0101F6
ENCODING 66038
SWIDTH 1000 0
DWIDTH 16 0
BBX 16 16 0 -2
BITMAP 
0000
0000
2108
3298
2AA8
16D0
0890
0620
0240
0280
0280
0280
0280
0380
0000
0000
ENDCHAR
STARTCHAR U+0101F7
ENCODING 66039
SWIDTH 1000 0
DWIDTH 16 0
BBX 16 16 0 -2
BITMAP 
0000
0000
0000
0EE0
1110
1110
1110
1110
1110
1110
0920
0540
0540
0FE0
0000
0000
ENDCHAR
STARTCHAR U+0101F8
ENCODING 66040
SWIDTH 1000 0
DWIDTH 16 0
BBX 16 16 0 -2
BITMAP 
0000
0000
0300
04C0
0420
0540
0540
0540
0540
0540
0540
0440
0240
01C0
0000
0000
ENDCHAR
STARTCHAR U+0101F9
ENCODING 66041
SWIDTH 1000 0
DWIDTH 16 0
BBX 16 16 0 -2
BITMAP 
0000
0000
0000
0300
0480
05C0
0A80
0DC0
0A80
0DC0
0A80
0540
04C0
0300
0000
0000
ENDCHAR
STARTCHAR U+0101FA
ENCODING 66042
SWIDTH 1000 0
DWIDTH 16 0
BBX 16 16 0 -2
BITMAP 
0000
0000
0000
0000
0000
0000
0000
7FFC
2AA8
1550
0AA0
0540
0280
0100
0000
0000
ENDCHAR
STARTCHAR U+0101FB
ENCODING 66043
SWIDTH 1000 0
DWIDTH 16 0
BBX 16 16 0 -2
BITMAP 
0000
0000
0000
0100
1E80
1080
1080
1040
2020
1C90
0220
0140
0080
0000
0000
0000
ENDCHAR
STARTCHAR U+0101FC
ENCODING 66044
SWIDTH 1000 0
DWIDTH 16 0
BBX 16 16 0 -2
BITMAP 
0000
01F8
0290
0290
0520
0540
0540
0540
04A0
02A0
02A0
02A0
0520
0FC0
0000
0000
ENDCHAR
STARTCHAR U+0101FD
ENCODING 66045
SWIDTH 1000 0
DWIDTH 16 0
BBX 16 16 0 -2
BITMAP 
0000
0000
0000
0000
0000
0000
0000
0000
0000
0000
0000
0000
0200
0400
0800
1000
ENDCHAR
STARTCHAR U+010280
ENCODING 66176
SWIDTH 500 0
DWIDTH 8 0
BBX 8 16 0 -2
BITMAP 
00
00
00
00
20
30
28
24
3E
20
20
20
20
20
00
00
ENDCHAR
STARTCHAR U+010281
ENCODING 66177
SWIDTH 500 0
DWIDTH 8 0
BBX 8 16 0 -2
BITMAP 
00
00
00
00
08
1C
2A
08
08
08
08
08
08
08
00
00
ENDCHAR
STARTCHAR U+010282
ENCODING 66178
SWIDTH 500 0
DWIDTH 8 0
BBX 8 16 0 -2
BITMAP 
00
00
00
00
7C
42
42
42
7C
42
42
42
42
7C
00
00
ENDCHAR
STARTCHAR U+010283
ENCODING 66179
SWIDTH 500 0
DWIDTH 8 0
BBX 8 16 0 -2
BITMAP 
00
00
00
00
40
6A
6A
54
54
40
40
40
40
40
00
00
ENDCHAR
STARTCHAR U+010284
ENCODING 66180
SWIDTH 500 0
DWIDTH 8 0
BBX 8 16 0 -2
BITMAP 
00
00
00
00
24
28
30
20
20
20
20
20
20
20
00
00
ENDCHAR
STARTCHAR U+010285
ENCODING 66181
SWIDTH 500 0
DWIDTH 8 0
BBX 8 16 0 -2
BITMAP 
00
00
00
00
08
08
14
14
22
22
22
41
41
7F
00
00
ENDCHAR
STARTCHAR U+010286
ENCODING 66182
SWIDTH 500 0
DWIDTH 8 0
BBX 8 16 0 -2
BITMAP 
00
00
00
00
7E
40
40
40
7C
40
40
40
40
7E
00
00
ENDCHAR
STARTCHAR U+010287
ENCODING 66183
SWIDTH 500 0
DWIDTH 8 0
BBX 8 16 0 -2
BITMAP 
00
00
00
00
7E
40
40
40
7C
40
40
40
40
40
00
00
ENDCHAR
STARTCHAR U+010288
ENCODING 66184
SWIDTH 500 0
DWIDTH 8 0
BBX 8 16 0 -2
BITMAP 
00
00
00
00
3E
08
08
08
08
08
08
08
08
3E
00
00
ENDCHAR
STARTCHAR U+010289
ENCODING 66185
SWIDTH 500 0
DWIDTH 8 0
BBX 8 16 0 -2
BITMAP 
00
00
00
00
63
14
14
08
08
08
08
14
14
63
00
00
ENDCHAR
STARTCHAR U+01028A
ENCODING 66186
SWIDTH 500 0
DWIDTH 8 0
BBX 8 16 0 -2
BITMAP 
00
00
00
00
08
08
08
08
08
08
08
08
08
08
00
00
ENDCHAR
STARTCHAR U+01028B
ENCODING 66187
SWIDTH 500 0
DWIDTH 8 0
BBX 8 16 0 -2
BITMAP 
00
00
00
00
20
22
24
28
30
30
28
24
22
20
00
00
ENDCHAR
STARTCHAR U+01028C
ENCODING 66188
SWIDTH 500 0
DWIDTH 8 0
BBX 8 16 0 -2
BITMAP 
00
00
00
00
08
49
2A
1C
08
1C
2A
49
08
08
00
00
ENDCHAR
STARTCHAR U+01028D
ENCODING 66189
SWIDTH 500 0
DWIDTH 8 0
BBX 8 16 0 -2
BITMAP 
00
00
00
00
08
08
14
14
22
22
22
41
41
41
00
00
ENDCHAR
STARTCHAR U+01028E
ENCODING 66190
SWIDTH 1000 0
DWIDTH 16 0
BBX 16 16 0 -2
BITMAP 
0000
0000
0000
0000
0440
0440
0AA0
0AA0
1110
1110
0000
0000
0000
0000
0000
0000
ENDCHAR
STARTCHAR U+01028F
ENCODING 66191
SWIDTH 1000 0
DWIDTH 16 0
BBX 16 16 0 -2
BITMAP 
0000
0000
0000
0000
0204
0608
0910
1120
20C0
4080
0000
0000
0000
0000
0000
0000
ENDCHAR
STARTCHAR U+010290
ENCODING 66192
SWIDTH 500 0
DWIDTH 8 0
BBX 8 16 0 -2
BITMAP 
00
00
00
00
00
41
22
14
08
14
22
41
00
00
00
00
ENDCHAR
STARTCHAR U+010291
ENCODING 66193
SWIDTH 500 0
DWIDTH 8 0
BBX 8 16 0 -2
BITMAP 
00
00
00
00
3E
08
08
08
3E
08
08
08
08
3E
00
00
ENDCHAR
STARTCHAR U+010292
ENCODING 66194
SWIDTH 500 0
DWIDTH 8 0
BBX 8 16 0 -2
BITMAP 
00
00
00
00
3C
42
42
42
42
42
42
42
42
3C
00
00
ENDCHAR
STARTCHAR U+010293
ENCODING 66195
SWIDTH 500 0
DWIDTH 8 0
BBX 8 16 0 -2
BITMAP 
00
00
00
00
38
24
22
22
22
20
20
20
20
20
00
00
ENDCHAR
STARTCHAR U+010294
ENCODING 66196
SWIDTH 500 0
DWIDTH 8 0
BBX 8 16 0 -2
BITMAP 
00
00
00
00
08
08
14
14
22
22
14
14
08
08
00
00
ENDCHAR
STARTCHAR U+010295
ENCODING 66197
SWIDTH 500 0
DWIDTH 8 0
BBX 8 16 0 -2
BITMAP 
00
00
00
00
7C
42
42
42
7C
40
40
40
40
40
00
00
ENDCHAR
STARTCHAR U+010296
ENCODING 66198
SWIDTH 500 0
DWIDTH 8 0
BBX 8 16 0 -2
BITMAP 
00
00
00
00
3C
42
42
40
30
0C
02
42
42
3C
00
00
ENDCHAR
STARTCHAR U+010297
ENCODING 66199
SWIDTH 500 0
DWIDTH 8 0
BBX 8 16 0 -2
BITMAP 
00
00
00
00
7F
08
08
08
08
08
08
08
08
08
00
00
ENDCHAR
STARTCHAR U+010298
ENCODING 66200
SWIDTH 1000 0
DWIDTH 16 0
BBX 16 16 0 -2
BITMAP 
0000
0000
0000
0000
1110
0AA0
0440
0100
0100
0100
0100
0100
0100
0100
0000
0000
ENDCHAR
STARTCHAR U+010299
ENCODING 66201
SWIDTH 500 0
DWIDTH 8 0
BBX 8 16 0 -2
BITMAP 
00
00
00
00
95
95
8A
4A
44
44
28
28
10
10
00
00
ENDCHAR
STARTCHAR U+01029A
ENCODING 66202
SWIDTH 1000 0
DWIDTH 16 0
BBX 16 16 0 -2
BITMAP 
0000
0000
0000
0000
0280
1110
0AA0
0440
0100
0100
0100
0100
0100
0100
0000
0000
ENDCHAR
STARTCHAR U+01029B
ENCODING 66203
SWIDTH 500 0
DWIDTH 8 0
BBX 8 16 0 -2
BITMAP 
00
00
00
00
08
08
08
08
3E
08
08
08
08
08
00
00
ENDCHAR
STARTCHAR U+01029C
ENCODING 66204
SWIDTH 500 0
DWIDTH 8 0
BBX 8 16 0 -2
BITMAP 
00
00
00
00
49
49
49
2A
2A
2A
1C
1C
08
08
00
00
ENDCHAR
STARTCHAR U+0102A0
ENCODING 66208
SWIDTH 500 0
DWIDTH 8 0
BBX 8 16 0 -2
BITMAP 
00
00
00
00
08
08
14
14
22
22
3E
41
41
41
00
00
ENDCHAR
STARTCHAR U+0102A1
ENCODING 66209
SWIDTH 500 0
DWIDTH 8 0
BBX 8 16 0 -2
BITMAP 
00
00
00
00
30
28
24
24
38
28
24
24
28
30
00
00
ENDCHAR
STARTCHAR U+0102A2
ENCODING 66210
SWIDTH 500 0
DWIDTH 8 0
BBX 8 16 0 -2
BITMAP 
00
00
00
06
08
10
10
20
20
20
10
10
08
06
00
00
ENDCHAR
STARTCHAR U+0102A3
ENCODING 66211
SWIDTH 500 0
DWIDTH 8 0
BBX 8 16 0 -2
BITMAP 
00
00
00
00
08
08
14
14
22
22
22
41
41
7F
00
00
ENDCHAR
STARTCHAR U+0102A4
ENCODING 66212
SWIDTH 500 0
DWIDTH 8 0
BBX 8 16 0 -2
BITMAP 
00
00
40
70
4C
40
40
40
70
48
40
40
70
4C
00
00
ENDCHAR
STARTCHAR U+0102A5
ENCODING 66213
SWIDTH 500 0
DWIDTH 8 0
BBX 8 16 0 -2
BITMAP 
00
00
40
70
4C
40
40
40
70
48
40
40
40
40
00
00
ENDCHAR
STARTCHAR U+0102A6
ENCODING 66214
SWIDTH 500 0
DWIDTH 8 0
BBX 8 16 0 -2
BITMAP 
00
00
00
00
3E
08
08
08
08
08
08
08
08
3E
00
00
ENDCHAR
STARTCHAR U+0102A7
ENCODING 66215
SWIDTH 500 0
DWIDTH 8 0
BBX 8 16 0 -2
BITMAP 
00
00
00
00
7F
41
41
41
7F
41
41
41
41
7F
00
00
ENDCHAR
STARTCHAR U+0102A8
ENCODING 66216
SWIDTH 500 0
DWIDTH 8 0
BBX 8 16 0 -2
BITMAP 
00
00
00
00
1C
2A
49
49
7F
49
49
49
2A
1C
00
00
ENDCHAR
STARTCHAR U+0102A9
ENCODING 66217
SWIDTH 500 0
DWIDTH 8 0
BBX 8 16 0 -2
BITMAP 
00
00
40
70
4C
40
40
40
40
40
40
40
40
40
00
00
ENDCHAR
STARTCHAR U+0102AA
ENCODING 66218
SWIDTH 500 0
DWIDTH 8 0
BBX 8 16 0 -2
BITMAP 
00
00
00
00
42
62
52
4A
46
42
40
40
40
40
00
00
ENDCHAR
STARTCHAR U+0102AB
ENCODING 66219
SWIDTH 500 0
DWIDTH 8 0
BBX 8 16 0 -2
BITMAP 
00
00
00
00
1C
22
41
41
41
41
41
41
22
1C
00
00
ENDCHAR
STARTCHAR U+0102AC
ENCODING 66220
SWIDTH 500 0
DWIDTH 8 0
BBX 8 16 0 -2
BITMAP 
00
00
00
00
1C
22
41
41
41
40
40
40
40
40
00
00
ENDCHAR
STARTCHAR U+0102AD
ENCODING 66221
SWIDTH 500 0
DWIDTH 8 0
BBX 8 16 0 -2
BITMAP 
00
00
00
00
1C
22
41
41
41
22
1C
08
08
08
00
00
ENDCHAR
STARTCHAR U+0102AE
ENCODING 66222
SWIDTH 500 0
DWIDTH 8 0
BBX 8 16 0 -2
BITMAP 
00
00
00
00
02
02
0E
12
22
22
12
0E
02
02
00
00
ENDCHAR
STARTCHAR U+0102AF
ENCODING 66223
SWIDTH 500 0
DWIDTH 8 0
BBX 8 16 0 -2
BITMAP 
00
00
00
00
30
2C
22
22
22
2C
30
28
24
20
00
00
ENDCHAR
STARTCHAR U+0102B0
ENCODING 66224
SWIDTH 1000 0
DWIDTH 16 0
BBX 16 16 0 -2
BITMAP 
0000
0000
0000
0000
0410
0A28
0A28
0A28
1144
1144
1144
2082
2082
2082
0000
0000
ENDCHAR
STARTCHAR U+0102B1
ENCODING 66225
SWIDTH 500 0
DWIDTH 8 0
BBX 8 16 0 -2
BITMAP 
00
00
00
00
7F
08
08
08
08
08
08
08
08
08
00
00
ENDCHAR
STARTCHAR U+0102B2
ENCODING 66226
SWIDTH 500 0
DWIDTH 8 0
BBX 8 16 0 -2
BITMAP 
00
00
00
00
41
22
22
14
14
08
08
08
08
08
00
00
ENDCHAR
STARTCHAR U+0102B3
ENCODING 66227
SWIDTH 500 0
DWIDTH 8 0
BBX 8 16 0 -2
BITMAP 
00
00
00
08
08
1C
2A
49
49
49
2A
1C
08
08
00
00
ENDCHAR
STARTCHAR U+0102B4
ENCODING 66228
SWIDTH 500 0
DWIDTH 8 0
BBX 8 16 0 -2
BITMAP 
00
00
00
00
00
41
22
14
08
14
22
41
00
00
00
00
ENDCHAR
STARTCHAR U+0102B5
ENCODING 66229
SWIDTH 500 0
DWIDTH 8 0
BBX 8 16 0 -2
BITMAP 
00
00
00
00
49
2A
2A
1C
1C
08
08
08
08
08
00
00
ENDCHAR
STARTCHAR U+0102B6
ENCODING 66230
SWIDTH 500 0
DWIDTH 8 0
BBX 8 16 0 -2
BITMAP 
00
00
00
00
3E
41
41
41
41
41
22
14
14
77
00
00
ENDCHAR
STARTCHAR U+0102B7
ENCODING 66231
SWIDTH 1000 0
DWIDTH 16 0
BBX 16 16 0 -2
BITMAP 
0000
0000
0000
0000
0410
0A28
0A28
0A28
1144
1144
1144
2082
2082
3FFE
0000
0000
ENDCHAR
STARTCHAR U+0102B8
ENCODING 66232
SWIDTH 500 0
DWIDTH 8 0
BBX 8 16 0 -2
BITMAP 
00
00
00
00
1C
2A
49
49
49
49
49
49
2A
1C
00
00
ENDCHAR
STARTCHAR U+0102B9
ENCODING 66233
SWIDTH 500 0
DWIDTH 8 0
BBX 8 16 0 -2
BITMAP 
00
00
00
00
0E
12
22
22
3E
22
22
22
12
0E
00
00
ENDCHAR
STARTCHAR U+0102BA
ENCODING 66234
SWIDTH 500 0
DWIDTH 8 0
BBX 8 16 0 -2
BITMAP 
00
00
00
00
7F
41
41
41
41
41
7F
00
00
00
00
00
ENDCHAR
STARTCHAR U+0102BB
ENCODING 66235
SWIDTH 500 0
DWIDTH 8 0
BBX 8 16 0 -2
BITMAP 
00
00
00
00
7F
41
41
41
41
41
7F
08
08
08
00
00
ENDCHAR
STARTCHAR U+0102BC
ENCODING 66236
SWIDTH 500 0
DWIDTH 8 0
BBX 8 16 0 -2
BITMAP 
00
00
00
00
7F
41
41
22
22
22
14
14
08
08
00
00
ENDCHAR
STARTCHAR U+0102BD
ENCODING 66237
SWIDTH 500 0
DWIDTH 8 0
BBX 8 16 0 -2
BITMAP 
00
00
00
00
7F
22
22
14
14
08
08
08
08
08
00
00
ENDCHAR
STARTCHAR U+0102BE
ENCODING 66238
SWIDTH 500 0
DWIDTH 8 0
BBX 8 16 0 -2
BITMAP 
00
00
00
00
08
14
22
41
00
00
08
14
22
41
00
00
ENDCHAR
STARTCHAR U+0102BF
ENCODING 66239
SWIDTH 500 0
DWIDTH 8 0
BBX 8 16 0 -2
BITMAP 
00
00
00
00
7F
49
49
49
49
49
49
49
49
49
00
00
ENDCHAR
STARTCHAR U+0102C0
ENCODING 66240
SWIDTH 500 0
DWIDTH 8 0
BBX 8 16 0 -2
BITMAP 
00
00
00
7F
22
22
14
14
08
14
14
22
22
7F
00
00
ENDCHAR
STARTCHAR U+0102C1
ENCODING 66241
SWIDTH 500 0
DWIDTH 8 0
BBX 8 16 0 -2
BITMAP 
00
00
00
7F
22
22
14
14
08
14
14
22
22
41
00
00
ENDCHAR
STARTCHAR U+0102C2
ENCODING 66242
SWIDTH 500 0
DWIDTH 8 0
BBX 8 16 0 -2
BITMAP 
00
00
00
81
42
42
24
24
24
24
24
24
42
42
81
00
ENDCHAR
STARTCHAR U+0102C3
ENCODING 66243
SWIDTH 500 0
DWIDTH 8 0
BBX 8 16 0 -2
BITMAP 
00
00
00
00
18
20
40
4C
42
21
19
01
02
0C
00
00
ENDCHAR
STARTCHAR U+0102C4
ENCODING 66244
SWIDTH 500 0
DWIDTH 8 0
BBX 8 16 0 -2
BITMAP 
00
00
00
00
22
22
55
55
08
14
14
22
22
41
00
00
ENDCHAR
STARTCHAR U+0102C5
ENCODING 66245
SWIDTH 500 0
DWIDTH 8 0
BBX 8 16 0 -2
BITMAP 
00
00
00
00
49
49
49
49
7F
49
49
49
49
49
00
00
ENDCHAR
STARTCHAR U+0102C6
ENCODING 66246
SWIDTH 500 0
DWIDTH 8 0
BBX 8 16 0 -2
BITMAP 
00
00
00
00
20
10
08
7C
10
20
20
21
11
0E
00
00
ENDCHAR
STARTCHAR U+0102C7
ENCODING 66247
SWIDTH 500 0
DWIDTH 8 0
BBX 8 16 0 -2
BITMAP 
00
00
00
00
08
1C
2A
49
08
08
08
08
08
08
00
00
ENDCHAR
STARTCHAR U+0102C8
ENCODING 66248
SWIDTH 500 0
DWIDTH 8 0
BBX 8 16 0 -2
BITMAP 
00
00
00
00
41
41
41
41
49
49
08
08
08
08
00
00
ENDCHAR
STARTCHAR U+0102C9
ENCODING 66249
SWIDTH 500 0
DWIDTH 8 0
BBX 8 16 0 -2
BITMAP 
00
00
00
00
1C
20
40
40
5C
42
42
42
22
1C
00
00
ENDCHAR
STARTCHAR U+0102CA
ENCODING 66250
SWIDTH 500 0
DWIDTH 8 0
BBX 8 16 0 -2
BITMAP 
00
00
00
00
42
21
21
11
11
12
12
24
28
70
00
00
ENDCHAR
STARTCHAR U+0102CB
ENCODING 66251
SWIDTH 500 0
DWIDTH 8 0
BBX 8 16 0 -2
BITMAP 
00
00
00
00
70
28
24
12
12
11
11
21
21
42
00
00
ENDCHAR
STARTCHAR U+0102CC
ENCODING 66252
SWIDTH 500 0
DWIDTH 8 0
BBX 8 16 0 -2
BITMAP 
00
00
00
00
22
42
44
44
24
1F
04
04
02
02
00
00
ENDCHAR
STARTCHAR U+0102CD
ENCODING 66253
SWIDTH 500 0
DWIDTH 8 0
BBX 8 16 0 -2
BITMAP 
00
00
00
00
22
22
22
22
24
38
20
20
20
20
00
00
ENDCHAR
STARTCHAR U+0102CE
ENCODING 66254
SWIDTH 500 0
DWIDTH 8 0
BBX 8 16 0 -2
BITMAP 
00
00
00
00
08
08
14
14
22
22
22
41
5D
41
00
00
ENDCHAR
STARTCHAR U+0102CF
ENCODING 66255
SWIDTH 500 0
DWIDTH 8 0
BBX 8 16 0 -2
BITMAP 
00
00
00
00
42
42
42
42
7E
42
42
42
42
42
00
00
ENDCHAR
STARTCHAR U+0102D0
ENCODING 66256
SWIDTH 500 0
DWIDTH 8 0
BBX 8 16 0 -2
BITMAP 
00
00
00
00
49
49
49
49
7F
08
08
08
08
08
00
00
ENDCHAR
STARTCHAR U+0102E0
ENCODING 66272
SWIDTH 500 0
DWIDTH 8 0
BBX 8 16 0 -2
BITMAP 
00
00
00
00
00
00
00
00
00
00
00
00
00
01
02
04
ENDCHAR
STARTCHAR U+0102E1
ENCODING 66273
SWIDTH 500 0
DWIDTH 8 0
BBX 8 16 0 -2
BITMAP 
00
00
00
00
00
00
00
00
00
10
08
04
04
78
00
00
ENDCHAR
STARTCHAR U+0102E2
ENCODING 66274
SWIDTH 500 0
DWIDTH 8 0
BBX 8 16 0 -2
BITMAP 
00
00
00
00
00
00
00
00
00
00
92
92
92
6C
00
00
ENDCHAR
STARTCHAR U+0102E3
ENCODING 66275
SWIDTH 500 0
DWIDTH 8 0
BBX 8 16 0 -2
BITMAP 
00
00
00
00
00
00
00
00
00
00
11
AE
A0
60
20
00
ENDCHAR
STARTCHAR U+0102E4
ENCODING 66276
SWIDTH 500 0
DWIDTH 8 0
BBX 8 16 0 -2
BITMAP 
00
00
00
00
00
00
00
00
00
18
24
04
08
10
20
40
ENDCHAR
STARTCHAR U+0102E5
ENCODING 66277
SWIDTH 500 0
DWIDTH 8 0
BBX 8 16 0 -2
BITMAP 
00
00
00
00
00
00
00
38
40
40
38
40
40
38
00
00
ENDCHAR
STARTCHAR U+0102E6
ENCODING 66278
SWIDTH 500 0
DWIDTH 8 0
BBX 8 16 0 -2
BITMAP 
00
00
00
00
00
00
06
38
40
40
38
40
40
38
00
00
ENDCHAR
STARTCHAR U+0102E7
ENCODING 66279
SWIDTH 500 0
DWIDTH 8 0
BBX 8 16 0 -2
BITMAP 
00
00
00
00
00
00
00
38
04
04
38
04
04
38
00
00
ENDCHAR
STARTCHAR U+0102E8
ENCODING 66280
SWIDTH 500 0
DWIDTH 8 0
BBX 8 16 0 -2
BITMAP 
00
00
00
00
20
20
20
20
20
20
2C
32
22
7C
00
00
ENDCHAR
STARTCHAR U+0102E9
ENCODING 66281
SWIDTH 500 0
DWIDTH 8 0
BBX 8 16 0 -2
BITMAP 
00
00
00
00
00
18
24
24
42
7F
42
24
24
18
00
00
ENDCHAR
STARTCHAR U+0102EA
ENCODING 66282
SWIDTH 500 0
DWIDTH 8 0
BBX 8 16 0 -2
BITMAP 
00
00
00
00
00
00
00
00
20
20
20
20
20
18
00
00
ENDCHAR
STARTCHAR U+0102EB
ENCODING 66283
SWIDTH 500 0
DWIDTH 8 0
BBX 8 16 0 -2
BITMAP 
00
00
00
00
00
40
40
40
40
40
49
49
49
36
00
00
ENDCHAR
STARTCHAR U+0102EC
ENCODING 66284
SWIDTH 500 0
DWIDTH 8 0
BBX 8 16 0 -2
BITMAP 
00
00
00
00
00
00
04
04
04
04
04
07
04
44
44
38
ENDCHAR
STARTCHAR U+0102ED
ENCODING 66285
SWIDTH 500 0
DWIDTH 8 0
BBX 8 16 0 -2
BITMAP 
00
00
00
00
00
00
00
00
92
92
6C
20
40
FE
00
00
ENDCHAR
STARTCHAR U+0102EE
ENCODING 66286
SWIDTH 500 0
DWIDTH 8 0
BBX 8 16 0 -2
BITMAP 
00
00
00
00
00
00
00
04
22
12
12
12
24
78
00
00
ENDCHAR
STARTCHAR U+0102EF
ENCODING 66287
SWIDTH 500 0
DWIDTH 8 0
BBX 8 16 0 -2
BITMAP 
00
00
00
00
00
00
00
00
30
0C
12
22
24
38
00
00
ENDCHAR
STARTCHAR U+0102F0
ENCODING 66288
SWIDTH 500 0
DWIDTH 8 0
BBX 8 16 0 -2
BITMAP 
00
00
00
00
00
00
00
00
10
08
14
22
14
08
00
00
ENDCHAR
STARTCHAR U+0102F1
ENCODING 66289
SWIDTH 500 0
DWIDTH 8 0
BBX 8 16 0 -2
BITMAP 
00
00
00
00
00
00
02
04
08
34
42
92
92
6C
00
00
ENDCHAR
STARTCHAR U+0102F2
ENCODING 66290
SWIDTH 500 0
DWIDTH 8 0
BBX 8 16 0 -2
BITMAP 
00
00
00
00
00
00
00
00
00
06
09
0E
08
30
C0
00
ENDCHAR
STARTCHAR U+0102F3
ENCODING 66291
SWIDTH 500 0
DWIDTH 8 0
BBX 8 16 0 -2
BITMAP 
00
00
00
00
00
00
00
00
20
10
08
30
40
7C
00
00
ENDCHAR
STARTCHAR U+0102F4
ENCODING 66292
SWIDTH 500 0
DWIDTH 8 0
BBX 8 16 0 -2
BITMAP 
00
00
00
00
00
00
00
00
02
0C
30
40
48
30
00
00
ENDCHAR
STARTCHAR U+0102F5
ENCODING 66293
SWIDTH 500 0
DWIDTH 8 0
BBX 8 16 0 -2
BITMAP 
00
00
00
00
00
00
00
00
00
78
08
30
40
7C
00
00
ENDCHAR
STARTCHAR U+0102F6
ENCODING 66294
SWIDTH 500 0
DWIDTH 8 0
BBX 8 16 0 -2
BITMAP 
00
00
00
00
00
00
00
00
00
18
20
44
40
38
00
00
ENDCHAR
STARTCHAR U+0102F7
ENCODING 66295
SWIDTH 500 0
DWIDTH 8 0
BBX 8 16 0 -2
BITMAP 
00
00
00
00
00
00
00
3C
4A
3C
04
18
20
3E
00
00
ENDCHAR
STARTCHAR U+0102F8
ENCODING 66296
SWIDTH 500 0
DWIDTH 8 0
BBX 8 16 0 -2
BITMAP 
00
00
00
00
00
00
04
06
0C
14
0C
06
04
44
44
38
ENDCHAR
STARTCHAR U+0102F9
ENCODING 66297
SWIDTH 500 0
DWIDTH 8 0
BBX 8 16 0 -2
BITMAP 
00
00
00
00
00
00
00
00
00
20
10
3C
08
30
40
7C
ENDCHAR
STARTCHAR U+0102FA
ENCODING 66298
SWIDTH 500 0
DWIDTH 8 0
BBX 8 16 0 -2
BITMAP 
00
00
00
00
00
00
10
00
44
00
92
92
92
6C
00
00
ENDCHAR
STARTCHAR U+0102FB
ENCODING 66299
SWIDTH 500 0
DWIDTH 8 0
BBX 8 16 0 -2
BITMAP 
00
00
00
00
00
00
00
22
1C
0C
08
30
40
7C
00
00
ENDCHAR
STARTCHAR U+010300
ENCODING 66304
SWIDTH 500 0
DWIDTH 8 0
BBX 8 16 0 -2
BITMAP 
00
00
00
00
60
50
48
48
44
44
7E
42
42
42
00
00
ENDCHAR
STARTCHAR U+010301
ENCODING 66305
SWIDTH 500 0
DWIDTH 8 0
BBX 8 16 0 -2
BITMAP 
00
00
00
00
30
28
24
24
38
28
24
24
28
30
00
00
ENDCHAR
STARTCHAR U+010302
ENCODING 66306
SWIDTH 500 0
DWIDTH 8 0
BBX 8 16 0 -2
BITMAP 
00
00
00
06
08
10
10
20
20
20
10
10
08
06
00
00
ENDCHAR
STARTCHAR U+010303
ENCODING 66307
SWIDTH 500 0
DWIDTH 8 0
BBX 8 16 0 -2
BITMAP 
00
00
00
00
70
48
44
42
42
42
44
44
48
48
00
00
ENDCHAR
STARTCHAR U+010304
ENCODING 66308
SWIDTH 500 0
DWIDTH 8 0
BBX 8 16 0 -2
BITMAP 
00
00
40
70
4C
40
40
40
70
48
40
40
70
4C
00
00
ENDCHAR
STARTCHAR U+010305
ENCODING 66309
SWIDTH 500 0
DWIDTH 8 0
BBX 8 16 0 -2
BITMAP 
00
00
40
70
4C
40
40
40
70
48
40
40
40
40
00
00
ENDCHAR
STARTCHAR U+010306
ENCODING 66310
SWIDTH 500 0
DWIDTH 8 0
BBX 8 16 0 -2
BITMAP 
00
00
00
00
38
0E
08
08
08
08
08
08
38
06
00
00
ENDCHAR
STARTCHAR U+010307
ENCODING 66311
SWIDTH 500 0
DWIDTH 8 0
BBX 8 16 0 -2
BITMAP 
00
00
00
00
7F
41
41
41
7F
41
41
41
41
7F
00
00
ENDCHAR
STARTCHAR U+010308
ENCODING 66312
SWIDTH 500 0
DWIDTH 8 0
BBX 8 16 0 -2
BITMAP 
00
00
00
00
1C
22
63
55
49
49
55
63
22
1C
00
00
ENDCHAR
STARTCHAR U+010309
ENCODING 66313
SWIDTH 500 0
DWIDTH 8 0
BBX 8 16 0 -2
BITMAP 
00
00
00
00
08
08
08
08
08
08
08
08
08
08
00
00
ENDCHAR
STARTCHAR U+01030A
ENCODING 66314
SWIDTH 500 0
DWIDTH 8 0
BBX 8 16 0 -2
BITMAP 
00
00
00
00
40
44
48
50
60
60
50
48
44
40
00
00
ENDCHAR
STARTCHAR U+01030B
ENCODING 66315
SWIDTH 500 0
DWIDTH 8 0
BBX 8 16 0 -2
BITMAP 
00
00
00
00
20
20
20
20
20
20
20
26
38
20
00
00
ENDCHAR
STARTCHAR U+01030C
ENCODING 66316
SWIDTH 500 0
DWIDTH 8 0
BBX 8 16 0 -2
BITMAP 
00
00
00
00
40
6A
6A
54
54
40
40
40
40
40
00
00
ENDCHAR
STARTCHAR U+01030D
ENCODING 66317
SWIDTH 500 0
DWIDTH 8 0
BBX 8 16 0 -2
BITMAP 
00
00
00
00
41
62
54
48
40
40
40
40
40
40
00
00
ENDCHAR
STARTCHAR U+01030E
ENCODING 66318
SWIDTH 500 0
DWIDTH 8 0
BBX 8 16 0 -2
BITMAP 
00
00
00
00
7F
49
49
49
7F
49
49
49
49
7F
00
00
ENDCHAR
STARTCHAR U+01030F
ENCODING 66319
SWIDTH 500 0
DWIDTH 8 0
BBX 8 16 0 -2
BITMAP 
00
00
00
00
1C
22
41
41
41
41
41
41
22
1C
00
00
ENDCHAR
STARTCHAR U+010310
ENCODING 66320
SWIDTH 500 0
DWIDTH 8 0
BBX 8 16 0 -2
BITMAP 
00
00
00
00
38
24
22
22
22
20
20
20
20
20
00
00
ENDCHAR
STARTCHAR U+010311
ENCODING 66321
SWIDTH 500 0
DWIDTH 8 0
BBX 8 16 0 -2
BITMAP 
00
00
00
00
41
63
55
49
41
41
41
41
41
41
00
00
ENDCHAR
STARTCHAR U+010312
ENCODING 66322
SWIDTH 500 0
DWIDTH 8 0
BBX 8 16 0 -2
BITMAP 
00
00
00
00
1C
22
41
41
41
22
1C
08
08
08
00
00
ENDCHAR
STARTCHAR U+010313
ENCODING 66323
SWIDTH 500 0
DWIDTH 8 0
BBX 8 16 0 -2
BITMAP 
00
00
00
00
30
2C
22
22
22
2C
30
20
20
20
00
00
ENDCHAR
STARTCHAR U+010314
ENCODING 66324
SWIDTH 500 0
DWIDTH 8 0
BBX 8 16 0 -2
BITMAP 
00
00
00
00
04
08
10
20
10
08
04
08
10
20
00
00
ENDCHAR
STARTCHAR U+010315
ENCODING 66325
SWIDTH 500 0
DWIDTH 8 0
BBX 8 16 0 -2
BITMAP 
00
00
00
00
7F
08
08
08
08
08
08
08
08
08
00
00
ENDCHAR
STARTCHAR U+010316
ENCODING 66326
SWIDTH 500 0
DWIDTH 8 0
BBX 8 16 0 -2
BITMAP 
00
00
00
00
41
22
14
08
08
08
08
08
08
08
00
00
ENDCHAR
STARTCHAR U+010317
ENCODING 66327
SWIDTH 500 0
DWIDTH 8 0
BBX 8 16 0 -2
BITMAP 
00
00
00
00
00
41
22
14
08
14
22
41
00
00
00
00
ENDCHAR
STARTCHAR U+010318
ENCODING 66328
SWIDTH 500 0
DWIDTH 8 0
BBX 8 16 0 -2
BITMAP 
00
00
00
00
1C
2A
49
49
49
2A
1C
08
08
08
00
00
ENDCHAR
STARTCHAR U+010319
ENCODING 66329
SWIDTH 500 0
DWIDTH 8 0
BBX 8 16 0 -2
BITMAP 
00
00
00
00
49
2A
1C
08
08
08
08
08
08
08
00
00
ENDCHAR
STARTCHAR U+01031A
ENCODING 66330
SWIDTH 500 0
DWIDTH 8 0
BBX 8 16 0 -2
BITMAP 
00
00
00
00
00
1C
22
22
22
1C
22
22
22
1C
00
00
ENDCHAR
STARTCHAR U+01031B
ENCODING 66331
SWIDTH 500 0
DWIDTH 8 0
BBX 8 16 0 -2
BITMAP 
00
00
00
00
30
2C
22
22
2C
30
20
20
20
20
00
00
ENDCHAR
STARTCHAR U+01031C
ENCODING 66332
SWIDTH 500 0
DWIDTH 8 0
BBX 8 16 0 -2
BITMAP 
00
00
00
00
20
20
20
20
30
2C
22
22
2C
30
00
00
ENDCHAR
STARTCHAR U+01031D
ENCODING 66333
SWIDTH 500 0
DWIDTH 8 0
BBX 8 16 0 -2
BITMAP 
00
00
00
00
04
04
04
04
3C
04
04
04
04
04
00
00
ENDCHAR
STARTCHAR U+01031E
ENCODING 66334
SWIDTH 500 0
DWIDTH 8 0
BBX 8 16 0 -2
BITMAP 
00
00
00
00
41
49
49
22
22
22
14
14
08
08
00
00
ENDCHAR
STARTCHAR U+01031F
ENCODING 66335
SWIDTH 500 0
DWIDTH 8 0
BBX 8 16 0 -2
BITMAP 
00
00
00
00
08
08
49
2A
1C
08
1C
2A
49
08
00
00
ENDCHAR
STARTCHAR U+010320
ENCODING 66336
SWIDTH 500 0
DWIDTH 8 0
BBX 8 16 0 -2
BITMAP 
00
00
00
00
08
08
08
08
08
08
08
08
08
08
00
00
ENDCHAR
STARTCHAR U+010321
ENCODING 66337
SWIDTH 500 0
DWIDTH 8 0
BBX 8 16 0 -2
BITMAP 
00
00
00
00
08
08
14
14
22
22
22
41
41
41
00
00
ENDCHAR
STARTCHAR U+010322
ENCODING 66338
SWIDTH 500 0
DWIDTH 8 0
BBX 8 16 0 -2
BITMAP 
00
00
00
00
00
41
22
14
08
14
22
41
00
00
00
00
ENDCHAR
STARTCHAR U+010323
ENCODING 66339
SWIDTH 500 0
DWIDTH 8 0
BBX 8 16 0 -2
BITMAP 
00
00
00
00
08
1C
2A
49
08
08
08
08
08
08
00
00
ENDCHAR
STARTCHAR U+01032D
ENCODING 66349
SWIDTH 500 0
DWIDTH 8 0
BBX 8 16 0 -2
BITMAP 
00
00
00
00
00
04
08
10
20
40
20
10
08
04
00
00
ENDCHAR
STARTCHAR U+01032E
ENCODING 66350
SWIDTH 500 0
DWIDTH 8 0
BBX 8 16 0 -2
BITMAP 
00
00
00
00
08
1C
2A
49
08
08
08
08
08
08
00
00
ENDCHAR
STARTCHAR U+01032F
ENCODING 66351
SWIDTH 500 0
DWIDTH 8 0
BBX 8 16 0 -2
BITMAP 
00
00
00
00
40
78
46
78
46
78
46
78
46
78
00
00
ENDCHAR
STARTCHAR U+010330
ENCODING 66352
SWIDTH 500 0
DWIDTH 8 0
BBX 8 16 0 -2
BITMAP 
00
00
00
00
00
00
60
10
28
28
24
24
22
22
20
00
ENDCHAR
STARTCHAR U+010331
ENCODING 66353
SWIDTH 500 0
DWIDTH 8 0
BBX 8 16 0 -2
BITMAP 
00
00
00
00
00
00
48
48
50
7C
42
42
42
7C
00
00
ENDCHAR
STARTCHAR U+010332
ENCODING 66354
SWIDTH 500 0
DWIDTH 8 0
BBX 8 16 0 -2
BITMAP 
00
00
00
00
00
00
7E
42
40
40
40
40
40
40
00
00
ENDCHAR
STARTCHAR U+010333
ENCODING 66355
SWIDTH 500 0
DWIDTH 8 0
BBX 8 16 0 -2
BITMAP 
00
00
00
00
00
00
60
10
08
08
04
44
46
3A
00
00
ENDCHAR
STARTCHAR U+010334
ENCODING 66356
SWIDTH 500 0
DWIDTH 8 0
BBX 8 16 0 -2
BITMAP 
00
00
00
00
00
00
1C
22
40
7E
42
40
22
1C
00
00
ENDCHAR
STARTCHAR U+010335
ENCODING 66357
SWIDTH 500 0
DWIDTH 8 0
BBX 8 16 0 -2
BITMAP 
00
00
00
00
00
00
44
44
44
44
44
44
44
3E
00
00
ENDCHAR
STARTCHAR U+010336
ENCODING 66358
SWIDTH 500 0
DWIDTH 8 0
BBX 8 16 0 -2
BITMAP 
00
00
00
00
00
00
7E
02
04
08
10
20
40
7E
00
00
ENDCHAR
STARTCHAR U+010337
ENCODING 66359
SWIDTH 500 0
DWIDTH 8 0
BBX 8 16 0 -2
BITMAP 
00
00
00
00
40
40
40
7C
42
42
42
42
42
42
00
00
ENDCHAR
STARTCHAR U+010338
ENCODING 66360
SWIDTH 500 0
DWIDTH 8 0
BBX 8 16 0 -2
BITMAP 
00
00
00
00
08
08
2A
49
49
49
2A
1C
08
08
08
00
ENDCHAR
STARTCHAR U+010339
ENCODING 66361
SWIDTH 500 0
DWIDTH 8 0
BBX 8 16 0 -2
BITMAP 
00
00
00
00
00
00
08
08
08
08
08
08
08
08
00
00
ENDCHAR
STARTCHAR U+01033A
ENCODING 66362
SWIDTH 500 0
DWIDTH 8 0
BBX 8 16 0 -2
BITMAP 
00
00
00
00
00
00
42
44
48
70
48
44
44
42
00
00
ENDCHAR
STARTCHAR U+01033B
ENCODING 66363
SWIDTH 500 0
DWIDTH 8 0
BBX 8 16 0 -2
BITMAP 
00
00
00
00
00
00
40
20
20
50
48
48
44
42
00
00
ENDCHAR
STARTCHAR U+01033C
ENCODING 66364
SWIDTH 500 0
DWIDTH 8 0
BBX 8 16 0 -2
BITMAP 
00
00
00
00
00
00
42
66
5A
42
42
42
42
42
00
00
ENDCHAR
STARTCHAR U+01033D
ENCODING 66365
SWIDTH 500 0
DWIDTH 8 0
BBX 8 16 0 -2
BITMAP 
00
00
00
00
00
00
42
42
62
52
4A
46
42
42
00
00
ENDCHAR
STARTCHAR U+01033E
ENCODING 66366
SWIDTH 500 0
DWIDTH 8 0
BBX 8 16 0 -2
BITMAP 
00
00
00
00
00
00
3C
42
42
40
40
42
46
3A
02
04
ENDCHAR
STARTCHAR U+01033F
ENCODING 66367
SWIDTH 500 0
DWIDTH 8 0
BBX 8 16 0 -2
BITMAP 
00
00
00
00
00
00
7C
22
22
22
22
22
22
22
00
00
ENDCHAR
STARTCHAR U+010340
ENCODING 66368
SWIDTH 500 0
DWIDTH 8 0
BBX 8 16 0 -2
BITMAP 
00
00
00
00
00
00
7E
42
42
42
42
42
42
42
00
00
ENDCHAR
STARTCHAR U+010341
ENCODING 66369
SWIDTH 500 0
DWIDTH 8 0
BBX 8 16 0 -2
BITMAP 
00
00
00
00
00
00
42
42
42
42
3E
02
02
02
00
00
ENDCHAR
STARTCHAR U+010342
ENCODING 66370
SWIDTH 500 0
DWIDTH 8 0
BBX 8 16 0 -2
BITMAP 
00
00
00
00
00
00
44
44
48
70
50
48
44
42
40
00
ENDCHAR
STARTCHAR U+010343
ENCODING 66371
SWIDTH 500 0
DWIDTH 8 0
BBX 8 16 0 -2
BITMAP 
00
00
00
00
00
00
3C
42
40
30
0C
02
42
3C
00
00
ENDCHAR
STARTCHAR U+010344
ENCODING 66372
SWIDTH 500 0
DWIDTH 8 0
BBX 8 16 0 -2
BITMAP 
00
00
00
00
00
00
7F
49
08
08
08
08
08
08
00
00
ENDCHAR
STARTCHAR U+010345
ENCODING 66373
SWIDTH 500 0
DWIDTH 8 0
BBX 8 16 0 -2
BITMAP 
00
00
00
00
00
00
42
42
22
24
14
14
08
08
08
08
ENDCHAR
STARTCHAR U+010346
ENCODING 66374
SWIDTH 500 0
DWIDTH 8 0
BBX 8 16 0 -2
BITMAP 
00
00
00
00
00
40
7E
42
40
40
7E
42
40
40
40
00
ENDCHAR
STARTCHAR U+010347
ENCODING 66375
SWIDTH 500 0
DWIDTH 8 0
BBX 8 16 0 -2
BITMAP 
00
00
00
00
00
00
42
42
24
18
18
24
42
42
00
00
ENDCHAR
STARTCHAR U+010348
ENCODING 66376
SWIDTH 500 0
DWIDTH 8 0
BBX 8 16 0 -2
BITMAP 
00
00
00
00
00
00
3C
42
42
5A
5A
42
42
3C
00
00
ENDCHAR
STARTCHAR U+010349
ENCODING 66377
SWIDTH 500 0
DWIDTH 8 0
BBX 8 16 0 -2
BITMAP 
00
00
00
00
00
00
3C
42
42
42
24
18
24
42
00
00
ENDCHAR
STARTCHAR U+01034A
ENCODING 66378
SWIDTH 500 0
DWIDTH 8 0
BBX 8 16 0 -2
BITMAP 
00
00
00
00
00
08
1C
2A
49
08
08
08
08
08
08
00
ENDCHAR
STARTCHAR U+010350
ENCODING 66384
SWIDTH 500 0
DWIDTH 8 0
BBX 8 16 0 -2
BITMAP 
00
00
00
00
7E
42
44
04
09
0A
1C
18
30
20
00
00
ENDCHAR
STARTCHAR U+010351
ENCODING 66385
SWIDTH 500 0
DWIDTH 8 0
BBX 8 16 0 -2
BITMAP 
00
00
00
00
08
08
08
08
08
3E
49
49
49
36
00
00
ENDCHAR
STARTCHAR U+010352
ENCODING 66386
SWIDTH 500 0
DWIDTH 8 0
BBX 8 16 0 -2
BITMAP 
00
00
00
00
3F
49
49
28
08
08
08
08
08
08
00
00
ENDCHAR
STARTCHAR U+010353
ENCODING 66387
SWIDTH 500 0
DWIDTH 8 0
BBX 8 16 0 -2
BITMAP 
00
00
00
00
04
04
04
08
10
28
44
42
41
21
00
00
ENDCHAR
STARTCHAR U+010354
ENCODING 66388
SWIDTH 500 0
DWIDTH 8 0
BBX 8 16 0 -2
BITMAP 
00
00
00
00
02
02
02
44
44
48
70
40
40
40
00
00
ENDCHAR
STARTCHAR U+010355
ENCODING 66389
SWIDTH 500 0
DWIDTH 8 0
BBX 8 16 0 -2
BITMAP 
00
00
00
00
FE
92
92
92
92
92
92
92
91
91
00
00
ENDCHAR
STARTCHAR U+010356
ENCODING 66390
SWIDTH 500 0
DWIDTH 8 0
BBX 8 16 0 -2
BITMAP 
00
00
00
00
FE
92
92
92
92
92
92
91
9F
F0
00
00
ENDCHAR
STARTCHAR U+010357
ENCODING 66391
SWIDTH 500 0
DWIDTH 8 0
BBX 8 16 0 -2
BITMAP 
00
00
00
00
06
3A
22
22
22
42
42
42
5A
66
00
00
ENDCHAR
STARTCHAR U+010358
ENCODING 66392
SWIDTH 500 0
DWIDTH 8 0
BBX 8 16 0 -2
BITMAP 
00
00
00
00
00
10
08
08
08
10
10
10
10
08
00
00
ENDCHAR
STARTCHAR U+010359
ENCODING 66393
SWIDTH 500 0
DWIDTH 8 0
BBX 8 16 0 -2
BITMAP 
00
00
00
00
7E
42
42
42
04
04
04
04
04
02
00
00
ENDCHAR
STARTCHAR U+01035A
ENCODING 66394
SWIDTH 500 0
DWIDTH 8 0
BBX 8 16 0 -2
BITMAP 
00
00
00
00
04
0A
08
08
10
10
10
7E
42
42
00
00
ENDCHAR
STARTCHAR U+01035B
ENCODING 66395
SWIDTH 500 0
DWIDTH 8 0
BBX 8 16 0 -2
BITMAP 
00
00
00
00
40
40
22
22
12
14
08
08
04
04
00
00
ENDCHAR
STARTCHAR U+01035C
ENCODING 66396
SWIDTH 500 0
DWIDTH 8 0
BBX 8 16 0 -2
BITMAP 
00
00
00
00
00
00
00
00
8E
8A
52
52
22
21
00
00
ENDCHAR
STARTCHAR U+01035D
ENCODING 66397
SWIDTH 500 0
DWIDTH 8 0
BBX 8 16 0 -2
BITMAP 
00
00
00
00
00
00
00
42
A2
22
14
14
08
08
00
00
ENDCHAR
STARTCHAR U+01035E
ENCODING 66398
SWIDTH 500 0
DWIDTH 8 0
BBX 8 16 0 -2
BITMAP 
00
00
00
00
40
40
4C
72
42
40
40
40
40
40
00
00
ENDCHAR
STARTCHAR U+01035F
ENCODING 66399
SWIDTH 500 0
DWIDTH 8 0
BBX 8 16 0 -2
BITMAP 
00
00
00
00
40
40
40
5E
62
02
04
04
08
08
00
00
ENDCHAR
STARTCHAR U+010360
ENCODING 66400
SWIDTH 500 0
DWIDTH 8 0
BBX 8 16 0 -2
BITMAP 
00
00
00
00
7F
41
41
42
42
22
24
14
14
08
00
00
ENDCHAR
STARTCHAR U+010361
ENCODING 66401
SWIDTH 500 0
DWIDTH 8 0
BBX 8 16 0 -2
BITMAP 
00
00
00
00
60
50
40
40
40
20
20
12
14
08
00
00
ENDCHAR
STARTCHAR U+010362
ENCODING 66402
SWIDTH 500 0
DWIDTH 8 0
BBX 8 16 0 -2
BITMAP 
00
00
00
00
3F
41
49
28
08
08
08
08
49
3E
00
00
ENDCHAR
STARTCHAR U+010363
ENCODING 66403
SWIDTH 500 0
DWIDTH 8 0
BBX 8 16 0 -2
BITMAP 
00
00
00
00
44
4A
4A
52
50
60
40
40
40
40
00
00
ENDCHAR
STARTCHAR U+010364
ENCODING 66404
SWIDTH 500 0
DWIDTH 8 0
BBX 8 16 0 -2
BITMAP 
00
00
00
00
02
01
01
01
01
12
0A
04
18
E0
80
00
ENDCHAR
STARTCHAR U+010365
ENCODING 66405
SWIDTH 500 0
DWIDTH 8 0
BBX 8 16 0 -2
BITMAP 
00
00
00
0C
12
12
2C
28
28
44
44
44
82
82
00
00
ENDCHAR
STARTCHAR U+010366
ENCODING 66406
SWIDTH 500 0
DWIDTH 8 0
BBX 8 16 0 -2
BITMAP 
00
00
00
00
91
91
92
92
92
92
92
92
92
FE
00
00
ENDCHAR
STARTCHAR U+010367
ENCODING 66407
SWIDTH 500 0
DWIDTH 8 0
BBX 8 16 0 -2
BITMAP 
00
00
00
00
F0
90
90
90
10
10
10
10
10
1E
00
00
ENDCHAR
STARTCHAR U+010368
ENCODING 66408
SWIDTH 500 0
DWIDTH 8 0
BBX 8 16 0 -2
BITMAP 
00
00
00
00
BE
A2
92
92
92
92
92
92
92
F1
00
00
ENDCHAR
STARTCHAR U+010369
ENCODING 66409
SWIDTH 500 0
DWIDTH 8 0
BBX 8 16 0 -2
BITMAP 
00
00
00
00
0F
11
12
22
22
22
22
22
22
21
00
00
ENDCHAR
STARTCHAR U+01036A
ENCODING 66410
SWIDTH 500 0
DWIDTH 8 0
BBX 8 16 0 -2
BITMAP 
00
00
00
00
92
92
92
92
92
92
92
AA
AA
44
00
00
ENDCHAR
STARTCHAR U+01036B
ENCODING 66411
SWIDTH 500 0
DWIDTH 8 0
BBX 8 16 0 -2
BITMAP 
00
00
00
4E
50
20
5C
82
82
92
92
AA
AA
44
00
00
ENDCHAR
STARTCHAR U+01036C
ENCODING 66412
SWIDTH 500 0
DWIDTH 8 0
BBX 8 16 0 -2
BITMAP 
00
00
00
00
04
04
08
08
10
FC
20
20
40
C0
00
00
ENDCHAR
STARTCHAR U+01036D
ENCODING 66413
SWIDTH 500 0
DWIDTH 8 0
BBX 8 16 0 -2
BITMAP 
00
00
00
00
10
10
10
10
10
10
10
10
10
10
00
00
ENDCHAR
STARTCHAR U+01036E
ENCODING 66414
SWIDTH 500 0
DWIDTH 8 0
BBX 8 16 0 -2
BITMAP 
00
00
00
00
FC
44
28
28
10
10
28
28
40
7E
00
00
ENDCHAR
STARTCHAR U+01036F
ENCODING 66415
SWIDTH 500 0
DWIDTH 8 0
BBX 8 16 0 -2
BITMAP 
00
00
00
00
F0
90
90
90
10
14
12
12
12
1E
00
00
ENDCHAR
STARTCHAR U+010370
ENCODING 66416
SWIDTH 500 0
DWIDTH 8 0
BBX 8 16 0 -2
BITMAP 
00
00
00
00
40
40
40
40
40
40
40
42
42
7E
00
00
ENDCHAR
STARTCHAR U+010371
ENCODING 66417
SWIDTH 500 0
DWIDTH 8 0
BBX 8 16 0 -2
BITMAP 
00
00
00
00
3F
49
49
48
08
08
0E
09
09
0E
00
00
ENDCHAR
STARTCHAR U+010372
ENCODING 66418
SWIDTH 500 0
DWIDTH 8 0
BBX 8 16 0 -2
BITMAP 
00
00
00
00
22
1C
61
91
91
0A
0A
0A
04
04
00
00
ENDCHAR
STARTCHAR U+010373
ENCODING 66419
SWIDTH 500 0
DWIDTH 8 0
BBX 8 16 0 -2
BITMAP 
00
00
00
00
9B
6D
49
49
4A
48
48
48
4A
4C
00
00
ENDCHAR
STARTCHAR U+010374
ENCODING 66420
SWIDTH 500 0
DWIDTH 8 0
BBX 8 16 0 -2
BITMAP 
00
00
00
00
4C
B4
A4
A4
24
24
24
24
25
26
00
00
ENDCHAR
STARTCHAR U+010375
ENCODING 66421
SWIDTH 500 0
DWIDTH 8 0
BBX 8 16 0 -2
BITMAP 
00
00
00
00
82
82
54
6C
44
28
28
28
10
10
00
00
ENDCHAR
STARTCHAR U+010376
ENCODING 66422
SWIDTH 500 0
DWIDTH 8 0
BBX 8 16 0 -2
BITMAP 
3C
24
0E
10
00
00
00
00
00
00
00
00
00
00
00
00
ENDCHAR
STARTCHAR U+010377
ENCODING 66423
SWIDTH 500 0
DWIDTH 8 0
BBX 8 16 0 -2
BITMAP 
10
38
44
44
00
00
00
00
00
00
00
00
00
00
00
00
ENDCHAR
STARTCHAR U+010378
ENCODING 66424
SWIDTH 500 0
DWIDTH 8 0
BBX 8 16 0 -2
BITMAP 
38
28
28
38
00
00
00
00
00
00
00
00
00
00
00
00
ENDCHAR
STARTCHAR U+010379
ENCODING 66425
SWIDTH 500 0
DWIDTH 8 0
BBX 8 16 0 -2
BITMAP 
C2
24
28
10
00
00
00
00
00
00
00
00
00
00
00
00
ENDCHAR
STARTCHAR U+01037A
ENCODING 66426
SWIDTH 500 0
DWIDTH 8 0
BBX 8 16 0 -2
BITMAP 
18
10
14
18
00
00
00
00
00
00
00
00
00
00
00
00
ENDCHAR
STARTCHAR U+010380
ENCODING 66432
SWIDTH 1000 0
DWIDTH 16 0
BBX 16 16 0 -2
BITMAP 
0000
0000
0000
0000
0000
4400
6600
7FFE
6600
4400
0000
0000
0000
0000
0000
0000
ENDCHAR
STARTCHAR U+010381
ENCODING 66433
SWIDTH 1000 0
DWIDTH 16 0
BBX 16 16 0 -2
BITMAP 
0000
3EF8
1C70
0820
0820
0820
0820
0820
0820
0000
4400
6600
7FFE
6600
4400
0000
ENDCHAR
STARTCHAR U+010382
ENCODING 66434
SWIDTH 1000 0
DWIDTH 16 0
BBX 16 16 0 -2
BITMAP 
0000
07C0
0380
0100
0100
0100
0100
0100
0100
0100
0100
0100
0100
0100
0100
0000
ENDCHAR
STARTCHAR U+010383
ENCODING 66435
SWIDTH 1000 0
DWIDTH 16 0
BBX 16 16 0 -2
BITMAP 
0000
07C0
0380
0100
0100
07C0
0380
0100
0100
07C0
0380
0100
0100
0100
0100
0000
ENDCHAR
STARTCHAR U+010384
ENCODING 66436
SWIDTH 1000 0
DWIDTH 16 0
BBX 16 16 0 -2
BITMAP 
0000
FFFE
739C
2108
2108
2108
2108
2108
2108
0000
4440
6660
7FFE
6660
4440
0000
ENDCHAR
STARTCHAR U+010385
ENCODING 66437
SWIDTH 1000 0
DWIDTH 16 0
BBX 16 16 0 -2
BITMAP 
4000
6000
7FFE
6000
4000
4000
6000
7FFE
6000
4000
4000
6000
7FFE
6000
4000
0000
ENDCHAR
STARTCHAR U+010386
ENCODING 66438
SWIDTH 1000 0
DWIDTH 16 0
BBX 16 16 0 -2
BITMAP 
0000
0000
4000
6000
7C00
6110
4198
01FF
4198
6110
7C00
6000
4000
0000
0000
0000
ENDCHAR
STARTCHAR U+010387
ENCODING 66439
SWIDTH 1000 0
DWIDTH 16 0
BBX 16 16 0 -2
BITMAP 
0000
07C0
0380
0100
0100
07C0
0380
0100
0100
0100
0100
0100
0100
0100
0100
0000
ENDCHAR
STARTCHAR U+010388
ENCODING 66440
SWIDTH 1000 0
DWIDTH 16 0
BBX 16 16 0 -2
BITMAP 
0000
07C0
0380
0102
0104
0108
4118
6138
7FF8
6138
4218
0608
0E04
0602
0200
0100
ENDCHAR
STARTCHAR U+010389
ENCODING 66441
SWIDTH 1000 0
DWIDTH 16 0
BBX 16 16 0 -2
BITMAP 
0000
07C0
0380
0102
0104
0108
4118
6138
7FF8
6138
4118
0108
0104
0102
0100
0000
ENDCHAR
STARTCHAR U+01038A
ENCODING 66442
SWIDTH 1000 0
DWIDTH 16 0
BBX 16 16 0 -2
BITMAP 
0000
3EF8
1C70
0820
0820
3EF8
1C70
0820
0820
3EF8
1C70
0820
0820
0820
0820
0000
ENDCHAR
STARTCHAR U+01038B
ENCODING 66443
SWIDTH 1000 0
DWIDTH 16 0
BBX 16 16 0 -2
BITMAP 
0000
0000
4000
6000
7C00
6100
4180
01FF
4180
6100
7C00
6000
4000
0000
0000
0000
ENDCHAR
STARTCHAR U+01038C
ENCODING 66444
SWIDTH 1000 0
DWIDTH 16 0
BBX 16 16 0 -2
BITMAP 
0000
03E0
01C0
0098
028E
048F
0888
1888
3890
7890
38A0
18A0
0880
0480
0280
0000
ENDCHAR
STARTCHAR U+01038D
ENCODING 66445
SWIDTH 1000 0
DWIDTH 16 0
BBX 16 16 0 -2
BITMAP 
0000
FFFE
739C
2108
2108
2108
2108
2108
2108
2108
2108
2108
2108
2108
2108
0000
ENDCHAR
STARTCHAR U+01038E
ENCODING 66446
SWIDTH 1000 0
DWIDTH 16 0
BBX 16 16 0 -2
BITMAP 
0000
207C
3038
3FF0
3010
2010
0010
0010
0010
0010
0010
0010
0010
0010
0010
0000
ENDCHAR
STARTCHAR U+01038F
ENCODING 66447
SWIDTH 1000 0
DWIDTH 16 0
BBX 16 16 0 -2
BITMAP 
0000
0000
0230
041C
081E
1810
3810
7820
3820
1840
0840
0480
0280
0000
0000
0000
ENDCHAR
STARTCHAR U+010390
ENCODING 66448
SWIDTH 1000 0
DWIDTH 16 0
BBX 16 16 0 -2
BITMAP 
0000
0000
0000
0000
0000
4440
6660
7FFE
6660
4440
0000
0000
0000
0000
0000
0000
ENDCHAR
STARTCHAR U+010391
ENCODING 66449
SWIDTH 1000 0
DWIDTH 16 0
BBX 16 16 0 -2
BITMAP 
0000
0000
4002
6004
7FC8
6018
4038
0078
4038
6018
7FC8
6004
4002
0000
0000
0000
ENDCHAR
STARTCHAR U+010392
ENCODING 66450
SWIDTH 1000 0
DWIDTH 16 0
BBX 16 16 0 -2
BITMAP 
0000
0000
3EF8
1C70
0820
0820
0820
0000
07C0
0380
0100
0100
0100
0000
0000
0000
ENDCHAR
STARTCHAR U+010393
ENCODING 66451
SWIDTH 1000 0
DWIDTH 16 0
BBX 16 16 0 -2
BITMAP 
0000
0000
0020
0040
0080
0180
0380
0780
0380
0180
0080
0040
0020
0000
0000
0000
ENDCHAR
STARTCHAR U+010394
ENCODING 66452
SWIDTH 1000 0
DWIDTH 16 0
BBX 16 16 0 -2
BITMAP 
0000
0000
4000
6000
7FFE
6000
4000
0000
4000
6000
7FFE
6000
4000
0000
0000
0000
ENDCHAR
STARTCHAR U+010395
ENCODING 66453
SWIDTH 1000 0
DWIDTH 16 0
BBX 16 16 0 -2
BITMAP 
0000
3EF8
1C70
0820
0820
0820
0820
0820
0820
0820
0820
0820
0820
0820
0820
0000
ENDCHAR
STARTCHAR U+010396
ENCODING 66454
SWIDTH 1000 0
DWIDTH 16 0
BBX 16 16 0 -2
BITMAP 
0000
0000
0002
0004
0008
4018
6038
7FF8
6038
4018
0008
0004
0002
0000
0000
0000
ENDCHAR
STARTCHAR U+010397
ENCODING 66455
SWIDTH 1000 0
DWIDTH 16 0
BBX 16 16 0 -2
BITMAP 
0000
0000
4400
6600
7FC0
6610
4418
001F
4418
6610
7FC0
6600
4400
0000
0000
0000
ENDCHAR
STARTCHAR U+010398
ENCODING 66456
SWIDTH 1000 0
DWIDTH 16 0
BBX 16 16 0 -2
BITMAP 
0000
07C0
0380
0100
0140
0180
0100
0300
0700
0F00
0700
0300
0100
0180
0140
0000
ENDCHAR
STARTCHAR U+010399
ENCODING 66457
SWIDTH 1000 0
DWIDTH 16 0
BBX 16 16 0 -2
BITMAP 
0000
0000
0000
0000
0004
4008
6010
7FFE
6040
4080
0F00
0700
0300
0100
0000
0000
ENDCHAR
STARTCHAR U+01039A
ENCODING 66458
SWIDTH 1000 0
DWIDTH 16 0
BBX 16 16 0 -2
BITMAP 
0000
0000
0000
0000
0000
4000
6000
7FFE
6000
4000
0000
0000
0000
0000
0000
0000
ENDCHAR
STARTCHAR U+01039B
ENCODING 66459
SWIDTH 1000 0
DWIDTH 16 0
BBX 16 16 0 -2
BITMAP 
4000
6000
7FFE
6000
4000
4000
6000
7FFE
6000
4000
4000
6000
7FFE
6E00
4400
0400
ENDCHAR
STARTCHAR U+01039C
ENCODING 66460
SWIDTH 1000 0
DWIDTH 16 0
BBX 16 16 0 -2
BITMAP 
0000
FFFE
739C
2108
2108
2108
2108
2108
2108
2108
0000
4000
6000
7FFE
6000
4000
ENDCHAR
STARTCHAR U+01039D
ENCODING 66461
SWIDTH 1000 0
DWIDTH 16 0
BBX 16 16 0 -2
BITMAP 
1004
27C8
6398
2108
1104
1104
2108
6118
2108
1104
1104
2108
6118
2108
1104
0000
ENDCHAR
STARTCHAR U+01039F
ENCODING 66463
SWIDTH 1000 0
DWIDTH 16 0
BBX 16 16 0 -2
BITMAP 
0000
0000
0000
0000
0000
0000
07C0
0380
0100
0100
0100
0000
0000
0000
0000
0000
ENDCHAR
STARTCHAR U+0103A0
ENCODING 66464
SWIDTH 1000 0
DWIDTH 16 0
BBX 16 16 0 -2
BITMAP 
0000
4000
6000
5FFF
6000
4000
0000
7FFF
294A
1084
1084
1084
1084
1084
1084
0000
ENDCHAR
STARTCHAR U+0103A1
ENCODING 66465
SWIDTH 1000 0
DWIDTH 16 0
BBX 16 16 0 -2
BITMAP 
0000
4400
6600
5DFE
6600
4400
0000
3EF8
1450
0820
0820
0820
0820
0820
0820
0000
ENDCHAR
STARTCHAR U+0103A2
ENCODING 66466
SWIDTH 1000 0
DWIDTH 16 0
BBX 16 16 0 -2
BITMAP 
0000
0100
0580
097F
1180
3100
5000
93FF
514A
3084
1084
0884
0484
0084
0084
0000
ENDCHAR
STARTCHAR U+0103A3
ENCODING 66467
SWIDTH 1000 0
DWIDTH 16 0
BBX 16 16 0 -2
BITMAP 
0000
7C00
2800
1200
1300
12FE
1300
1200
1000
1200
1300
12FE
1300
1200
1000
0000
ENDCHAR
STARTCHAR U+0103A4
ENCODING 66468
SWIDTH 1000 0
DWIDTH 16 0
BBX 16 16 0 -2
BITMAP 
0000
007C
0128
0210
0410
0C10
1410
2410
1410
0C10
0410
0210
0110
0010
0010
0000
ENDCHAR
STARTCHAR U+0103A5
ENCODING 66469
SWIDTH 1000 0
DWIDTH 16 0
BBX 16 16 0 -2
BITMAP 
0000
0FF8
0550
0220
0A20
1220
3228
522C
922B
522C
3228
1220
0A20
0220
0220
0000
ENDCHAR
STARTCHAR U+0103A6
ENCODING 66470
SWIDTH 1000 0
DWIDTH 16 0
BBX 16 16 0 -2
BITMAP 
0000
0110
0598
0977
1198
3110
5180
917F
5180
3100
1180
097F
0580
0100
0000
0000
ENDCHAR
STARTCHAR U+0103A7
ENCODING 66471
SWIDTH 1000 0
DWIDTH 16 0
BBX 16 16 0 -2
BITMAP 
0000
01FF
00AA
0044
1144
2244
6644
AA44
6644
2244
1144
0044
0044
0044
0044
0000
ENDCHAR
STARTCHAR U+0103A8
ENCODING 66472
SWIDTH 1000 0
DWIDTH 16 0
BBX 16 16 0 -2
BITMAP 
4000
6000
5FF0
6000
4000
0000
7DF0
28A0
1040
1050
1058
1057
1058
1050
1040
0000
ENDCHAR
STARTCHAR U+0103A9
ENCODING 66473
SWIDTH 1000 0
DWIDTH 16 0
BBX 16 16 0 -2
BITMAP 
0000
07C0
0280
0102
0104
0108
4118
6128
5FC8
6128
4118
0108
0104
0102
0100
0000
ENDCHAR
STARTCHAR U+0103AA
ENCODING 66474
SWIDTH 1000 0
DWIDTH 16 0
BBX 16 16 0 -2
BITMAP 
0000
0020
0030
00AF
0130
4320
6530
592F
6530
4320
0130
00AF
0030
0020
0000
0000
ENDCHAR
STARTCHAR U+0103AB
ENCODING 66475
SWIDTH 1000 0
DWIDTH 16 0
BBX 16 16 0 -2
BITMAP 
0000
07DF
028A
0104
41FC
6154
5D24
6124
4124
6124
5D24
6124
4124
0124
0124
0000
ENDCHAR
STARTCHAR U+0103AC
ENCODING 66476
SWIDTH 1000 0
DWIDTH 16 0
BBX 16 16 0 -2
BITMAP 
0000
FFF8
5550
2220
2220
2228
222C
222B
222C
2228
2220
2220
2220
2220
2220
0000
ENDCHAR
STARTCHAR U+0103AD
ENCODING 66477
SWIDTH 1000 0
DWIDTH 16 0
BBX 16 16 0 -2
BITMAP 
0000
4000
6000
5FFE
6000
4000
0000
3EF8
1450
0820
0820
0820
0820
0820
0820
0000
ENDCHAR
STARTCHAR U+0103AE
ENCODING 66478
SWIDTH 1000 0
DWIDTH 16 0
BBX 16 16 0 -2
BITMAP 
4000
61FF
5EAA
6044
4044
4044
6044
5F44
6044
4044
4044
6044
5F44
6044
4044
0000
ENDCHAR
STARTCHAR U+0103AF
ENCODING 66479
SWIDTH 1000 0
DWIDTH 16 0
BBX 16 16 0 -2
BITMAP 
0000
001F
020A
0B04
12F4
3344
5264
905C
5264
3344
12F4
0B04
0204
0004
0004
0000
ENDCHAR
STARTCHAR U+0103B0
ENCODING 66480
SWIDTH 1000 0
DWIDTH 16 0
BBX 16 16 0 -2
BITMAP 
0000
7C3E
2814
1048
1088
1188
1288
1488
1288
1188
1088
1048
1008
1008
1008
0000
ENDCHAR
STARTCHAR U+0103B1
ENCODING 66481
SWIDTH 1000 0
DWIDTH 16 0
BBX 16 16 0 -2
BITMAP 
4000
6000
5FFE
6400
4600
05FE
4600
6400
5FFE
6000
5FF8
0A50
0420
0420
0420
0000
ENDCHAR
STARTCHAR U+0103B2
ENCODING 66482
SWIDTH 1000 0
DWIDTH 16 0
BBX 16 16 0 -2
BITMAP 
0000
003E
4014
6008
5FE8
6008
4008
0008
4008
6008
5FE8
6008
4008
0008
0008
0000
ENDCHAR
STARTCHAR U+0103B3
ENCODING 66483
SWIDTH 1000 0
DWIDTH 16 0
BBX 16 16 0 -2
BITMAP 
0000
F800
5042
2084
2108
2318
2528
2948
2528
2318
2108
2084
2042
2000
2000
0000
ENDCHAR
STARTCHAR U+0103B4
ENCODING 66484
SWIDTH 1000 0
DWIDTH 16 0
BBX 16 16 0 -2
BITMAP 
0000
0000
8002
C004
BFC8
C018
8028
0048
8028
C018
BFC8
C004
8002
0000
0000
0000
ENDCHAR
STARTCHAR U+0103B5
ENCODING 66485
SWIDTH 1000 0
DWIDTH 16 0
BBX 16 16 0 -2
BITMAP 
0000
0000
0010
0858
1097
3198
5290
9480
5290
3198
1097
0858
0010
0000
0000
0000
ENDCHAR
STARTCHAR U+0103B6
ENCODING 66486
SWIDTH 1000 0
DWIDTH 16 0
BBX 16 16 0 -2
BITMAP 
0000
0FBE
0514
0208
0208
83F8
C2A8
BA48
C248
8248
0248
0248
0248
0248
0248
0000
ENDCHAR
STARTCHAR U+0103B7
ENCODING 66487
SWIDTH 1000 0
DWIDTH 16 0
BBX 16 16 0 -2
BITMAP 
0000
F800
5020
20B0
212E
2330
2520
2D00
2520
2330
212E
20B0
2020
2000
2000
0000
ENDCHAR
STARTCHAR U+0103B8
ENCODING 66488
SWIDTH 1000 0
DWIDTH 16 0
BBX 16 16 0 -2
BITMAP 
0000
0000
8010
C020
BE40
D0D0
9958
1657
9958
D0D0
BE40
C020
8010
0000
0000
0000
ENDCHAR
STARTCHAR U+0103B9
ENCODING 66489
SWIDTH 1000 0
DWIDTH 16 0
BBX 16 16 0 -2
BITMAP 
0000
F800
5040
2080
2100
2340
2560
295E
2560
2340
2100
2080
2040
2000
2000
0000
ENDCHAR
STARTCHAR U+0103BA
ENCODING 66490
SWIDTH 1000 0
DWIDTH 16 0
BBX 16 16 0 -2
BITMAP 
0000
1F00
0A00
0500
0580
057E
85A0
C530
BC2E
C530
85A0
057E
0580
0500
0400
0000
ENDCHAR
STARTCHAR U+0103BB
ENCODING 66491
SWIDTH 1000 0
DWIDTH 16 0
BBX 16 16 0 -2
BITMAP 
0000
07C0
0280
0100
4100
6100
5FFE
6100
4100
0000
3EF8
1450
0820
0820
0820
0000
ENDCHAR
STARTCHAR U+0103BC
ENCODING 66492
SWIDTH 1000 0
DWIDTH 16 0
BBX 16 16 0 -2
BITMAP 
4000
603E
5F94
6008
4008
4008
6008
5FE8
6008
4008
4008
6008
5FE8
6008
4008
0000
ENDCHAR
STARTCHAR U+0103BD
ENCODING 66493
SWIDTH 1000 0
DWIDTH 16 0
BBX 16 16 0 -2
BITMAP 
0000
0000
0021
0042
0084
818C
C294
BCA4
C294
818C
0084
0042
0021
0000
0000
0000
ENDCHAR
STARTCHAR U+0103BE
ENCODING 66494
SWIDTH 1000 0
DWIDTH 16 0
BBX 16 16 0 -2
BITMAP 
0000
003E
0014
0108
0188
0178
2188
3108
2E08
3108
2188
0178
0188
0108
0008
0000
ENDCHAR
STARTCHAR U+0103BF
ENCODING 66495
SWIDTH 1000 0
DWIDTH 16 0
BBX 16 16 0 -2
BITMAP 
0000
7C00
2800
1200
1300
12FE
1320
1230
102E
1230
1320
12FE
1300
1200
1000
0000
ENDCHAR
STARTCHAR U+0103C0
ENCODING 66496
SWIDTH 1000 0
DWIDTH 16 0
BBX 16 16 0 -2
BITMAP 
0000
7C1F
280A
1004
1004
1444
1664
15DC
1664
1444
1004
1004
1004
1004
1004
0000
ENDCHAR
STARTCHAR U+0103C1
ENCODING 66497
SWIDTH 1000 0
DWIDTH 16 0
BBX 16 16 0 -2
BITMAP 
0000
4000
6000
5FFE
6000
4108
0210
0630
0A50
1290
0A50
0630
0210
0108
0000
0000
ENDCHAR
STARTCHAR U+0103C2
ENCODING 66498
SWIDTH 1000 0
DWIDTH 16 0
BBX 16 16 0 -2
BITMAP 
0000
4000
6000
5FFE
6000
4000
4000
6000
5FFE
6000
5FF8
0A50
0420
0420
0420
0000
ENDCHAR
STARTCHAR U+0103C3
ENCODING 66499
SWIDTH 1000 0
DWIDTH 16 0
BBX 16 16 0 -2
BITMAP 
0000
0000
0501
0982
1164
318C
5114
9024
5114
318C
1164
0982
0501
0000
0000
0000
ENDCHAR
STARTCHAR U+0103C8
ENCODING 66504
SWIDTH 1000 0
DWIDTH 16 0
BBX 16 16 0 -2
BITMAP 
0000
01F0
88A0
CC41
BB42
CC46
884A
0052
884A
CC46
BB42
CC41
8840
0040
0040
0000
ENDCHAR
STARTCHAR U+0103C9
ENCODING 66505
SWIDTH 1000 0
DWIDTH 16 0
BBX 16 16 0 -2
BITMAP 
0880
0CDF
0BBA
0CC4
8884
CCC4
BBBC
CCC4
8884
CCC4
BBBC
CCC4
8884
0CC4
0BBC
0CC0
ENDCHAR
STARTCHAR U+0103CA
ENCODING 66506
SWIDTH 1000 0
DWIDTH 16 0
BBX 16 16 0 -2
BITMAP 
1200
1BF8
16D0
1B20
9221
DB22
B6E6
DB2A
9232
DB2A
B6E6
DB22
9221
1B20
16E0
1B00
ENDCHAR
STARTCHAR U+0103CB
ENCODING 66507
SWIDTH 1000 0
DWIDTH 16 0
BBX 16 16 0 -2
BITMAP 
0000
01F0
00A0
8040
C141
B242
C646
8A4A
1252
8A4A
C646
B242
C141
8040
0040
0000
ENDCHAR
STARTCHAR U+0103CC
ENCODING 66508
SWIDTH 1000 0
DWIDTH 16 0
BBX 16 16 0 -2
BITMAP 
0880
113E
3314
5508
3308
1108
0888
0008
0888
1108
3308
5508
3308
1108
0888
0000
ENDCHAR
STARTCHAR U+0103CD
ENCODING 66509
SWIDTH 1000 0
DWIDTH 16 0
BBX 16 16 0 -2
BITMAP 
1200
25FF
6CAA
B444
6C44
2444
1244
0044
1244
2444
6C44
B444
6C44
2444
1244
0000
ENDCHAR
STARTCHAR U+0103CE
ENCODING 66510
SWIDTH 1000 0
DWIDTH 16 0
BBX 16 16 0 -2
BITMAP 
0000
0000
0000
0011
0022
9066
D8AA
B732
D8AA
9066
0022
0011
0000
0000
0000
0000
ENDCHAR
STARTCHAR U+0103CF
ENCODING 66511
SWIDTH 1000 0
DWIDTH 16 0
BBX 16 16 0 -2
BITMAP 
4440
6660
5DDE
6660
4440
0000
0842
1084
318C
5294
94A4
5294
318C
1084
0842
0000
ENDCHAR
STARTCHAR U+0103D0
ENCODING 66512
SWIDTH 1000 0
DWIDTH 16 0
BBX 16 16 0 -2
BITMAP 
0000
0000
0000
0200
0600
0A00
1E00
0100
0080
0040
0020
0010
0008
0000
0000
0000
ENDCHAR
STARTCHAR U+0103D1
ENCODING 66513
SWIDTH 1000 0
DWIDTH 16 0
BBX 16 16 0 -2
BITMAP 
0000
07C0
0280
0100
0100
0100
0100
0100
0100
0100
0100
0100
0100
0100
0100
0000
ENDCHAR
STARTCHAR U+0103D2
ENCODING 66514
SWIDTH 1000 0
DWIDTH 16 0
BBX 16 16 0 -2
BITMAP 
0000
07C0
0280
0100
0100
07C0
0280
0100
0100
0100
0100
0100
0100
0100
0100
0000
ENDCHAR
STARTCHAR U+0103D3
ENCODING 66515
SWIDTH 1000 0
DWIDTH 16 0
BBX 16 16 0 -2
BITMAP 
0000
0000
0020
0040
0080
0180
0280
0480
0280
0180
0080
0040
0020
0000
0000
0000
ENDCHAR
STARTCHAR U+0103D4
ENCODING 66516
SWIDTH 1000 0
DWIDTH 16 0
BBX 16 16 0 -2
BITMAP 
0040
0080
0180
0280
0180
0080
0040
0000
0040
0080
0180
0280
0180
0080
0040
0000
ENDCHAR
STARTCHAR U+0103D5
ENCODING 66517
SWIDTH 1000 0
DWIDTH 16 0
BBX 16 16 0 -2
BITMAP 
0000
2008
3018
2FE8
3018
2008
07C0
0280
0100
0100
0100
0100
0100
0100
0100
0000
ENDCHAR
STARTCHAR U+010400
ENCODING 66560
SWIDTH 500 0
DWIDTH 8 0
BBX 8 16 0 -2
BITMAP 
00
00
00
00
3C
42
02
02
3E
42
42
42
42
3C
00
00
ENDCHAR
STARTCHAR U+010401
ENCODING 66561
SWIDTH 500 0
DWIDTH 8 0
BBX 8 16 0 -2
BITMAP 
00
00
00
00
3C
42
42
40
3C
40
40
42
42
3C
00
00
ENDCHAR
STARTCHAR U+010402
ENCODING 66562
SWIDTH 500 0
DWIDTH 8 0
BBX 8 16 0 -2
BITMAP 
00
00
00
00
38
44
42
42
3A
42
42
42
44
38
00
00
ENDCHAR
STARTCHAR U+010403
ENCODING 66563
SWIDTH 500 0
DWIDTH 8 0
BBX 8 16 0 -2
BITMAP 
00
00
00
00
1C
2A
2A
49
47
41
41
22
22
1C
00
00
ENDCHAR
STARTCHAR U+010404
ENCODING 66564
SWIDTH 500 0
DWIDTH 8 0
BBX 8 16 0 -2
BITMAP 
00
00
00
00
1C
22
22
41
41
41
41
22
22
1C
00
00
ENDCHAR
STARTCHAR U+010405
ENCODING 66565
SWIDTH 500 0
DWIDTH 8 0
BBX 8 16 0 -2
BITMAP 
00
00
00
00
1C
2A
2A
49
49
49
49
2A
2A
1C
00
00
ENDCHAR
STARTCHAR U+010406
ENCODING 66566
SWIDTH 500 0
DWIDTH 8 0
BBX 8 16 0 -2
BITMAP 
00
00
00
00
08
08
28
18
0C
0A
08
08
08
08
00
00
ENDCHAR
STARTCHAR U+010407
ENCODING 66567
SWIDTH 500 0
DWIDTH 8 0
BBX 8 16 0 -2
BITMAP 
00
00
00
00
02
02
02
02
02
02
02
02
3A
46
00
00
ENDCHAR
STARTCHAR U+010408
ENCODING 66568
SWIDTH 500 0
DWIDTH 8 0
BBX 8 16 0 -2
BITMAP 
00
00
00
00
04
04
04
04
04
04
44
24
14
0C
00
00
ENDCHAR
STARTCHAR U+010409
ENCODING 66569
SWIDTH 500 0
DWIDTH 8 0
BBX 8 16 0 -2
BITMAP 
00
00
00
00
01
01
01
01
01
01
01
49
2D
1B
00
00
ENDCHAR
STARTCHAR U+01040A
ENCODING 66570
SWIDTH 500 0
DWIDTH 8 0
BBX 8 16 0 -2
BITMAP 
00
00
00
00
62
5C
40
40
40
40
40
40
40
40
00
00
ENDCHAR
STARTCHAR U+01040B
ENCODING 66571
SWIDTH 500 0
DWIDTH 8 0
BBX 8 16 0 -2
BITMAP 
00
00
00
00
18
24
24
24
1C
04
04
04
04
04
00
00
ENDCHAR
STARTCHAR U+01040C
ENCODING 66572
SWIDTH 500 0
DWIDTH 8 0
BBX 8 16 0 -2
BITMAP 
00
00
00
00
08
08
08
08
08
08
3C
4A
4A
32
00
00
ENDCHAR
STARTCHAR U+01040D
ENCODING 66573
SWIDTH 500 0
DWIDTH 8 0
BBX 8 16 0 -2
BITMAP 
00
00
00
00
38
54
52
4A
36
42
42
42
44
38
00
00
ENDCHAR
STARTCHAR U+01040E
ENCODING 66574
SWIDTH 500 0
DWIDTH 8 0
BBX 8 16 0 -2
BITMAP 
00
00
00
00
41
41
41
41
41
41
49
49
49
36
00
00
ENDCHAR
STARTCHAR U+01040F
ENCODING 66575
SWIDTH 500 0
DWIDTH 8 0
BBX 8 16 0 -2
BITMAP 
00
00
00
00
42
A2
A4
7F
24
24
28
28
28
10
00
00
ENDCHAR
STARTCHAR U+010410
ENCODING 66576
SWIDTH 500 0
DWIDTH 8 0
BBX 8 16 0 -2
BITMAP 
00
00
00
00
4C
52
52
3C
10
10
10
10
10
10
00
00
ENDCHAR
STARTCHAR U+010411
ENCODING 66577
SWIDTH 500 0
DWIDTH 8 0
BBX 8 16 0 -2
BITMAP 
00
00
00
00
7E
02
02
02
02
02
02
02
02
02
00
00
ENDCHAR
STARTCHAR U+010412
ENCODING 66578
SWIDTH 500 0
DWIDTH 8 0
BBX 8 16 0 -2
BITMAP 
00
00
00
00
3A
46
42
42
3A
42
42
42
46
3A
00
00
ENDCHAR
STARTCHAR U+010413
ENCODING 66579
SWIDTH 500 0
DWIDTH 8 0
BBX 8 16 0 -2
BITMAP 
00
00
00
00
1C
22
22
22
02
02
02
02
02
02
00
00
ENDCHAR
STARTCHAR U+010414
ENCODING 66580
SWIDTH 500 0
DWIDTH 8 0
BBX 8 16 0 -2
BITMAP 
00
00
00
00
1A
26
22
46
7A
42
42
22
26
1A
00
00
ENDCHAR
STARTCHAR U+010415
ENCODING 66581
SWIDTH 500 0
DWIDTH 8 0
BBX 8 16 0 -2
BITMAP 
00
00
00
00
1C
22
42
40
40
40
40
42
22
1C
00
00
ENDCHAR
STARTCHAR U+010416
ENCODING 66582
SWIDTH 500 0
DWIDTH 8 0
BBX 8 16 0 -2
BITMAP 
00
00
00
00
18
24
20
20
1C
08
10
10
20
20
00
00
ENDCHAR
STARTCHAR U+010417
ENCODING 66583
SWIDTH 500 0
DWIDTH 8 0
BBX 8 16 0 -2
BITMAP 
00
00
00
00
1C
22
41
41
41
41
49
49
49
36
00
00
ENDCHAR
STARTCHAR U+010418
ENCODING 66584
SWIDTH 500 0
DWIDTH 8 0
BBX 8 16 0 -2
BITMAP 
00
00
00
00
1C
2A
49
47
41
41
49
49
49
36
00
00
ENDCHAR
STARTCHAR U+010419
ENCODING 66585
SWIDTH 500 0
DWIDTH 8 0
BBX 8 16 0 -2
BITMAP 
00
00
00
00
0C
12
22
22
3C
20
20
20
20
20
00
00
ENDCHAR
STARTCHAR U+01041A
ENCODING 66586
SWIDTH 500 0
DWIDTH 8 0
BBX 8 16 0 -2
BITMAP 
00
00
00
00
1C
22
42
42
5C
42
42
42
22
1C
00
00
ENDCHAR
STARTCHAR U+01041B
ENCODING 66587
SWIDTH 500 0
DWIDTH 8 0
BBX 8 16 0 -2
BITMAP 
00
00
00
00
40
40
40
40
40
40
40
40
40
7E
00
00
ENDCHAR
STARTCHAR U+01041C
ENCODING 66588
SWIDTH 500 0
DWIDTH 8 0
BBX 8 16 0 -2
BITMAP 
00
00
00
00
41
41
22
22
14
08
14
22
22
1C
00
00
ENDCHAR
STARTCHAR U+01041D
ENCODING 66589
SWIDTH 500 0
DWIDTH 8 0
BBX 8 16 0 -2
BITMAP 
00
00
00
00
0C
12
12
54
38
0E
15
24
24
18
00
00
ENDCHAR
STARTCHAR U+01041E
ENCODING 66590
SWIDTH 500 0
DWIDTH 8 0
BBX 8 16 0 -2
BITMAP 
00
00
00
00
0C
12
20
20
38
24
22
22
22
1C
00
00
ENDCHAR
STARTCHAR U+01041F
ENCODING 66591
SWIDTH 500 0
DWIDTH 8 0
BBX 8 16 0 -2
BITMAP 
00
00
00
00
5C
62
41
41
41
41
41
41
62
5C
00
00
ENDCHAR
STARTCHAR U+010420
ENCODING 66592
SWIDTH 500 0
DWIDTH 8 0
BBX 8 16 0 -2
BITMAP 
00
00
00
00
3C
42
42
40
30
0C
02
42
42
3C
00
00
ENDCHAR
STARTCHAR U+010421
ENCODING 66593
SWIDTH 500 0
DWIDTH 8 0
BBX 8 16 0 -2
BITMAP 
00
00
00
00
08
08
2A
59
49
3E
08
08
08
08
00
00
ENDCHAR
STARTCHAR U+010422
ENCODING 66594
SWIDTH 500 0
DWIDTH 8 0
BBX 8 16 0 -2
BITMAP 
00
00
00
00
20
20
20
20
20
20
20
22
22
1C
00
00
ENDCHAR
STARTCHAR U+010423
ENCODING 66595
SWIDTH 500 0
DWIDTH 8 0
BBX 8 16 0 -2
BITMAP 
00
00
00
00
38
44
42
02
02
02
02
42
44
38
00
00
ENDCHAR
STARTCHAR U+010424
ENCODING 66596
SWIDTH 500 0
DWIDTH 8 0
BBX 8 16 0 -2
BITMAP 
00
00
00
00
20
20
20
20
2C
34
04
04
04
04
00
00
ENDCHAR
STARTCHAR U+010425
ENCODING 66597
SWIDTH 500 0
DWIDTH 8 0
BBX 8 16 0 -2
BITMAP 
00
00
00
00
42
46
46
4A
4A
52
52
62
62
42
00
00
ENDCHAR
STARTCHAR U+010426
ENCODING 66598
SWIDTH 500 0
DWIDTH 8 0
BBX 8 16 0 -2
BITMAP 
00
00
00
00
02
02
12
0A
06
03
02
92
5A
36
00
00
ENDCHAR
STARTCHAR U+010427
ENCODING 66599
SWIDTH 500 0
DWIDTH 8 0
BBX 8 16 0 -2
BITMAP 
00
00
00
00
1C
2A
2A
49
59
4D
49
2A
2A
1C
00
00
ENDCHAR
STARTCHAR U+010428
ENCODING 66600
SWIDTH 500 0
DWIDTH 8 0
BBX 8 16 0 -2
BITMAP 
00
00
00
00
00
00
00
3C
42
02
3E
42
42
3C
00
00
ENDCHAR
STARTCHAR U+010429
ENCODING 66601
SWIDTH 500 0
DWIDTH 8 0
BBX 8 16 0 -2
BITMAP 
00
00
00
00
00
00
00
3C
42
40
38
40
42
3C
00
00
ENDCHAR
STARTCHAR U+01042A
ENCODING 66602
SWIDTH 500 0
DWIDTH 8 0
BBX 8 16 0 -2
BITMAP 
00
00
00
00
00
00
00
3C
42
42
3A
42
42
3C
00
00
ENDCHAR
STARTCHAR U+01042B
ENCODING 66603
SWIDTH 500 0
DWIDTH 8 0
BBX 8 16 0 -2
BITMAP 
00
00
00
00
00
00
00
1C
2A
49
47
41
22
1C
00
00
ENDCHAR
STARTCHAR U+01042C
ENCODING 66604
SWIDTH 500 0
DWIDTH 8 0
BBX 8 16 0 -2
BITMAP 
00
00
00
00
00
00
00
1C
22
41
41
41
22
1C
00
00
ENDCHAR
STARTCHAR U+01042D
ENCODING 66605
SWIDTH 500 0
DWIDTH 8 0
BBX 8 16 0 -2
BITMAP 
00
00
00
00
00
00
00
1C
2A
49
49
49
2A
1C
00
00
ENDCHAR
STARTCHAR U+01042E
ENCODING 66606
SWIDTH 500 0
DWIDTH 8 0
BBX 8 16 0 -2
BITMAP 
00
00
00
00
00
00
00
08
28
18
0C
0A
08
08
00
00
ENDCHAR
STARTCHAR U+01042F
ENCODING 66607
SWIDTH 500 0
DWIDTH 8 0
BBX 8 16 0 -2
BITMAP 
00
00
00
00
00
00
00
02
02
02
02
02
3A
46
00
00
ENDCHAR
STARTCHAR U+010430
ENCODING 66608
SWIDTH 500 0
DWIDTH 8 0
BBX 8 16 0 -2
BITMAP 
00
00
00
00
00
00
00
04
04
04
04
24
14
0C
00
00
ENDCHAR
STARTCHAR U+010431
ENCODING 66609
SWIDTH 500 0
DWIDTH 8 0
BBX 8 16 0 -2
BITMAP 
00
00
00
00
00
00
00
01
01
01
01
49
2D
1B
00
00
ENDCHAR
STARTCHAR U+010432
ENCODING 66610
SWIDTH 500 0
DWIDTH 8 0
BBX 8 16 0 -2
BITMAP 
00
00
00
00
00
00
00
62
5C
40
40
40
40
40
00
00
ENDCHAR
STARTCHAR U+010433
ENCODING 66611
SWIDTH 500 0
DWIDTH 8 0
BBX 8 16 0 -2
BITMAP 
00
00
00
00
00
00
00
18
24
24
1C
04
04
04
00
00
ENDCHAR
STARTCHAR U+010434
ENCODING 66612
SWIDTH 500 0
DWIDTH 8 0
BBX 8 16 0 -2
BITMAP 
00
00
00
00
00
00
00
08
08
08
08
3C
4A
32
00
00
ENDCHAR
STARTCHAR U+010435
ENCODING 66613
SWIDTH 500 0
DWIDTH 8 0
BBX 8 16 0 -2
BITMAP 
00
00
00
00
00
00
00
3C
4A
4A
36
42
42
3C
00
00
ENDCHAR
STARTCHAR U+010436
ENCODING 66614
SWIDTH 500 0
DWIDTH 8 0
BBX 8 16 0 -2
BITMAP 
00
00
00
00
00
00
00
41
41
41
41
49
49
36
00
00
ENDCHAR
STARTCHAR U+010437
ENCODING 66615
SWIDTH 500 0
DWIDTH 8 0
BBX 8 16 0 -2
BITMAP 
00
00
00
00
00
00
00
42
A2
A4
7F
24
28
10
00
00
ENDCHAR
STARTCHAR U+010438
ENCODING 66616
SWIDTH 500 0
DWIDTH 8 0
BBX 8 16 0 -2
BITMAP 
00
00
00
00
00
00
00
4C
52
3C
10
10
10
10
00
00
ENDCHAR
STARTCHAR U+010439
ENCODING 66617
SWIDTH 500 0
DWIDTH 8 0
BBX 8 16 0 -2
BITMAP 
00
00
00
00
00
00
00
3E
02
02
02
02
02
02
00
00
ENDCHAR
STARTCHAR U+01043A
ENCODING 66618
SWIDTH 500 0
DWIDTH 8 0
BBX 8 16 0 -2
BITMAP 
00
00
00
00
00
00
00
3A
46
42
3E
42
46
3A
00
00
ENDCHAR
STARTCHAR U+01043B
ENCODING 66619
SWIDTH 500 0
DWIDTH 8 0
BBX 8 16 0 -2
BITMAP 
00
00
00
00
00
00
00
1C
22
22
02
02
02
02
00
00
ENDCHAR
STARTCHAR U+01043C
ENCODING 66620
SWIDTH 500 0
DWIDTH 8 0
BBX 8 16 0 -2
BITMAP 
00
00
00
00
00
00
00
1A
26
46
7A
42
26
1A
00
00
ENDCHAR
STARTCHAR U+01043D
ENCODING 66621
SWIDTH 500 0
DWIDTH 8 0
BBX 8 16 0 -2
BITMAP 
00
00
00
00
00
00
00
1C
22
40
40
40
22
1C
00
00
ENDCHAR
STARTCHAR U+01043E
ENCODING 66622
SWIDTH 500 0
DWIDTH 8 0
BBX 8 16 0 -2
BITMAP 
00
00
00
00
00
00
00
18
24
20
1C
08
10
20
00
00
ENDCHAR
STARTCHAR U+01043F
ENCODING 66623
SWIDTH 500 0
DWIDTH 8 0
BBX 8 16 0 -2
BITMAP 
00
00
00
00
00
00
00
1C
22
41
41
49
49
36
00
00
ENDCHAR
STARTCHAR U+010440
ENCODING 66624
SWIDTH 500 0
DWIDTH 8 0
BBX 8 16 0 -2
BITMAP 
00
00
00
00
00
00
00
1C
2A
49
47
41
49
36
00
00
ENDCHAR
STARTCHAR U+010441
ENCODING 66625
SWIDTH 500 0
DWIDTH 8 0
BBX 8 16 0 -2
BITMAP 
00
00
00
00
00
00
00
1C
22
22
3C
20
20
20
00
00
ENDCHAR
STARTCHAR U+010442
ENCODING 66626
SWIDTH 500 0
DWIDTH 8 0
BBX 8 16 0 -2
BITMAP 
00
00
00
00
00
00
00
3C
42
42
5C
42
42
3C
00
00
ENDCHAR
STARTCHAR U+010443
ENCODING 66627
SWIDTH 500 0
DWIDTH 8 0
BBX 8 16 0 -2
BITMAP 
00
00
00
00
00
00
00
20
20
20
20
20
20
3E
00
00
ENDCHAR
STARTCHAR U+010444
ENCODING 66628
SWIDTH 500 0
DWIDTH 8 0
BBX 8 16 0 -2
BITMAP 
00
00
00
00
00
00
00
41
22
14
08
14
14
08
00
00
ENDCHAR
STARTCHAR U+010445
ENCODING 66629
SWIDTH 500 0
DWIDTH 8 0
BBX 8 16 0 -2
BITMAP 
00
00
00
00
00
00
00
18
24
A8
7E
15
24
18
00
00
ENDCHAR
STARTCHAR U+010446
ENCODING 66630
SWIDTH 500 0
DWIDTH 8 0
BBX 8 16 0 -2
BITMAP 
00
00
00
00
00
00
00
18
24
20
38
24
24
18
00
00
ENDCHAR
STARTCHAR U+010447
ENCODING 66631
SWIDTH 500 0
DWIDTH 8 0
BBX 8 16 0 -2
BITMAP 
00
00
00
00
00
00
00
5C
62
42
42
42
62
5C
00
00
ENDCHAR
STARTCHAR U+010448
ENCODING 66632
SWIDTH 500 0
DWIDTH 8 0
BBX 8 16 0 -2
BITMAP 
00
00
00
00
00
00
00
3C
42
40
3C
02
42
3C
00
00
ENDCHAR
STARTCHAR U+010449
ENCODING 66633
SWIDTH 500 0
DWIDTH 8 0
BBX 8 16 0 -2
BITMAP 
00
00
00
00
00
00
00
08
6A
59
3E
08
08
08
00
00
ENDCHAR
STARTCHAR U+01044A
ENCODING 66634
SWIDTH 500 0
DWIDTH 8 0
BBX 8 16 0 -2
BITMAP 
00
00
00
00
00
00
00
20
20
20
20
22
22
1C
00
00
ENDCHAR
STARTCHAR U+01044B
ENCODING 66635
SWIDTH 500 0
DWIDTH 8 0
BBX 8 16 0 -2
BITMAP 
00
00
00
00
00
00
00
38
44
02
02
02
44
38
00
00
ENDCHAR
STARTCHAR U+01044C
ENCODING 66636
SWIDTH 500 0
DWIDTH 8 0
BBX 8 16 0 -2
BITMAP 
00
00
00
00
00
00
00
20
20
20
2C
34
04
04
00
00
ENDCHAR
STARTCHAR U+01044D
ENCODING 66637
SWIDTH 500 0
DWIDTH 8 0
BBX 8 16 0 -2
BITMAP 
00
00
00
00
00
00
00
42
46
4A
52
62
42
42
00
00
ENDCHAR
STARTCHAR U+01044E
ENCODING 66638
SWIDTH 500 0
DWIDTH 8 0
BBX 8 16 0 -2
BITMAP 
00
00
00
00
00
00
00
02
0A
06
03
92
5A
36
00
00
ENDCHAR
STARTCHAR U+01044F
ENCODING 66639
SWIDTH 500 0
DWIDTH 8 0
BBX 8 16 0 -2
BITMAP 
00
00
00
00
00
00
00
1C
2A
49
5D
49
2A
1C
00
00
ENDCHAR
STARTCHAR U+010450
ENCODING 66640
SWIDTH 500 0
DWIDTH 8 0
BBX 8 16 0 -2
BITMAP 
00
00
00
00
70
08
04
04
04
04
04
04
04
04
00
00
ENDCHAR
STARTCHAR U+010451
ENCODING 66641
SWIDTH 500 0
DWIDTH 8 0
BBX 8 16 0 -2
BITMAP 
00
00
00
00
00
04
0C
14
24
04
04
04
04
04
00
00
ENDCHAR
STARTCHAR U+010452
ENCODING 66642
SWIDTH 500 0
DWIDTH 8 0
BBX 8 16 0 -2
BITMAP 
00
00
00
00
02
02
02
1A
26
22
20
20
10
0E
00
00
ENDCHAR
STARTCHAR U+010453
ENCODING 66643
SWIDTH 500 0
DWIDTH 8 0
BBX 8 16 0 -2
BITMAP 
00
00
00
00
04
04
04
04
04
04
04
04
08
70
00
00
ENDCHAR
STARTCHAR U+010454
ENCODING 66644
SWIDTH 500 0
DWIDTH 8 0
BBX 8 16 0 -2
BITMAP 
00
00
00
00
40
20
10
08
24
42
42
42
24
18
00
00
ENDCHAR
STARTCHAR U+010455
ENCODING 66645
SWIDTH 500 0
DWIDTH 8 0
BBX 8 16 0 -2
BITMAP 
00
00
00
00
38
40
40
20
10
08
04
04
04
78
00
00
ENDCHAR
STARTCHAR U+010456
ENCODING 66646
SWIDTH 500 0
DWIDTH 8 0
BBX 8 16 0 -2
BITMAP 
00
00
00
00
02
04
08
10
20
40
40
40
20
1E
00
00
ENDCHAR
STARTCHAR U+010457
ENCODING 66647
SWIDTH 500 0
DWIDTH 8 0
BBX 8 16 0 -2
BITMAP 
00
00
00
00
02
3C
08
10
20
40
40
40
20
1E
00
00
ENDCHAR
STARTCHAR U+010458
ENCODING 66648
SWIDTH 500 0
DWIDTH 8 0
BBX 8 16 0 -2
BITMAP 
00
00
00
00
40
40
20
20
10
10
08
08
04
04
00
00
ENDCHAR
STARTCHAR U+010459
ENCODING 66649
SWIDTH 500 0
DWIDTH 8 0
BBX 8 16 0 -2
BITMAP 
00
00
00
00
38
44
44
44
44
44
28
10
28
44
00
00
ENDCHAR
STARTCHAR U+01045A
ENCODING 66650
SWIDTH 500 0
DWIDTH 8 0
BBX 8 16 0 -2
BITMAP 
00
00
00
00
00
00
40
40
40
40
40
40
40
40
20
1C
ENDCHAR
STARTCHAR U+01045B
ENCODING 66651
SWIDTH 500 0
DWIDTH 8 0
BBX 8 16 0 -2
BITMAP 
00
00
00
00
00
00
20
20
20
20
20
24
28
30
20
00
ENDCHAR
STARTCHAR U+01045C
ENCODING 66652
SWIDTH 500 0
DWIDTH 8 0
BBX 8 16 0 -2
BITMAP 
00
00
00
00
00
00
70
08
04
04
44
64
58
40
40
40
ENDCHAR
STARTCHAR U+01045D
ENCODING 66653
SWIDTH 500 0
DWIDTH 8 0
BBX 8 16 0 -2
BITMAP 
00
00
00
00
00
00
1C
20
40
40
40
40
40
40
40
40
ENDCHAR
STARTCHAR U+01045E
ENCODING 66654
SWIDTH 500 0
DWIDTH 8 0
BBX 8 16 0 -2
BITMAP 
00
00
00
00
00
00
18
24
42
42
42
44
20
10
08
04
ENDCHAR
STARTCHAR U+01045F
ENCODING 66655
SWIDTH 500 0
DWIDTH 8 0
BBX 8 16 0 -2
BITMAP 
00
00
00
00
00
00
78
04
04
04
08
10
20
40
40
38
ENDCHAR
STARTCHAR U+010460
ENCODING 66656
SWIDTH 500 0
DWIDTH 8 0
BBX 8 16 0 -2
BITMAP 
00
00
00
00
00
00
78
04
02
02
02
04
08
10
20
40
ENDCHAR
STARTCHAR U+010461
ENCODING 66657
SWIDTH 500 0
DWIDTH 8 0
BBX 8 16 0 -2
BITMAP 
00
00
00
00
00
00
78
04
02
02
02
04
08
10
3C
40
ENDCHAR
STARTCHAR U+010462
ENCODING 66658
SWIDTH 500 0
DWIDTH 8 0
BBX 8 16 0 -2
BITMAP 
00
00
00
00
00
00
04
04
08
08
10
10
20
20
40
40
ENDCHAR
STARTCHAR U+010463
ENCODING 66659
SWIDTH 500 0
DWIDTH 8 0
BBX 8 16 0 -2
BITMAP 
00
00
00
00
00
00
44
28
10
28
44
44
44
44
44
38
ENDCHAR
STARTCHAR U+010464
ENCODING 66660
SWIDTH 500 0
DWIDTH 8 0
BBX 8 16 0 -2
BITMAP 
00
00
00
00
00
00
00
1C
20
40
40
40
20
1C
00
00
ENDCHAR
STARTCHAR U+010465
ENCODING 66661
SWIDTH 500 0
DWIDTH 8 0
BBX 8 16 0 -2
BITMAP 
00
00
00
00
00
00
00
03
04
08
08
08
10
60
00
00
ENDCHAR
STARTCHAR U+010466
ENCODING 66662
SWIDTH 500 0
DWIDTH 8 0
BBX 8 16 0 -2
BITMAP 
00
00
00
00
00
00
00
08
08
08
08
08
08
08
00
00
ENDCHAR
STARTCHAR U+010467
ENCODING 66663
SWIDTH 500 0
DWIDTH 8 0
BBX 8 16 0 -2
BITMAP 
00
00
00
00
00
00
00
40
40
40
40
40
20
1C
00
00
ENDCHAR
STARTCHAR U+010468
ENCODING 66664
SWIDTH 500 0
DWIDTH 8 0
BBX 8 16 0 -2
BITMAP 
00
00
00
00
00
00
00
04
04
04
04
04
08
70
00
00
ENDCHAR
STARTCHAR U+010469
ENCODING 66665
SWIDTH 500 0
DWIDTH 8 0
BBX 8 16 0 -2
BITMAP 
00
00
00
00
00
00
00
1C
20
40
40
40
40
40
00
00
ENDCHAR
STARTCHAR U+01046A
ENCODING 66666
SWIDTH 500 0
DWIDTH 8 0
BBX 8 16 0 -2
BITMAP 
00
00
00
00
00
00
00
70
08
04
04
04
04
04
00
00
ENDCHAR
STARTCHAR U+01046B
ENCODING 66667
SWIDTH 500 0
DWIDTH 8 0
BBX 8 16 0 -2
BITMAP 
00
00
00
00
00
00
00
41
41
22
22
14
14
08
00
00
ENDCHAR
STARTCHAR U+01046C
ENCODING 66668
SWIDTH 500 0
DWIDTH 8 0
BBX 8 16 0 -2
BITMAP 
00
00
00
00
00
00
00
04
08
10
30
08
08
06
00
00
ENDCHAR
STARTCHAR U+01046D
ENCODING 66669
SWIDTH 500 0
DWIDTH 8 0
BBX 8 16 0 -2
BITMAP 
00
00
00
00
00
00
00
0E
10
20
1C
04
08
70
00
00
ENDCHAR
STARTCHAR U+01046E
ENCODING 66670
SWIDTH 500 0
DWIDTH 8 0
BBX 8 16 0 -2
BITMAP 
00
00
00
00
00
00
00
38
04
02
02
02
04
38
00
00
ENDCHAR
STARTCHAR U+01046F
ENCODING 66671
SWIDTH 500 0
DWIDTH 8 0
BBX 8 16 0 -2
BITMAP 
00
00
00
00
00
00
00
60
10
08
08
08
04
03
00
00
ENDCHAR
STARTCHAR U+010470
ENCODING 66672
SWIDTH 500 0
DWIDTH 8 0
BBX 8 16 0 -2
BITMAP 
00
00
00
00
00
00
00
20
20
2C
34
04
04
04
00
00
ENDCHAR
STARTCHAR U+010471
ENCODING 66673
SWIDTH 500 0
DWIDTH 8 0
BBX 8 16 0 -2
BITMAP 
00
00
00
00
00
00
00
7E
40
40
40
40
20
1C
00
00
ENDCHAR
STARTCHAR U+010472
ENCODING 66674
SWIDTH 500 0
DWIDTH 8 0
BBX 8 16 0 -2
BITMAP 
00
00
00
00
00
00
00
7E
02
02
02
02
04
38
00
00
ENDCHAR
STARTCHAR U+010473
ENCODING 66675
SWIDTH 500 0
DWIDTH 8 0
BBX 8 16 0 -2
BITMAP 
00
00
00
00
00
00
00
7C
04
08
10
10
10
10
00
00
ENDCHAR
STARTCHAR U+010474
ENCODING 66676
SWIDTH 500 0
DWIDTH 8 0
BBX 8 16 0 -2
BITMAP 
00
00
00
00
00
00
00
38
44
44
44
44
44
38
00
00
ENDCHAR
STARTCHAR U+010475
ENCODING 66677
SWIDTH 500 0
DWIDTH 8 0
BBX 8 16 0 -2
BITMAP 
00
00
00
00
00
00
00
08
14
14
22
22
41
41
00
00
ENDCHAR
STARTCHAR U+010476
ENCODING 66678
SWIDTH 500 0
DWIDTH 8 0
BBX 8 16 0 -2
BITMAP 
00
00
00
00
00
00
00
60
10
10
0C
08
10
20
00
00
ENDCHAR
STARTCHAR U+010477
ENCODING 66679
SWIDTH 500 0
DWIDTH 8 0
BBX 8 16 0 -2
BITMAP 
00
00
00
00
00
00
00
70
08
04
38
20
10
0E
00
00
ENDCHAR
STARTCHAR U+010478
ENCODING 66680
SWIDTH 500 0
DWIDTH 8 0
BBX 8 16 0 -2
BITMAP 
00
00
00
00
00
00
00
3C
42
41
31
11
21
46
00
00
ENDCHAR
STARTCHAR U+010479
ENCODING 66681
SWIDTH 500 0
DWIDTH 8 0
BBX 8 16 0 -2
BITMAP 
00
00
00
00
00
00
00
66
11
11
61
41
22
1C
00
00
ENDCHAR
STARTCHAR U+01047A
ENCODING 66682
SWIDTH 500 0
DWIDTH 8 0
BBX 8 16 0 -2
BITMAP 
00
00
00
00
00
00
00
1C
22
21
19
21
41
46
00
00
ENDCHAR
STARTCHAR U+01047B
ENCODING 66683
SWIDTH 500 0
DWIDTH 8 0
BBX 8 16 0 -2
BITMAP 
00
00
00
00
00
00
00
46
41
21
19
21
22
1C
00
00
ENDCHAR
STARTCHAR U+01047C
ENCODING 66684
SWIDTH 500 0
DWIDTH 8 0
BBX 8 16 0 -2
BITMAP 
00
00
00
00
00
00
00
1C
22
42
42
42
42
4C
00
00
ENDCHAR
STARTCHAR U+01047D
ENCODING 66685
SWIDTH 500 0
DWIDTH 8 0
BBX 8 16 0 -2
BITMAP 
00
00
00
00
00
00
00
5C
62
42
42
42
42
4C
00
00
ENDCHAR
STARTCHAR U+01047E
ENCODING 66686
SWIDTH 500 0
DWIDTH 8 0
BBX 8 16 0 -2
BITMAP 
00
00
00
00
00
00
00
4E
50
60
40
40
40
40
00
00
ENDCHAR
STARTCHAR U+01047F
ENCODING 66687
SWIDTH 500 0
DWIDTH 8 0
BBX 8 16 0 -2
BITMAP 
00
00
00
00
40
40
40
44
2A
2A
2A
29
11
11
00
00
ENDCHAR
STARTCHAR U+010480
ENCODING 66688
SWIDTH 500 0
DWIDTH 8 0
BBX 8 16 0 -2
BITMAP 
00
00
00
00
22
14
08
14
22
41
41
41
22
1C
00
00
ENDCHAR
STARTCHAR U+010481
ENCODING 66689
SWIDTH 500 0
DWIDTH 8 0
BBX 8 16 0 -2
BITMAP 
00
00
00
00
54
54
54
54
2C
04
08
3E
48
30
00
00
ENDCHAR
STARTCHAR U+010482
ENCODING 66690
SWIDTH 500 0
DWIDTH 8 0
BBX 8 16 0 -2
BITMAP 
00
00
00
00
08
28
58
58
28
08
11
11
11
0E
00
00
ENDCHAR
STARTCHAR U+010483
ENCODING 66691
SWIDTH 500 0
DWIDTH 8 0
BBX 8 16 0 -2
BITMAP 
00
00
00
00
08
08
08
10
10
10
10
20
20
20
00
00
ENDCHAR
STARTCHAR U+010484
ENCODING 66692
SWIDTH 1000 0
DWIDTH 16 0
BBX 16 16 0 -2
BITMAP 
0000
0000
0000
0000
1040
18C0
1740
1040
2080
2080
2088
4108
4110
40E0
0000
0000
ENDCHAR
STARTCHAR U+010485
ENCODING 66693
SWIDTH 500 0
DWIDTH 8 0
BBX 8 16 0 -2
BITMAP 
00
00
00
00
38
44
40
40
70
48
49
49
49
46
00
00
ENDCHAR
STARTCHAR U+010486
ENCODING 66694
SWIDTH 500 0
DWIDTH 8 0
BBX 8 16 0 -2
BITMAP 
00
00
00
00
1C
22
22
41
41
41
41
22
22
1C
00
00
ENDCHAR
STARTCHAR U+010487
ENCODING 66695
SWIDTH 500 0
DWIDTH 8 0
BBX 8 16 0 -2
BITMAP 
00
00
00
00
31
4F
01
02
02
02
04
04
04
04
00
00
ENDCHAR
STARTCHAR U+010488
ENCODING 66696
SWIDTH 500 0
DWIDTH 8 0
BBX 8 16 0 -2
BITMAP 
00
00
00
00
38
44
04
08
10
3C
42
42
42
3C
00
00
ENDCHAR
STARTCHAR U+010489
ENCODING 66697
SWIDTH 500 0
DWIDTH 8 0
BBX 8 16 0 -2
BITMAP 
00
00
00
00
3C
42
42
42
3C
08
10
20
22
1C
00
00
ENDCHAR
STARTCHAR U+01048A
ENCODING 66698
SWIDTH 500 0
DWIDTH 8 0
BBX 8 16 0 -2
BITMAP 
00
00
00
00
78
08
08
10
10
10
23
22
22
1C
00
00
ENDCHAR
STARTCHAR U+01048B
ENCODING 66699
SWIDTH 500 0
DWIDTH 8 0
BBX 8 16 0 -2
BITMAP 
00
00
00
00
24
24
24
24
1C
04
08
3E
48
30
00
00
ENDCHAR
STARTCHAR U+01048C
ENCODING 66700
SWIDTH 500 0
DWIDTH 8 0
BBX 8 16 0 -2
BITMAP 
00
00
00
00
30
48
48
48
30
48
49
49
49
46
00
00
ENDCHAR
STARTCHAR U+01048D
ENCODING 66701
SWIDTH 500 0
DWIDTH 8 0
BBX 8 16 0 -2
BITMAP 
00
00
00
00
48
48
48
48
38
08
10
12
12
0C
00
00
ENDCHAR
STARTCHAR U+01048E
ENCODING 66702
SWIDTH 1000 0
DWIDTH 16 0
BBX 16 16 0 -2
BITMAP 
0000
0000
0000
0000
3818
4424
4424
0478
05A0
1E20
2420
2422
2422
181C
0000
0000
ENDCHAR
STARTCHAR U+01048F
ENCODING 66703
SWIDTH 500 0
DWIDTH 8 0
BBX 8 16 0 -2
BITMAP 
00
00
00
00
12
12
12
0E
02
02
04
34
4C
44
00
00
ENDCHAR
STARTCHAR U+010490
ENCODING 66704
SWIDTH 1000 0
DWIDTH 16 0
BBX 16 16 0 -2
BITMAP 
0000
0000
0000
0000
0380
0440
0440
0440
0880
0888
0888
1110
1110
10E0
0000
0000
ENDCHAR
STARTCHAR U+010491
ENCODING 66705
SWIDTH 500 0
DWIDTH 8 0
BBX 8 16 0 -2
BITMAP 
00
00
00
00
10
10
10
1C
12
02
02
02
22
1C
00
00
ENDCHAR
STARTCHAR U+010492
ENCODING 66706
SWIDTH 500 0
DWIDTH 8 0
BBX 8 16 0 -2
BITMAP 
00
00
00
00
1C
22
02
02
0C
10
20
20
22
1C
00
00
ENDCHAR
STARTCHAR U+010493
ENCODING 66707
SWIDTH 1000 0
DWIDTH 16 0
BBX 16 16 0 -2
BITMAP 
0000
0000
0000
4400
4400
4C00
3580
0640
0844
0844
0888
1088
1088
1070
0000
0000
ENDCHAR
STARTCHAR U+010494
ENCODING 66708
SWIDTH 500 0
DWIDTH 8 0
BBX 8 16 0 -2
BITMAP 
00
00
00
00
22
22
11
11
0E
10
20
20
21
1E
00
00
ENDCHAR
STARTCHAR U+010495
ENCODING 66709
SWIDTH 500 0
DWIDTH 8 0
BBX 8 16 0 -2
BITMAP 
00
00
00
00
08
14
14
08
14
12
20
20
21
1E
00
00
ENDCHAR
STARTCHAR U+010496
ENCODING 66710
SWIDTH 500 0
DWIDTH 8 0
BBX 8 16 0 -2
BITMAP 
00
00
00
00
1C
22
20
20
18
04
02
02
22
1C
00
00
ENDCHAR
STARTCHAR U+010497
ENCODING 66711
SWIDTH 500 0
DWIDTH 8 0
BBX 8 16 0 -2
BITMAP 
00
00
00
00
20
20
20
20
20
20
22
22
22
1C
00
00
ENDCHAR
STARTCHAR U+010498
ENCODING 66712
SWIDTH 500 0
DWIDTH 8 0
BBX 8 16 0 -2
BITMAP 
00
00
00
00
3C
42
42
42
42
3E
02
02
04
18
00
00
ENDCHAR
STARTCHAR U+010499
ENCODING 66713
SWIDTH 500 0
DWIDTH 8 0
BBX 8 16 0 -2
BITMAP 
00
00
00
00
60
90
10
20
30
28
49
49
49
46
00
00
ENDCHAR
STARTCHAR U+01049A
ENCODING 66714
SWIDTH 500 0
DWIDTH 8 0
BBX 8 16 0 -2
BITMAP 
00
00
00
00
0E
11
01
01
02
02
02
3A
44
44
00
00
ENDCHAR
STARTCHAR U+01049B
ENCODING 66715
SWIDTH 500 0
DWIDTH 8 0
BBX 8 16 0 -2
BITMAP 
00
00
00
00
1C
22
20
20
20
24
1C
04
04
04
00
00
ENDCHAR
STARTCHAR U+01049C
ENCODING 66716
SWIDTH 500 0
DWIDTH 8 0
BBX 8 16 0 -2
BITMAP 
00
00
00
00
22
22
22
44
44
44
88
89
89
76
00
00
ENDCHAR
STARTCHAR U+01049D
ENCODING 66717
SWIDTH 1000 0
DWIDTH 16 0
BBX 16 16 0 -2
BITMAP 
0000
0000
0000
0000
3000
4800
4800
0EE0
1110
1110
1112
2222
2224
2218
0000
0000
ENDCHAR
STARTCHAR U+0104A0
ENCODING 66720
SWIDTH 500 0
DWIDTH 8 0
BBX 8 16 0 -2
BITMAP 
00
00
00
00
1C
22
22
41
41
41
41
22
22
1C
00
00
ENDCHAR
STARTCHAR U+0104A1
ENCODING 66721
SWIDTH 500 0
DWIDTH 8 0
BBX 8 16 0 -2
BITMAP 
00
00
00
00
07
08
08
08
04
04
02
02
02
1C
00
00
ENDCHAR
STARTCHAR U+0104A2
ENCODING 66722
SWIDTH 500 0
DWIDTH 8 0
BBX 8 16 0 -2
BITMAP 
00
00
00
00
1C
22
40
40
30
40
41
41
22
1C
00
00
ENDCHAR
STARTCHAR U+0104A3
ENCODING 66723
SWIDTH 500 0
DWIDTH 8 0
BBX 8 16 0 -2
BITMAP 
00
00
00
00
7E
10
20
20
30
48
48
49
49
46
00
00
ENDCHAR
STARTCHAR U+0104A4
ENCODING 66724
SWIDTH 500 0
DWIDTH 8 0
BBX 8 16 0 -2
BITMAP 
00
00
00
00
22
14
08
14
22
41
41
41
22
1C
00
00
ENDCHAR
STARTCHAR U+0104A5
ENCODING 66725
SWIDTH 500 0
DWIDTH 8 0
BBX 8 16 0 -2
BITMAP 
00
00
00
00
0C
12
12
1C
20
40
41
41
22
1C
00
00
ENDCHAR
STARTCHAR U+0104A6
ENCODING 66726
SWIDTH 500 0
DWIDTH 8 0
BBX 8 16 0 -2
BITMAP 
00
00
00
00
22
22
22
1C
04
04
08
08
08
30
00
00
ENDCHAR
STARTCHAR U+0104A7
ENCODING 66727
SWIDTH 500 0
DWIDTH 8 0
BBX 8 16 0 -2
BITMAP 
00
00
00
00
1C
22
01
01
01
02
02
02
44
38
00
00
ENDCHAR
STARTCHAR U+0104A8
ENCODING 66728
SWIDTH 500 0
DWIDTH 8 0
BBX 8 16 0 -2
BITMAP 
00
00
00
00
0E
11
20
20
20
40
40
40
22
1C
00
00
ENDCHAR
STARTCHAR U+0104A9
ENCODING 66729
SWIDTH 500 0
DWIDTH 8 0
BBX 8 16 0 -2
BITMAP 
00
00
00
00
11
11
11
22
22
22
44
44
44
38
00
00
ENDCHAR
STARTCHAR U+0104B0
ENCODING 66736
SWIDTH 500 0
DWIDTH 8 0
BBX 8 16 0 -2
BITMAP 
00
00
00
00
10
10
28
28
44
44
44
82
82
82
00
00
ENDCHAR
STARTCHAR U+0104B1
ENCODING 66737
SWIDTH 500 0
DWIDTH 8 0
BBX 8 16 0 -2
BITMAP 
00
00
00
00
10
10
28
28
44
44
54
92
92
92
00
00
ENDCHAR
STARTCHAR U+0104B2
ENCODING 66738
SWIDTH 500 0
DWIDTH 8 0
BBX 8 16 0 -2
BITMAP 
00
00
00
00
10
10
28
28
44
44
54
BA
92
82
00
00
ENDCHAR
STARTCHAR U+0104B3
ENCODING 66739
SWIDTH 500 0
DWIDTH 8 0
BBX 8 16 0 -2
BITMAP 
00
00
00
00
10
10
10
10
10
28
44
44
82
82
00
00
ENDCHAR
STARTCHAR U+0104B4
ENCODING 66740
SWIDTH 500 0
DWIDTH 8 0
BBX 8 16 0 -2
BITMAP 
00
00
00
00
40
40
5C
62
42
42
42
7C
48
44
02
01
ENDCHAR
STARTCHAR U+0104B5
ENCODING 66741
SWIDTH 500 0
DWIDTH 8 0
BBX 8 16 0 -2
BITMAP 
00
00
00
00
1C
22
40
40
44
4A
4A
52
52
32
00
00
ENDCHAR
STARTCHAR U+0104B6
ENCODING 66742
SWIDTH 500 0
DWIDTH 8 0
BBX 8 16 0 -2
BITMAP 
00
00
00
00
1C
22
40
40
44
4A
4A
52
57
32
00
00
ENDCHAR
STARTCHAR U+0104B7
ENCODING 66743
SWIDTH 500 0
DWIDTH 8 0
BBX 8 16 0 -2
BITMAP 
00
00
00
00
3A
46
44
44
44
44
44
44
46
3A
00
00
ENDCHAR
STARTCHAR U+0104B8
ENCODING 66744
SWIDTH 500 0
DWIDTH 8 0
BBX 8 16 0 -2
BITMAP 
00
00
00
00
3A
46
44
44
54
54
44
44
46
3A
00
00
ENDCHAR
STARTCHAR U+0104B9
ENCODING 66745
SWIDTH 500 0
DWIDTH 8 0
BBX 8 16 0 -2
BITMAP 
00
00
00
00
0E
10
10
10
08
04
02
42
42
3C
00
00
ENDCHAR
STARTCHAR U+0104BA
ENCODING 66746
SWIDTH 500 0
DWIDTH 8 0
BBX 8 16 0 -2
BITMAP 
00
00
00
00
02
0E
12
12
08
04
02
42
42
3C
00
00
ENDCHAR
STARTCHAR U+0104BB
ENCODING 66747
SWIDTH 500 0
DWIDTH 8 0
BBX 8 16 0 -2
BITMAP 
00
00
00
00
3C
42
42
42
42
42
42
42
42
42
00
00
ENDCHAR
STARTCHAR U+0104BC
ENCODING 66748
SWIDTH 500 0
DWIDTH 8 0
BBX 8 16 0 -2
BITMAP 
00
00
00
00
42
44
48
50
68
44
42
42
42
42
04
18
ENDCHAR
STARTCHAR U+0104BD
ENCODING 66749
SWIDTH 500 0
DWIDTH 8 0
BBX 8 16 0 -2
BITMAP 
00
00
00
00
42
E4
48
50
68
44
42
42
42
42
04
18
ENDCHAR
STARTCHAR U+0104BE
ENCODING 66750
SWIDTH 500 0
DWIDTH 8 0
BBX 8 16 0 -2
BITMAP 
00
00
00
00
42
44
48
50
68
44
42
42
42
4A
14
0A
ENDCHAR
STARTCHAR U+0104BF
ENCODING 66751
SWIDTH 500 0
DWIDTH 8 0
BBX 8 16 0 -2
BITMAP 
00
00
00
00
0E
30
40
40
40
40
40
42
42
3C
00
00
ENDCHAR
STARTCHAR U+0104C0
ENCODING 66752
SWIDTH 500 0
DWIDTH 8 0
BBX 8 16 0 -2
BITMAP 
00
00
00
00
6C
92
AA
A8
A8
90
80
80
80
80
00
00
ENDCHAR
STARTCHAR U+0104C1
ENCODING 66753
SWIDTH 500 0
DWIDTH 8 0
BBX 8 16 0 -2
BITMAP 
00
00
00
00
10
10
20
20
60
60
60
90
92
8C
00
00
ENDCHAR
STARTCHAR U+0104C2
ENCODING 66754
SWIDTH 500 0
DWIDTH 8 0
BBX 8 16 0 -2
BITMAP 
00
00
00
00
7C
82
82
82
82
82
82
82
82
7C
00
00
ENDCHAR
STARTCHAR U+0104C3
ENCODING 66755
SWIDTH 500 0
DWIDTH 8 0
BBX 8 16 0 -2
BITMAP 
00
00
00
00
7C
82
82
82
92
92
82
82
82
7C
00
00
ENDCHAR
STARTCHAR U+0104C4
ENCODING 66756
SWIDTH 500 0
DWIDTH 8 0
BBX 8 16 0 -2
BITMAP 
00
00
00
00
40
40
5C
62
42
42
62
5C
40
40
00
00
ENDCHAR
STARTCHAR U+0104C5
ENCODING 66757
SWIDTH 500 0
DWIDTH 8 0
BBX 8 16 0 -2
BITMAP 
00
00
00
00
40
40
5C
62
F2
42
62
5C
40
40
00
00
ENDCHAR
STARTCHAR U+0104C6
ENCODING 66758
SWIDTH 500 0
DWIDTH 8 0
BBX 8 16 0 -2
BITMAP 
00
00
00
00
3A
46
42
42
40
40
40
40
30
0E
00
00
ENDCHAR
STARTCHAR U+0104C7
ENCODING 66759
SWIDTH 500 0
DWIDTH 8 0
BBX 8 16 0 -2
BITMAP 
00
00
00
00
38
44
44
40
20
10
3C
4A
4A
32
00
00
ENDCHAR
STARTCHAR U+0104C8
ENCODING 66760
SWIDTH 500 0
DWIDTH 8 0
BBX 8 16 0 -2
BITMAP 
00
00
00
00
78
0C
12
12
12
12
22
22
24
78
00
00
ENDCHAR
STARTCHAR U+0104C9
ENCODING 66761
SWIDTH 500 0
DWIDTH 8 0
BBX 8 16 0 -2
BITMAP 
00
00
00
00
78
0C
12
12
7A
12
22
22
24
78
00
00
ENDCHAR
STARTCHAR U+0104CA
ENCODING 66762
SWIDTH 500 0
DWIDTH 8 0
BBX 8 16 0 -2
BITMAP 
00
00
00
00
7C
12
12
12
1C
30
40
40
40
42
42
3C
ENDCHAR
STARTCHAR U+0104CB
ENCODING 66763
SWIDTH 500 0
DWIDTH 8 0
BBX 8 16 0 -2
BITMAP 
00
00
00
00
7C
12
3A
12
1C
30
40
40
40
42
42
3C
ENDCHAR
STARTCHAR U+0104CC
ENCODING 66764
SWIDTH 500 0
DWIDTH 8 0
BBX 8 16 0 -2
BITMAP 
00
00
00
00
7C
12
12
12
1C
30
40
40
F0
42
42
3C
ENDCHAR
STARTCHAR U+0104CD
ENCODING 66765
SWIDTH 500 0
DWIDTH 8 0
BBX 8 16 0 -2
BITMAP 
00
00
00
00
FE
20
20
2C
32
22
22
22
22
22
00
00
ENDCHAR
STARTCHAR U+0104CE
ENCODING 66766
SWIDTH 500 0
DWIDTH 8 0
BBX 8 16 0 -2
BITMAP 
00
00
00
00
42
42
42
42
42
42
42
42
42
3C
00
00
ENDCHAR
STARTCHAR U+0104CF
ENCODING 66767
SWIDTH 500 0
DWIDTH 8 0
BBX 8 16 0 -2
BITMAP 
00
00
00
00
10
10
20
20
7E
02
04
04
08
08
00
00
ENDCHAR
STARTCHAR U+0104D0
ENCODING 66768
SWIDTH 500 0
DWIDTH 8 0
BBX 8 16 0 -2
BITMAP 
00
00
00
00
10
10
10
10
7C
92
92
92
92
92
00
00
ENDCHAR
STARTCHAR U+0104D1
ENCODING 66769
SWIDTH 500 0
DWIDTH 8 0
BBX 8 16 0 -2
BITMAP 
00
00
00
00
92
92
92
92
92
7C
10
10
10
10
00
00
ENDCHAR
STARTCHAR U+0104D2
ENCODING 66770
SWIDTH 500 0
DWIDTH 8 0
BBX 8 16 0 -2
BITMAP 
00
00
00
00
7E
02
02
04
08
10
20
40
40
40
00
00
ENDCHAR
STARTCHAR U+0104D3
ENCODING 66771
SWIDTH 500 0
DWIDTH 8 0
BBX 8 16 0 -2
BITMAP 
00
00
00
00
7E
02
02
04
08
10
20
78
44
42
00
00
ENDCHAR
STARTCHAR U+0104D8
ENCODING 66776
SWIDTH 500 0
DWIDTH 8 0
BBX 8 16 0 -2
BITMAP 
00
00
00
00
00
00
10
10
28
28
44
44
82
82
00
00
ENDCHAR
STARTCHAR U+0104D9
ENCODING 66777
SWIDTH 500 0
DWIDTH 8 0
BBX 8 16 0 -2
BITMAP 
00
00
00
00
00
00
10
10
28
28
44
54
92
92
00
00
ENDCHAR
STARTCHAR U+0104DA
ENCODING 66778
SWIDTH 500 0
DWIDTH 8 0
BBX 8 16 0 -2
BITMAP 
00
00
00
00
00
00
10
10
28
28
44
54
BA
92
00
00
ENDCHAR
STARTCHAR U+0104DB
ENCODING 66779
SWIDTH 500 0
DWIDTH 8 0
BBX 8 16 0 -2
BITMAP 
00
00
00
00
20
20
10
10
08
18
24
24
42
42
00
00
ENDCHAR
STARTCHAR U+0104DC
ENCODING 66780
SWIDTH 500 0
DWIDTH 8 0
BBX 8 16 0 -2
BITMAP 
00
00
00
00
00
00
40
7C
42
42
42
7C
48
44
02
01
ENDCHAR
STARTCHAR U+0104DD
ENCODING 66781
SWIDTH 500 0
DWIDTH 8 0
BBX 8 16 0 -2
BITMAP 
00
00
00
00
00
00
1C
22
40
44
4A
52
52
32
00
00
ENDCHAR
STARTCHAR U+0104DE
ENCODING 66782
SWIDTH 500 0
DWIDTH 8 0
BBX 8 16 0 -2
BITMAP 
00
00
00
00
00
00
1C
22
40
44
4A
52
57
32
00
00
ENDCHAR
STARTCHAR U+0104DF
ENCODING 66783
SWIDTH 500 0
DWIDTH 8 0
BBX 8 16 0 -2
BITMAP 
00
00
00
00
00
00
3A
46
44
44
44
44
46
3A
00
00
ENDCHAR
STARTCHAR U+0104E0
ENCODING 66784
SWIDTH 500 0
DWIDTH 8 0
BBX 8 16 0 -2
BITMAP 
00
00
00
00
00
00
3A
46
44
54
54
44
46
3A
00
00
ENDCHAR
STARTCHAR U+0104E1
ENCODING 66785
SWIDTH 500 0
DWIDTH 8 0
BBX 8 16 0 -2
BITMAP 
00
00
00
00
00
00
06
08
08
04
04
42
42
3C
00
00
ENDCHAR
STARTCHAR U+0104E2
ENCODING 66786
SWIDTH 500 0
DWIDTH 8 0
BBX 8 16 0 -2
BITMAP 
00
00
00
00
00
00
02
0E
12
08
04
02
42
3C
00
00
ENDCHAR
STARTCHAR U+0104E3
ENCODING 66787
SWIDTH 500 0
DWIDTH 8 0
BBX 8 16 0 -2
BITMAP 
00
00
00
00
00
00
3C
42
42
42
42
42
42
42
00
00
ENDCHAR
STARTCHAR U+0104E4
ENCODING 66788
SWIDTH 500 0
DWIDTH 8 0
BBX 8 16 0 -2
BITMAP 
00
00
00
40
40
40
42
44
48
50
68
44
42
42
04
18
ENDCHAR
STARTCHAR U+0104E5
ENCODING 66789
SWIDTH 500 0
DWIDTH 8 0
BBX 8 16 0 -2
BITMAP 
00
00
00
40
F0
40
42
44
48
50
68
44
42
42
04
18
ENDCHAR
STARTCHAR U+0104E6
ENCODING 66790
SWIDTH 500 0
DWIDTH 8 0
BBX 8 16 0 -2
BITMAP 
00
00
00
40
40
40
42
44
48
50
68
44
42
4A
14
0A
ENDCHAR
STARTCHAR U+0104E7
ENCODING 66791
SWIDTH 500 0
DWIDTH 8 0
BBX 8 16 0 -2
BITMAP 
00
00
00
00
00
00
0E
30
40
40
40
42
42
3C
00
00
ENDCHAR
STARTCHAR U+0104E8
ENCODING 66792
SWIDTH 500 0
DWIDTH 8 0
BBX 8 16 0 -2
BITMAP 
00
00
00
00
00
00
36
49
55
54
54
48
40
40
00
00
ENDCHAR
STARTCHAR U+0104E9
ENCODING 66793
SWIDTH 500 0
DWIDTH 8 0
BBX 8 16 0 -2
BITMAP 
00
00
00
00
00
00
10
10
20
20
60
60
92
8C
00
00
ENDCHAR
STARTCHAR U+0104EA
ENCODING 66794
SWIDTH 500 0
DWIDTH 8 0
BBX 8 16 0 -2
BITMAP 
00
00
00
00
00
00
7C
82
82
82
82
82
82
7C
00
00
ENDCHAR
STARTCHAR U+0104EB
ENCODING 66795
SWIDTH 500 0
DWIDTH 8 0
BBX 8 16 0 -2
BITMAP 
00
00
00
00
00
00
7C
82
82
92
92
82
82
7C
00
00
ENDCHAR
STARTCHAR U+0104EC
ENCODING 66796
SWIDTH 500 0
DWIDTH 8 0
BBX 8 16 0 -2
BITMAP 
00
00
00
00
00
00
40
7C
42
42
42
7C
40
40
00
00
ENDCHAR
STARTCHAR U+0104ED
ENCODING 66797
SWIDTH 500 0
DWIDTH 8 0
BBX 8 16 0 -2
BITMAP 
00
00
00
00
00
00
40
7C
42
F2
42
7C
40
40
00
00
ENDCHAR
STARTCHAR U+0104EE
ENCODING 66798
SWIDTH 500 0
DWIDTH 8 0
BBX 8 16 0 -2
BITMAP 
00
00
00
00
00
00
3A
46
42
42
40
40
20
10
08
06
ENDCHAR
STARTCHAR U+0104EF
ENCODING 66799
SWIDTH 500 0
DWIDTH 8 0
BBX 8 16 0 -2
BITMAP 
00
00
00
00
00
00
38
44
40
20
10
3C
4A
32
00
00
ENDCHAR
STARTCHAR U+0104F0
ENCODING 66800
SWIDTH 500 0
DWIDTH 8 0
BBX 8 16 0 -2
BITMAP 
00
00
00
00
00
00
78
0C
12
12
12
22
24
78
00
00
ENDCHAR
STARTCHAR U+0104F1
ENCODING 66801
SWIDTH 500 0
DWIDTH 8 0
BBX 8 16 0 -2
BITMAP 
00
00
00
00
00
00
78
0C
12
7A
12
22
24
78
00
00
ENDCHAR
STARTCHAR U+0104F2
ENCODING 66802
SWIDTH 500 0
DWIDTH 8 0
BBX 8 16 0 -2
BITMAP 
00
00
00
00
00
00
7C
12
12
12
1C
30
40
42
42
3C
ENDCHAR
STARTCHAR U+0104F3
ENCODING 66803
SWIDTH 500 0
DWIDTH 8 0
BBX 8 16 0 -2
BITMAP 
00
00
00
00
00
00
7C
12
3A
12
1C
30
40
42
42
3C
ENDCHAR
STARTCHAR U+0104F4
ENCODING 66804
SWIDTH 500 0
DWIDTH 8 0
BBX 8 16 0 -2
BITMAP 
00
00
00
00
00
00
7C
12
12
12
1C
30
40
F2
42
3C
ENDCHAR
STARTCHAR U+0104F5
ENCODING 66805
SWIDTH 500 0
DWIDTH 8 0
BBX 8 16 0 -2
BITMAP 
00
00
00
00
00
00
FE
20
20
2C
32
22
22
22
00
00
ENDCHAR
STARTCHAR U+0104F6
ENCODING 66806
SWIDTH 500 0
DWIDTH 8 0
BBX 8 16 0 -2
BITMAP 
00
00
00
00
00
00
42
42
42
42
42
42
42
3C
00
00
ENDCHAR
STARTCHAR U+0104F7
ENCODING 66807
SWIDTH 500 0
DWIDTH 8 0
BBX 8 16 0 -2
BITMAP 
00
00
00
00
00
00
10
20
20
7E
02
04
04
08
00
00
ENDCHAR
STARTCHAR U+0104F8
ENCODING 66808
SWIDTH 500 0
DWIDTH 8 0
BBX 8 16 0 -2
BITMAP 
00
00
00
00
10
10
7C
92
92
92
92
92
10
10
10
10
ENDCHAR
STARTCHAR U+0104F9
ENCODING 66809
SWIDTH 500 0
DWIDTH 8 0
BBX 8 16 0 -2
BITMAP 
00
00
00
00
10
10
92
92
92
92
92
7C
10
10
10
10
ENDCHAR
STARTCHAR U+0104FA
ENCODING 66810
SWIDTH 500 0
DWIDTH 8 0
BBX 8 16 0 -2
BITMAP 
00
00
00
00
00
00
7E
02
04
08
10
20
40
40
00
00
ENDCHAR
STARTCHAR U+0104FB
ENCODING 66811
SWIDTH 500 0
DWIDTH 8 0
BBX 8 16 0 -2
BITMAP 
00
00
00
00
00
00
7E
02
04
08
10
20
7C
42
00
00
ENDCHAR
STARTCHAR U+010500
ENCODING 66816
SWIDTH 500 0
DWIDTH 8 0
BBX 8 16 0 -2
BITMAP 
00
00
00
00
00
00
00
22
44
88
F8
88
44
22
00
00
ENDCHAR
STARTCHAR U+010501
ENCODING 66817
SWIDTH 500 0
DWIDTH 8 0
BBX 8 16 0 -2
BITMAP 
00
00
00
00
00
00
00
82
44
28
10
28
44
FE
00
00
ENDCHAR
STARTCHAR U+010502
ENCODING 66818
SWIDTH 500 0
DWIDTH 8 0
BBX 8 16 0 -2
BITMAP 
00
00
00
00
60
18
04
02
02
42
42
44
78
40
40
40
ENDCHAR
STARTCHAR U+010503
ENCODING 66819
SWIDTH 500 0
DWIDTH 8 0
BBX 8 16 0 -2
BITMAP 
00
00
00
02
02
02
02
02
C2
22
22
22
22
1C
00
00
ENDCHAR
STARTCHAR U+010504
ENCODING 66820
SWIDTH 500 0
DWIDTH 8 0
BBX 8 16 0 -2
BITMAP 
00
00
00
02
02
02
02
02
02
82
82
82
82
FE
00
00
ENDCHAR
STARTCHAR U+010505
ENCODING 66821
SWIDTH 500 0
DWIDTH 8 0
BBX 8 16 0 -2
BITMAP 
00
00
00
02
02
02
02
82
02
82
82
82
82
FE
00
00
ENDCHAR
STARTCHAR U+010506
ENCODING 66822
SWIDTH 500 0
DWIDTH 8 0
BBX 8 16 0 -2
BITMAP 
00
00
00
00
00
00
00
FE
44
44
28
28
10
10
00
00
ENDCHAR
STARTCHAR U+010507
ENCODING 66823
SWIDTH 500 0
DWIDTH 8 0
BBX 8 16 0 -2
BITMAP 
00
00
00
00
00
00
00
FE
04
08
10
20
40
FE
00
00
ENDCHAR
STARTCHAR U+010508
ENCODING 66824
SWIDTH 500 0
DWIDTH 8 0
BBX 8 16 0 -2
BITMAP 
00
00
00
00
00
00
00
18
20
40
7C
04
04
04
04
04
ENDCHAR
STARTCHAR U+010509
ENCODING 66825
SWIDTH 500 0
DWIDTH 8 0
BBX 8 16 0 -2
BITMAP 
00
00
00
00
00
00
00
40
40
40
7C
42
42
7C
00
00
ENDCHAR
STARTCHAR U+01050A
ENCODING 66826
SWIDTH 500 0
DWIDTH 8 0
BBX 8 16 0 -2
BITMAP 
00
00
00
00
00
00
00
F8
10
20
24
42
42
3C
00
00
ENDCHAR
STARTCHAR U+01050B
ENCODING 66827
SWIDTH 500 0
DWIDTH 8 0
BBX 8 16 0 -2
BITMAP 
00
00
00
00
00
00
00
60
8C
92
92
92
92
7C
10
10
ENDCHAR
STARTCHAR U+01050C
ENCODING 66828
SWIDTH 500 0
DWIDTH 8 0
BBX 8 16 0 -2
BITMAP 
00
00
00
00
00
00
00
30
40
80
88
48
38
08
08
06
ENDCHAR
STARTCHAR U+01050D
ENCODING 66829
SWIDTH 500 0
DWIDTH 8 0
BBX 8 16 0 -2
BITMAP 
00
00
00
00
00
00
00
82
86
8A
92
A2
C2
82
00
00
ENDCHAR
STARTCHAR U+01050E
ENCODING 66830
SWIDTH 500 0
DWIDTH 8 0
BBX 8 16 0 -2
BITMAP 
00
00
00
00
00
00
00
10
10
10
10
10
10
10
00
00
ENDCHAR
STARTCHAR U+01050F
ENCODING 66831
SWIDTH 500 0
DWIDTH 8 0
BBX 8 16 0 -2
BITMAP 
00
00
00
00
00
00
00
7E
40
40
40
40
40
40
00
00
ENDCHAR
STARTCHAR U+010510
ENCODING 66832
SWIDTH 500 0
DWIDTH 8 0
BBX 8 16 0 -2
BITMAP 
00
00
00
00
00
00
00
10
10
28
28
44
44
82
00
00
ENDCHAR
STARTCHAR U+010511
ENCODING 66833
SWIDTH 500 0
DWIDTH 8 0
BBX 8 16 0 -2
BITMAP 
00
00
00
00
00
10
00
10
10
28
28
44
44
82
00
00
ENDCHAR
STARTCHAR U+010512
ENCODING 66834
SWIDTH 500 0
DWIDTH 8 0
BBX 8 16 0 -2
BITMAP 
00
00
00
00
00
00
80
80
FE
82
82
82
82
82
00
00
ENDCHAR
STARTCHAR U+010513
ENCODING 66835
SWIDTH 500 0
DWIDTH 8 0
BBX 8 16 0 -2
BITMAP 
00
00
00
00
00
00
00
82
C2
A2
92
8A
86
82
00
00
ENDCHAR
STARTCHAR U+010514
ENCODING 66836
SWIDTH 500 0
DWIDTH 8 0
BBX 8 16 0 -2
BITMAP 
00
00
00
00
00
00
00
02
06
0A
12
22
42
7A
02
02
ENDCHAR
STARTCHAR U+010515
ENCODING 66837
SWIDTH 500 0
DWIDTH 8 0
BBX 8 16 0 -2
BITMAP 
00
00
00
00
00
00
00
7E
02
02
02
02
02
02
00
00
ENDCHAR
STARTCHAR U+010516
ENCODING 66838
SWIDTH 500 0
DWIDTH 8 0
BBX 8 16 0 -2
BITMAP 
00
00
00
00
00
00
00
38
44
82
82
82
44
38
00
00
ENDCHAR
STARTCHAR U+010517
ENCODING 66839
SWIDTH 500 0
DWIDTH 8 0
BBX 8 16 0 -2
BITMAP 
00
00
00
00
00
00
00
7E
42
42
42
42
42
42
00
00
ENDCHAR
STARTCHAR U+010518
ENCODING 66840
SWIDTH 500 0
DWIDTH 8 0
BBX 8 16 0 -2
BITMAP 
00
00
00
00
00
00
00
44
48
50
70
48
44
44
00
00
ENDCHAR
STARTCHAR U+010519
ENCODING 66841
SWIDTH 500 0
DWIDTH 8 0
BBX 8 16 0 -2
BITMAP 
00
00
00
00
00
00
00
82
82
82
82
82
FE
02
02
02
ENDCHAR
STARTCHAR U+01051A
ENCODING 66842
SWIDTH 500 0
DWIDTH 8 0
BBX 8 16 0 -2
BITMAP 
00
00
00
00
00
10
00
82
82
82
82
82
FE
02
02
02
ENDCHAR
STARTCHAR U+01051B
ENCODING 66843
SWIDTH 500 0
DWIDTH 8 0
BBX 8 16 0 -2
BITMAP 
00
00
00
00
00
00
00
3C
42
40
40
40
42
3C
00
00
ENDCHAR
STARTCHAR U+01051C
ENCODING 66844
SWIDTH 500 0
DWIDTH 8 0
BBX 8 16 0 -2
BITMAP 
00
00
00
00
00
00
00
7E
42
42
7E
42
42
42
00
00
ENDCHAR
STARTCHAR U+01051D
ENCODING 66845
SWIDTH 500 0
DWIDTH 8 0
BBX 8 16 0 -2
BITMAP 
00
00
00
00
00
00
00
82
44
44
28
28
10
10
00
00
ENDCHAR
STARTCHAR U+01051E
ENCODING 66846
SWIDTH 500 0
DWIDTH 8 0
BBX 8 16 0 -2
BITMAP 
00
00
00
38
44
44
82
82
FE
82
82
44
44
38
00
00
ENDCHAR
STARTCHAR U+01051F
ENCODING 66847
SWIDTH 500 0
DWIDTH 8 0
BBX 8 16 0 -2
BITMAP 
00
00
00
00
00
00
00
44
28
10
28
44
44
38
00
00
ENDCHAR
STARTCHAR U+010520
ENCODING 66848
SWIDTH 500 0
DWIDTH 8 0
BBX 8 16 0 -2
BITMAP 
00
00
00
00
00
00
00
82
82
82
82
82
FE
80
80
80
ENDCHAR
STARTCHAR U+010521
ENCODING 66849
SWIDTH 500 0
DWIDTH 8 0
BBX 8 16 0 -2
BITMAP 
00
00
00
00
00
00
00
40
40
4C
52
62
44
48
10
20
ENDCHAR
STARTCHAR U+010522
ENCODING 66850
SWIDTH 500 0
DWIDTH 8 0
BBX 8 16 0 -2
BITMAP 
00
00
00
1C
22
22
02
44
28
10
28
44
44
38
00
00
ENDCHAR
STARTCHAR U+010523
ENCODING 66851
SWIDTH 500 0
DWIDTH 8 0
BBX 8 16 0 -2
BITMAP 
00
00
00
00
00
00
00
1E
20
40
40
3C
02
02
42
3C
ENDCHAR
STARTCHAR U+010524
ENCODING 66852
SWIDTH 500 0
DWIDTH 8 0
BBX 8 16 0 -2
BITMAP 
00
00
00
00
00
00
00
42
42
42
42
46
3A
02
42
3C
ENDCHAR
STARTCHAR U+010525
ENCODING 66853
SWIDTH 500 0
DWIDTH 8 0
BBX 8 16 0 -2
BITMAP 
00
00
00
00
00
00
00
7E
40
40
7E
40
40
40
00
00
ENDCHAR
STARTCHAR U+010526
ENCODING 66854
SWIDTH 500 0
DWIDTH 8 0
BBX 8 16 0 -2
BITMAP 
00
00
00
00
00
00
00
20
20
20
20
20
20
3C
00
00
ENDCHAR
STARTCHAR U+010527
ENCODING 66855
SWIDTH 500 0
DWIDTH 8 0
BBX 8 16 0 -2
BITMAP 
00
00
00
00
00
00
00
21
21
12
14
08
14
24
40
80
ENDCHAR
STARTCHAR U+010530
ENCODING 66864
SWIDTH 1000 0
DWIDTH 16 0
BBX 16 16 0 -2
BITMAP 
0000
0FC0
1CE0
3870
3870
1CE0
07C0
0100
0200
07F0
1C38
1818
0000
0000
0000
0000
ENDCHAR
STARTCHAR U+010531
ENCODING 66865
SWIDTH 1000 0
DWIDTH 16 0
BBX 16 16 0 -2
BITMAP 
0000
3800
3FF0
3830
3820
3800
3FC0
3C70
3838
3838
1C70
0FE0
0000
0000
0000
0000
ENDCHAR
STARTCHAR U+010532
ENCODING 66866
SWIDTH 1000 0
DWIDTH 16 0
BBX 16 16 0 -2
BITMAP 
0000
0FF0
1C38
3838
3800
3800
3800
1C00
0FC0
01C0
01C0
01C0
0000
0000
0000
0000
ENDCHAR
STARTCHAR U+010533
ENCODING 66867
SWIDTH 1000 0
DWIDTH 16 0
BBX 16 16 0 -2
BITMAP 
0000
07C0
1C70
3838
3838
3838
1C70
07C0
0380
0380
0380
0380
0000
0000
0000
0000
ENDCHAR
STARTCHAR U+010534
ENCODING 66868
SWIDTH 1000 0
DWIDTH 16 0
BBX 16 16 0 -2
BITMAP 
0000
01C0
01C0
01C0
01C0
01C0
01FE
61C6
E1C4
7380
7380
1E00
0000
0000
0000
0000
ENDCHAR
STARTCHAR U+010535
ENCODING 66869
SWIDTH 1000 0
DWIDTH 16 0
BBX 16 16 0 -2
BITMAP 
0000
0E00
0E00
0E00
0700
03C0
00F0
0070
1838
3838
1C70
0FE0
0000
0000
0000
0000
ENDCHAR
STARTCHAR U+010536
ENCODING 66870
SWIDTH 1000 0
DWIDTH 16 0
BBX 16 16 0 -2
BITMAP 
0000
3FF8
3818
3810
3800
3800
3800
3800
3800
3800
1C00
0FF8
0018
0010
0000
0000
ENDCHAR
STARTCHAR U+010537
ENCODING 66871
SWIDTH 1000 0
DWIDTH 16 0
BBX 16 16 0 -2
BITMAP 
0000
3F80
39C0
38E0
38E0
39C0
3F80
3800
3FF8
3818
3810
3800
3000
0000
0000
0000
ENDCHAR
STARTCHAR U+010538
ENCODING 66872
SWIDTH 1000 0
DWIDTH 16 0
BBX 16 16 0 -2
BITMAP 
0008
03F8
0F78
1C38
0E38
0038
0038
1838
3838
3838
1C70
0FE0
0000
0000
0000
0000
ENDCHAR
STARTCHAR U+010539
ENCODING 66873
SWIDTH 1000 0
DWIDTH 16 0
BBX 16 16 0 -2
BITMAP 
0000
E000
E000
E000
E000
E000
E000
E000
E180
EF8E
FB8E
F3DE
C0F8
0000
0000
0000
ENDCHAR
STARTCHAR U+01053A
ENCODING 66874
SWIDTH 1000 0
DWIDTH 16 0
BBX 16 16 0 -2
BITMAP 
0000
1000
3000
3FF8
0038
0038
0038
0038
0038
0038
0038
0038
0038
0000
0000
0000
ENDCHAR
STARTCHAR U+01053B
ENCODING 66875
SWIDTH 1000 0
DWIDTH 16 0
BBX 16 16 0 -2
BITMAP 
0000
0008
0018
0020
0040
0080
0100
0380
05C0
08E0
1070
3020
0000
0000
0000
0000
ENDCHAR
STARTCHAR U+01053C
ENCODING 66876
SWIDTH 1000 0
DWIDTH 16 0
BBX 16 16 0 -2
BITMAP 
0000
3838
3838
3838
3838
1C38
0FF8
0038
0038
0038
0038
0038
0038
0000
0000
0000
ENDCHAR
STARTCHAR U+01053D
ENCODING 66877
SWIDTH 1000 0
DWIDTH 16 0
BBX 16 16 0 -2
BITMAP 
0000
1800
3800
3800
3800
3800
3FC0
3C70
3838
3838
3C70
1FE0
0000
0000
0000
0000
ENDCHAR
STARTCHAR U+01053E
ENCODING 66878
SWIDTH 1000 0
DWIDTH 16 0
BBX 16 16 0 -2
BITMAP 
0000
0FE0
1C70
3838
3838
3838
0038
0038
0038
0038
0038
0038
0000
0000
0000
0000
ENDCHAR
STARTCHAR U+01053F
ENCODING 66879
SWIDTH 1000 0
DWIDTH 16 0
BBX 16 16 0 -2
BITMAP 
0000
0180
0380
0380
0380
0380
0380
0380
0380
1380
3380
3FF8
0018
0010
0000
0000
ENDCHAR
STARTCHAR U+010540
ENCODING 66880
SWIDTH 1000 0
DWIDTH 16 0
BBX 16 16 0 -2
BITMAP 
0000
0038
07F8
1E38
3C38
1E38
07F8
0038
0038
0038
0038
0038
0000
0000
0000
0000
ENDCHAR
STARTCHAR U+010541
ENCODING 66881
SWIDTH 1000 0
DWIDTH 16 0
BBX 16 16 0 -2
BITMAP 
0000
3000
3800
3800
3800
3FF0
3878
3838
3838
3800
3800
3800
0000
0000
0000
0000
ENDCHAR
STARTCHAR U+010542
ENCODING 66882
SWIDTH 1000 0
DWIDTH 16 0
BBX 16 16 0 -2
BITMAP 
0000
3F00
7380
E1C0
E1C0
7380
1F00
0400
0800
1F8E
738E
61DC
00F8
0000
0000
0000
ENDCHAR
STARTCHAR U+010543
ENCODING 66883
SWIDTH 1000 0
DWIDTH 16 0
BBX 16 16 0 -2
BITMAP 
0000
3800
3800
3800
3FE0
3870
3838
3838
3870
3800
3800
3800
1FF0
0030
0010
0000
ENDCHAR
STARTCHAR U+010544
ENCODING 66884
SWIDTH 1000 0
DWIDTH 16 0
BBX 16 16 0 -2
BITMAP 
0000
3FF8
3818
1C10
0E00
0700
0380
0700
0E00
1C00
3800
3FF8
0018
0010
0000
0000
ENDCHAR
STARTCHAR U+010545
ENCODING 66885
SWIDTH 1000 0
DWIDTH 16 0
BBX 16 16 0 -2
BITMAP 
0000
3FFE
71C6
E0E4
E0E0
E0E0
00E0
00E0
00E0
00E0
00E0
00E0
0000
0000
0000
0000
ENDCHAR
STARTCHAR U+010546
ENCODING 66886
SWIDTH 1000 0
DWIDTH 16 0
BBX 16 16 0 -2
BITMAP 
0000
03E0
0070
0070
0070
0078
0038
0030
00C0
0300
0C00
3000
3800
0000
0000
0000
ENDCHAR
STARTCHAR U+010547
ENCODING 66887
SWIDTH 1000 0
DWIDTH 16 0
BBX 16 16 0 -2
BITMAP 
0000
0018
0038
0038
1038
3038
3FF8
0038
0038
0038
0038
0030
0000
0000
0000
0000
ENDCHAR
STARTCHAR U+010548
ENCODING 66888
SWIDTH 1000 0
DWIDTH 16 0
BBX 16 16 0 -2
BITMAP 
0000
3800
3800
1F1C
071C
071C
071C
071C
071C
071C
071C
03B8
01F0
0000
0000
0000
ENDCHAR
STARTCHAR U+010549
ENCODING 66889
SWIDTH 1000 0
DWIDTH 16 0
BBX 16 16 0 -2
BITMAP 
0000
E380
E380
E380
E380
E380
E380
E380
E3FE
E380
E380
7700
3E00
0000
0000
0000
ENDCHAR
STARTCHAR U+01054A
ENCODING 66890
SWIDTH 1000 0
DWIDTH 16 0
BBX 16 16 0 -2
BITMAP 
0000
0FC0
39C0
71C0
39C0
0FC0
01C0
1FFE
71C6
E1C0
7380
3F00
0000
0000
0000
0000
ENDCHAR
STARTCHAR U+01054B
ENCODING 66891
SWIDTH 1000 0
DWIDTH 16 0
BBX 16 16 0 -2
BITMAP 
0000
0F00
1C00
3800
1C00
0FF8
0030
0060
0780
1C18
3838
3838
1C70
07C0
0000
0000
ENDCHAR
STARTCHAR U+01054C
ENCODING 66892
SWIDTH 1000 0
DWIDTH 16 0
BBX 16 16 0 -2
BITMAP 
0000
1F80
7380
E380
E380
7380
1F80
0380
0380
4380
C380
FFFE
0006
0004
0000
0000
ENDCHAR
STARTCHAR U+01054D
ENCODING 66893
SWIDTH 1000 0
DWIDTH 16 0
BBX 16 16 0 -2
BITMAP 
0000
0FE0
1C70
3838
3870
1CE0
0FC0
0380
0700
0E00
1C00
3C38
1FF8
0078
0000
0000
ENDCHAR
STARTCHAR U+01054E
ENCODING 66894
SWIDTH 1000 0
DWIDTH 16 0
BBX 16 16 0 -2
BITMAP 
0000
3800
3800
1F38
0738
0738
03B8
01F8
0038
0038
0038
0038
0000
0000
0000
0000
ENDCHAR
STARTCHAR U+01054F
ENCODING 66895
SWIDTH 1000 0
DWIDTH 16 0
BBX 16 16 0 -2
BITMAP 
0000
01C0
01C0
01C0
01C0
01C0
01FE
61C0
E1C0
7380
7380
1E00
0000
0000
0000
0000
ENDCHAR
STARTCHAR U+010550
ENCODING 66896
SWIDTH 1000 0
DWIDTH 16 0
BBX 16 16 0 -2
BITMAP 
2000
6000
7FC0
01C0
01C0
01C0
01C0
1FFE
71C6
E1C4
7380
3F00
0000
0000
0000
0000
ENDCHAR
STARTCHAR U+010551
ENCODING 66897
SWIDTH 1000 0
DWIDTH 16 0
BBX 16 16 0 -2
BITMAP 
0000
0780
1CE0
38E0
38E0
1CE0
07E0
00E0
00E0
00E8
00F0
00E0
0000
0000
0000
0000
ENDCHAR
STARTCHAR U+010552
ENCODING 66898
SWIDTH 1000 0
DWIDTH 16 0
BBX 16 16 0 -2
BITMAP 
0000
1F00
3180
71C0
E0E0
E0E0
E0FE
E0E6
E0E4
71C0
3180
1F00
0000
0000
0000
0000
ENDCHAR
STARTCHAR U+010553
ENCODING 66899
SWIDTH 1000 0
DWIDTH 16 0
BBX 16 16 0 -2
BITMAP 
1000
3000
3FE0
0060
00E0
01C0
0380
0700
0E00
1C00
3800
3FF8
0018
0010
0000
0000
ENDCHAR
STARTCHAR U+010554
ENCODING 66900
SWIDTH 1000 0
DWIDTH 16 0
BBX 16 16 0 -2
BITMAP 
4000
C000
FFFE
0386
0384
0380
0380
6380
E380
7700
7700
1C00
0000
0000
0000
0000
ENDCHAR
STARTCHAR U+010555
ENCODING 66901
SWIDTH 1000 0
DWIDTH 16 0
BBX 16 16 0 -2
BITMAP 
0000
0008
0018
0020
0040
0080
0100
0200
0798
0998
10F0
3000
0000
0000
0000
0000
ENDCHAR
STARTCHAR U+010556
ENCODING 66902
SWIDTH 1000 0
DWIDTH 16 0
BBX 16 16 0 -2
BITMAP 
2000
3000
3FE0
01C0
01C0
00E0
0070
0038
0038
1070
18E0
1FC0
0000
0000
0000
0000
ENDCHAR
STARTCHAR U+010557
ENCODING 66903
SWIDTH 1000 0
DWIDTH 16 0
BBX 16 16 0 -2
BITMAP 
0000
1F80
7380
E380
7380
1FFC
038E
0386
038E
039C
0380
0380
0000
0000
0000
0000
ENDCHAR
STARTCHAR U+010558
ENCODING 66904
SWIDTH 1000 0
DWIDTH 16 0
BBX 16 16 0 -2
BITMAP 
0000
00F8
1F98
1C10
0700
0380
01C0
00E0
18E0
38E0
1DC0
0700
0000
0000
0000
0000
ENDCHAR
STARTCHAR U+010559
ENCODING 66905
SWIDTH 1000 0
DWIDTH 16 0
BBX 16 16 0 -2
BITMAP 
0000
0380
0380
0380
0380
0380
0380
0380
E38E
E38E
77DC
1CF0
0000
0000
0000
0000
ENDCHAR
STARTCHAR U+01055A
ENCODING 66906
SWIDTH 1000 0
DWIDTH 16 0
BBX 16 16 0 -2
BITMAP 
1000
3000
3FC0
01C0
0380
0380
03F0
07B8
0738
0738
0E38
0E38
0000
0000
0000
0000
ENDCHAR
STARTCHAR U+01055B
ENCODING 66907
SWIDTH 1000 0
DWIDTH 16 0
BBX 16 16 0 -2
BITMAP 
0000
E000
E000
E000
E000
FF8E
E38E
E1DC
E070
E000
E000
E000
0000
0000
0000
0000
ENDCHAR
STARTCHAR U+01055C
ENCODING 66908
SWIDTH 1000 0
DWIDTH 16 0
BBX 16 16 0 -2
BITMAP 
4000
C000
FF00
0700
0700
0700
0700
07F0
079C
470E
CF9C
FBF8
0000
0000
0000
0000
ENDCHAR
STARTCHAR U+01055D
ENCODING 66909
SWIDTH 1000 0
DWIDTH 16 0
BBX 16 16 0 -2
BITMAP 
0000
07C0
0EE0
0EE0
05C0
0380
0F00
1CF0
3838
3838
1C70
07C0
0000
0000
0000
0000
ENDCHAR
STARTCHAR U+01055E
ENCODING 66910
SWIDTH 1000 0
DWIDTH 16 0
BBX 16 16 0 -2
BITMAP 
0000
E000
E000
7C70
1C70
1C70
1C70
1C70
1C7E
1C76
1C74
0EE0
07C0
0000
0000
0000
ENDCHAR
STARTCHAR U+01055F
ENCODING 66911
SWIDTH 1000 0
DWIDTH 16 0
BBX 16 16 0 -2
BITMAP 
0000
E3F8
E39C
E38E
E38E
738E
3F8E
0380
0380
0380
0380
0380
0000
0000
0000
0000
ENDCHAR
STARTCHAR U+010560
ENCODING 66912
SWIDTH 1000 0
DWIDTH 16 0
BBX 16 16 0 -2
BITMAP 
0000
3FFC
738E
E38E
E38E
0380
0380
0380
0380
0380
0380
0380
0000
0000
0000
0000
ENDCHAR
STARTCHAR U+010561
ENCODING 66913
SWIDTH 1000 0
DWIDTH 16 0
BBX 16 16 0 -2
BITMAP 
4000
C000
FF80
0380
0380
0380
0380
03FE
0386
0384
0380
0380
0000
0000
0000
0000
ENDCHAR
STARTCHAR U+010562
ENCODING 66914
SWIDTH 1000 0
DWIDTH 16 0
BBX 16 16 0 -2
BITMAP 
0000
3838
3838
3838
3838
3838
3838
1C70
07C0
0380
0380
0380
0000
0000
0000
0000
ENDCHAR
STARTCHAR U+010563
ENCODING 66915
SWIDTH 1000 0
DWIDTH 16 0
BBX 16 16 0 -2
BITMAP 
0000
0380
0380
0380
0380
0380
0380
0380
0380
1380
3380
3FF8
0398
0390
0300
0200
ENDCHAR
STARTCHAR U+01056F
ENCODING 66927
SWIDTH 500 0
DWIDTH 8 0
BBX 8 16 0 -2
BITMAP 
00
00
00
38
70
38
0E
0E
1C
38
60
00
00
00
00
00
ENDCHAR
STARTCHAR U+010600
ENCODING 67072
SWIDTH 500 0
DWIDTH 8 0
BBX 8 16 0 -2
BITMAP 
00
00
00
00
40
40
40
40
7E
40
40
40
40
40
00
00
ENDCHAR
STARTCHAR U+010601
ENCODING 67073
SWIDTH 500 0
DWIDTH 8 0
BBX 8 16 0 -2
BITMAP 
00
00
00
00
10
10
10
10
FE
10
10
10
10
10
00
00
ENDCHAR
STARTCHAR U+010602
ENCODING 67074
SWIDTH 500 0
DWIDTH 8 0
BBX 8 16 0 -2
BITMAP 
00
00
00
00
10
10
10
FE
10
10
FE
10
10
10
00
00
ENDCHAR
STARTCHAR U+010603
ENCODING 67075
SWIDTH 500 0
DWIDTH 8 0
BBX 8 16 0 -2
BITMAP 
00
00
00
00
92
54
38
92
54
38
92
54
38
10
00
00
ENDCHAR
STARTCHAR U+010604
ENCODING 67076
SWIDTH 500 0
DWIDTH 8 0
BBX 8 16 0 -2
BITMAP 
00
00
00
00
FF
10
10
10
7C
10
10
10
10
10
00
00
ENDCHAR
STARTCHAR U+010605
ENCODING 67077
SWIDTH 500 0
DWIDTH 8 0
BBX 8 16 0 -2
BITMAP 
00
00
00
00
7C
00
10
00
10
10
10
10
10
10
00
00
ENDCHAR
STARTCHAR U+010606
ENCODING 67078
SWIDTH 500 0
DWIDTH 8 0
BBX 8 16 0 -2
BITMAP 
00
00
00
00
7C
00
54
54
54
00
10
10
10
10
00
00
ENDCHAR
STARTCHAR U+010607
ENCODING 67079
SWIDTH 500 0
DWIDTH 8 0
BBX 8 16 0 -2
BITMAP 
00
00
00
00
44
44
7C
54
54
10
10
10
10
10
00
00
ENDCHAR
STARTCHAR U+010608
ENCODING 67080
SWIDTH 500 0
DWIDTH 8 0
BBX 8 16 0 -2
BITMAP 
00
00
00
00
54
54
54
7C
40
40
40
40
40
40
00
00
ENDCHAR
STARTCHAR U+010609
ENCODING 67081
SWIDTH 500 0
DWIDTH 8 0
BBX 8 16 0 -2
BITMAP 
00
00
00
00
07
0A
12
12
22
3F
22
40
40
40
00
00
ENDCHAR
STARTCHAR U+01060A
ENCODING 67082
SWIDTH 500 0
DWIDTH 8 0
BBX 8 16 0 -2
BITMAP 
00
00
00
00
0C
30
40
30
08
08
08
08
08
08
00
00
ENDCHAR
STARTCHAR U+01060B
ENCODING 67083
SWIDTH 1000 0
DWIDTH 16 0
BBX 16 16 0 -2
BITMAP 
0000
0000
0000
0000
2080
5140
5150
5190
3EE4
1008
1012
2004
2008
4000
0000
0000
ENDCHAR
STARTCHAR U+01060C
ENCODING 67084
SWIDTH 500 0
DWIDTH 8 0
BBX 8 16 0 -2
BITMAP 
00
00
00
00
38
44
C6
44
38
10
10
10
10
7C
00
00
ENDCHAR
STARTCHAR U+01060D
ENCODING 67085
SWIDTH 500 0
DWIDTH 8 0
BBX 8 16 0 -2
BITMAP 
00
00
00
00
38
44
44
44
38
7C
10
10
10
10
00
00
ENDCHAR
STARTCHAR U+01060E
ENCODING 67086
SWIDTH 500 0
DWIDTH 8 0
BBX 8 16 0 -2
BITMAP 
00
00
00
00
10
38
54
92
10
38
10
10
10
10
00
00
ENDCHAR
STARTCHAR U+01060F
ENCODING 67087
SWIDTH 500 0
DWIDTH 8 0
BBX 8 16 0 -2
BITMAP 
00
00
00
00
18
24
44
44
24
1F
04
04
04
04
00
00
ENDCHAR
STARTCHAR U+010610
ENCODING 67088
SWIDTH 1000 0
DWIDTH 16 0
BBX 16 16 0 -2
BITMAP 
0000
0000
0000
0000
0F80
11C0
21C0
22A0
12A0
0FFC
02A0
0490
0490
0490
0000
0000
ENDCHAR
STARTCHAR U+010611
ENCODING 67089
SWIDTH 500 0
DWIDTH 8 0
BBX 8 16 0 -2
BITMAP 
00
00
00
00
1C
24
44
44
3F
04
1F
04
1F
04
00
00
ENDCHAR
STARTCHAR U+010612
ENCODING 67090
SWIDTH 1000 0
DWIDTH 16 0
BBX 16 16 0 -2
BITMAP 
0000
0000
0000
0000
0410
0A38
1154
2092
0010
0050
0090
0010
0010
0010
0000
0000
ENDCHAR
STARTCHAR U+010613
ENCODING 67091
SWIDTH 1000 0
DWIDTH 16 0
BBX 16 16 0 -2
BITMAP 
0000
0000
0000
0000
0410
0A38
1154
2092
0010
0054
0092
0010
0010
0010
0000
0000
ENDCHAR
STARTCHAR U+010614
ENCODING 67092
SWIDTH 1000 0
DWIDTH 16 0
BBX 16 16 0 -2
BITMAP 
0000
0000
0000
0000
0410
0A38
1154
2092
0050
0090
007C
0010
007C
0010
0000
0000
ENDCHAR
STARTCHAR U+010615
ENCODING 67093
SWIDTH 500 0
DWIDTH 8 0
BBX 8 16 0 -2
BITMAP 
00
00
00
00
20
54
52
50
3E
10
10
10
10
10
00
00
ENDCHAR
STARTCHAR U+010616
ENCODING 67094
SWIDTH 500 0
DWIDTH 8 0
BBX 8 16 0 -2
BITMAP 
00
00
00
00
20
54
52
50
3E
10
7C
10
7C
10
00
00
ENDCHAR
STARTCHAR U+010617
ENCODING 67095
SWIDTH 500 0
DWIDTH 8 0
BBX 8 16 0 -2
BITMAP 
00
00
00
00
7C
10
10
10
38
10
10
10
10
7C
00
00
ENDCHAR
STARTCHAR U+010618
ENCODING 67096
SWIDTH 1000 0
DWIDTH 16 0
BBX 16 16 0 -2
BITMAP 
0000
0000
0000
0000
1010
2008
2108
2388
1D70
0100
0100
0100
0100
0100
0000
0000
ENDCHAR
STARTCHAR U+010619
ENCODING 67097
SWIDTH 1000 0
DWIDTH 16 0
BBX 16 16 0 -2
BITMAP 
0000
0000
0000
0000
2108
2108
2108
1110
0FE0
0100
0100
0100
0100
0100
0000
0000
ENDCHAR
STARTCHAR U+01061A
ENCODING 67098
SWIDTH 1000 0
DWIDTH 16 0
BBX 16 16 0 -2
BITMAP 
0000
0000
0000
0000
1110
1110
0920
0920
0FE0
1000
1000
0FE0
0100
0100
0000
0000
ENDCHAR
STARTCHAR U+01061B
ENCODING 67099
SWIDTH 1000 0
DWIDTH 16 0
BBX 16 16 0 -2
BITMAP 
0000
0000
0000
0000
4890
4890
2520
2520
3FEE
4004
400E
3FF8
0200
0200
0000
0000
ENDCHAR
STARTCHAR U+01061C
ENCODING 67100
SWIDTH 1000 0
DWIDTH 16 0
BBX 16 16 0 -2
BITMAP 
0000
0000
0000
0000
2108
2108
2108
1110
3938
1110
0BA0
0920
0540
1FF0
0000
0000
ENDCHAR
STARTCHAR U+01061D
ENCODING 67101
SWIDTH 1000 0
DWIDTH 16 0
BBX 16 16 0 -2
BITMAP 
0000
0000
0000
0000
4422
2814
7FFE
2914
4522
0100
0100
0100
0100
0100
0000
0000
ENDCHAR
STARTCHAR U+01061E
ENCODING 67102
SWIDTH 1000 0
DWIDTH 16 0
BBX 16 16 0 -2
BITMAP 
0000
0000
0000
0000
1010
0820
0440
0280
0100
0100
0100
0100
0100
0100
0000
0000
ENDCHAR
STARTCHAR U+01061F
ENCODING 67103
SWIDTH 1000 0
DWIDTH 16 0
BBX 16 16 0 -2
BITMAP 
0000
0000
0000
0000
07E0
0810
1000
2000
2000
2000
2000
1000
0810
07E0
0000
0000
ENDCHAR
STARTCHAR U+010620
ENCODING 67104
SWIDTH 500 0
DWIDTH 8 0
BBX 8 16 0 -2
BITMAP 
00
00
00
00
10
28
28
28
44
44
44
82
82
82
00
00
ENDCHAR
STARTCHAR U+010621
ENCODING 67105
SWIDTH 500 0
DWIDTH 8 0
BBX 8 16 0 -2
BITMAP 
00
00
00
00
10
28
7C
28
44
EE
44
82
82
82
00
00
ENDCHAR
STARTCHAR U+010622
ENCODING 67106
SWIDTH 1000 0
DWIDTH 16 0
BBX 16 16 0 -2
BITMAP 
0000
0000
0000
0000
0100
0100
0FE0
0380
0540
0920
0920
1110
1110
1FF0
0000
0000
ENDCHAR
STARTCHAR U+010623
ENCODING 67107
SWIDTH 500 0
DWIDTH 8 0
BBX 8 16 0 -2
BITMAP 
00
00
00
00
0E
12
32
52
52
7E
52
92
92
FE
00
00
ENDCHAR
STARTCHAR U+010624
ENCODING 67108
SWIDTH 500 0
DWIDTH 8 0
BBX 8 16 0 -2
BITMAP 
00
00
00
00
10
54
92
92
7C
10
10
10
10
10
00
00
ENDCHAR
STARTCHAR U+010625
ENCODING 67109
SWIDTH 1000 0
DWIDTH 16 0
BBX 16 16 0 -2
BITMAP 
0000
0000
0000
0000
0000
1110
0920
0540
0380
1FF0
0380
0540
0920
1110
0000
0000
ENDCHAR
STARTCHAR U+010626
ENCODING 67110
SWIDTH 1000 0
DWIDTH 16 0
BBX 16 16 0 -2
BITMAP 
0000
0000
0000
0000
1110
0AA0
0440
0820
1FF0
0920
0920
0920
0920
0920
0000
0000
ENDCHAR
STARTCHAR U+010627
ENCODING 67111
SWIDTH 500 0
DWIDTH 8 0
BBX 8 16 0 -2
BITMAP 
00
00
00
00
44
44
28
28
10
10
28
28
44
66
00
00
ENDCHAR
STARTCHAR U+010628
ENCODING 67112
SWIDTH 500 0
DWIDTH 8 0
BBX 8 16 0 -2
BITMAP 
00
00
00
00
44
44
38
6C
54
6C
38
44
82
82
00
00
ENDCHAR
STARTCHAR U+010629
ENCODING 67113
SWIDTH 1000 0
DWIDTH 16 0
BBX 16 16 0 -2
BITMAP 
0000
0000
0000
0000
AAAA
AAAA
AAAA
0000
FC7E
0280
0100
0280
0440
0440
0000
0000
ENDCHAR
STARTCHAR U+01062A
ENCODING 67114
SWIDTH 1000 0
DWIDTH 16 0
BBX 16 16 0 -2
BITMAP 
0000
0000
0000
0000
1C70
2388
4004
1110
3BB8
1110
1110
1110
1110
3BB8
0000
0000
ENDCHAR
STARTCHAR U+01062B
ENCODING 67115
SWIDTH 1000 0
DWIDTH 16 0
BBX 16 16 0 -2
BITMAP 
0000
0000
0000
0000
0070
0008
0008
00F0
0740
0A20
0A20
1110
1110
3BB8
0000
0000
ENDCHAR
STARTCHAR U+01062C
ENCODING 67116
SWIDTH 1000 0
DWIDTH 16 0
BBX 16 16 0 -2
BITMAP 
0000
0000
0000
0000
1C20
2220
0220
0220
03FC
0250
0250
0288
0288
0288
0000
0000
ENDCHAR
STARTCHAR U+01062D
ENCODING 67117
SWIDTH 500 0
DWIDTH 8 0
BBX 8 16 0 -2
BITMAP 
00
00
00
00
1C
22
42
02
14
2C
28
18
20
3E
00
00
ENDCHAR
STARTCHAR U+01062E
ENCODING 67118
SWIDTH 1000 0
DWIDTH 16 0
BBX 16 16 0 -2
BITMAP 
0000
0000
0000
0000
1FF0
1010
1010
1010
1010
1FF0
1010
1110
1110
1110
0000
0000
ENDCHAR
STARTCHAR U+01062F
ENCODING 67119
SWIDTH 500 0
DWIDTH 8 0
BBX 8 16 0 -2
BITMAP 
00
00
00
00
42
42
42
7E
42
42
7E
42
42
42
00
00
ENDCHAR
STARTCHAR U+010630
ENCODING 67120
SWIDTH 500 0
DWIDTH 8 0
BBX 8 16 0 -2
BITMAP 
00
00
00
00
42
42
7E
42
7E
42
7E
42
42
42
00
00
ENDCHAR
STARTCHAR U+010631
ENCODING 67121
SWIDTH 500 0
DWIDTH 8 0
BBX 8 16 0 -2
BITMAP 
00
00
00
00
7E
42
7E
42
42
42
42
7E
42
7E
00
00
ENDCHAR
STARTCHAR U+010632
ENCODING 67122
SWIDTH 500 0
DWIDTH 8 0
BBX 8 16 0 -2
BITMAP 
00
00
00
00
7C
42
42
42
4E
40
40
40
40
7E
00
00
ENDCHAR
STARTCHAR U+010633
ENCODING 67123
SWIDTH 500 0
DWIDTH 8 0
BBX 8 16 0 -2
BITMAP 
00
00
00
00
7E
42
40
40
40
40
40
40
42
7E
00
00
ENDCHAR
STARTCHAR U+010634
ENCODING 67124
SWIDTH 1000 0
DWIDTH 16 0
BBX 16 16 0 -2
BITMAP 
0000
0000
0000
0000
1000
1000
1000
1070
1080
1080
1080
1070
1010
1FF0
0000
0000
ENDCHAR
STARTCHAR U+010635
ENCODING 67125
SWIDTH 1000 0
DWIDTH 16 0
BBX 16 16 0 -2
BITMAP 
0000
0000
0060
0F10
0910
0960
0900
09E0
0E20
0920
0920
0E20
0820
0FE0
0000
0000
ENDCHAR
STARTCHAR U+010636
ENCODING 67126
SWIDTH 1000 0
DWIDTH 16 0
BBX 16 16 0 -2
BITMAP 
0000
0000
0000
0000
3000
0800
0800
08E0
0950
0A48
0AE0
0C00
0C00
0800
0000
0000
ENDCHAR
STARTCHAR U+010637
ENCODING 67127
SWIDTH 500 0
DWIDTH 8 0
BBX 8 16 0 -2
BITMAP 
00
00
00
00
FE
82
AA
82
54
44
7C
10
10
10
00
00
ENDCHAR
STARTCHAR U+010638
ENCODING 67128
SWIDTH 1000 0
DWIDTH 16 0
BBX 16 16 0 -2
BITMAP 
0000
0000
0000
0000
1100
0A00
07F0
0C10
1410
0220
0220
0140
0140
03E0
0000
0000
ENDCHAR
STARTCHAR U+010639
ENCODING 67129
SWIDTH 500 0
DWIDTH 8 0
BBX 8 16 0 -2
BITMAP 
00
00
00
00
08
08
08
08
7F
49
2A
1C
08
7F
00
00
ENDCHAR
STARTCHAR U+01063A
ENCODING 67130
SWIDTH 1000 0
DWIDTH 16 0
BBX 16 16 0 -2
BITMAP 
0000
0000
0000
0000
1FF0
2008
2448
1C70
0440
0440
0280
0280
0280
0100
0000
0000
ENDCHAR
STARTCHAR U+01063B
ENCODING 67131
SWIDTH 1000 0
DWIDTH 16 0
BBX 16 16 0 -2
BITMAP 
0000
0000
0000
0000
1000
1000
1000
1020
1510
1410
1610
1020
1040
0F80
0000
0000
ENDCHAR
STARTCHAR U+01063C
ENCODING 67132
SWIDTH 1000 0
DWIDTH 16 0
BBX 16 16 0 -2
BITMAP 
0000
0000
0000
0000
2000
2100
3200
2800
2B80
3010
2210
2110
1020
0FC0
0000
0000
ENDCHAR
STARTCHAR U+01063D
ENCODING 67133
SWIDTH 1000 0
DWIDTH 16 0
BBX 16 16 0 -2
BITMAP 
0000
0000
0000
0000
18C0
0420
0210
0210
0420
0840
1080
2100
2100
18C0
0000
0000
ENDCHAR
STARTCHAR U+01063E
ENCODING 67134
SWIDTH 1000 0
DWIDTH 16 0
BBX 16 16 0 -2
BITMAP 
0000
0000
0000
07C0
0920
1110
2108
2108
3FF8
2108
2108
1110
0920
07C0
0000
0000
ENDCHAR
STARTCHAR U+01063F
ENCODING 67135
SWIDTH 1000 0
DWIDTH 16 0
BBX 16 16 0 -2
BITMAP 
0000
0000
0000
07C0
0820
1010
2448
2008
2008
2008
2108
1010
0820
07C0
0000
0000
ENDCHAR
STARTCHAR U+010640
ENCODING 67136
SWIDTH 1000 0
DWIDTH 16 0
BBX 16 16 0 -2
BITMAP 
0000
0000
0000
0000
2388
1450
2928
1930
2928
1830
0440
0440
0280
0100
0000
0000
ENDCHAR
STARTCHAR U+010641
ENCODING 67137
SWIDTH 1000 0
DWIDTH 16 0
BBX 16 16 0 -2
BITMAP 
0000
0000
0000
0000
0000
0100
1290
0AA0
0440
0440
0820
0820
1010
1FF0
0000
0000
ENDCHAR
STARTCHAR U+010642
ENCODING 67138
SWIDTH 500 0
DWIDTH 8 0
BBX 8 16 0 -2
BITMAP 
00
00
00
00
00
20
10
08
10
20
50
08
10
20
00
00
ENDCHAR
STARTCHAR U+010643
ENCODING 67139
SWIDTH 1000 0
DWIDTH 16 0
BBX 16 16 0 -2
BITMAP 
0000
0000
0000
0038
0CC0
02F8
22C0
2C38
2000
2C38
22C0
02F8
0CC0
0038
0000
0000
ENDCHAR
STARTCHAR U+010644
ENCODING 67140
SWIDTH 1000 0
DWIDTH 16 0
BBX 16 16 0 -2
BITMAP 
0000
0000
0000
0000
0000
0000
0800
1400
1700
10F0
1410
1010
1FE0
0000
0000
0000
ENDCHAR
STARTCHAR U+010645
ENCODING 67141
SWIDTH 1000 0
DWIDTH 16 0
BBX 16 16 0 -2
BITMAP 
0000
0000
0000
0000
0000
0000
0400
0800
5000
3FFE
1012
0C16
03F8
0000
0000
0000
ENDCHAR
STARTCHAR U+010646
ENCODING 67142
SWIDTH 500 0
DWIDTH 8 0
BBX 8 16 0 -2
BITMAP 
00
00
00
00
70
48
48
50
48
48
50
50
48
40
00
00
ENDCHAR
STARTCHAR U+010647
ENCODING 67143
SWIDTH 1000 0
DWIDTH 16 0
BBX 16 16 0 -2
BITMAP 
0000
0000
0080
0080
3100
2D00
2280
2C40
3440
07C0
0820
0FE0
0820
0C30
0000
0000
ENDCHAR
STARTCHAR U+010648
ENCODING 67144
SWIDTH 1000 0
DWIDTH 16 0
BBX 16 16 0 -2
BITMAP 
0000
0000
0000
0100
0100
3FF8
0100
0920
1450
1450
1450
2288
2288
3EF8
0000
0000
ENDCHAR
STARTCHAR U+010649
ENCODING 67145
SWIDTH 500 0
DWIDTH 8 0
BBX 8 16 0 -2
BITMAP 
00
00
00
00
7C
38
54
54
38
10
10
10
10
10
00
00
ENDCHAR
STARTCHAR U+01064A
ENCODING 67146
SWIDTH 500 0
DWIDTH 8 0
BBX 8 16 0 -2
BITMAP 
00
00
00
00
7C
00
7C
38
54
54
38
10
10
10
00
00
ENDCHAR
STARTCHAR U+01064B
ENCODING 67147
SWIDTH 1000 0
DWIDTH 16 0
BBX 16 16 0 -2
BITMAP 
0000
0000
0000
0000
0100
2288
5114
2008
0920
0540
0100
0100
0100
0100
0000
0000
ENDCHAR
STARTCHAR U+01064C
ENCODING 67148
SWIDTH 1000 0
DWIDTH 16 0
BBX 16 16 0 -2
BITMAP 
0000
0000
0000
0000
0080
0140
0220
03E0
0A20
1620
1620
0A20
0220
03E0
0000
0000
ENDCHAR
STARTCHAR U+01064D
ENCODING 67149
SWIDTH 1000 0
DWIDTH 16 0
BBX 16 16 0 -2
BITMAP 
0000
0000
0000
0000
3FF8
2000
2000
2000
3FF8
2108
2108
2528
2948
2108
0000
0000
ENDCHAR
STARTCHAR U+01064E
ENCODING 67150
SWIDTH 1000 0
DWIDTH 16 0
BBX 16 16 0 -2
BITMAP 
0000
0000
0000
0000
3FF8
2000
2000
2000
3FF8
2008
2008
2008
2008
2008
0000
0000
ENDCHAR
STARTCHAR U+01064F
ENCODING 67151
SWIDTH 1000 0
DWIDTH 16 0
BBX 16 16 0 -2
BITMAP 
0000
0440
0280
0100
3FF8
2000
2000
2000
3FF8
2228
2228
2228
2228
2228
0000
0000
ENDCHAR
STARTCHAR U+010650
ENCODING 67152
SWIDTH 1000 0
DWIDTH 16 0
BBX 16 16 0 -2
BITMAP 
0000
0000
0000
0000
1FF0
1010
1010
1830
1450
1450
1830
1010
1010
1FF0
0000
0000
ENDCHAR
STARTCHAR U+010651
ENCODING 67153
SWIDTH 500 0
DWIDTH 8 0
BBX 8 16 0 -2
BITMAP 
00
00
00
00
7C
10
38
10
10
10
10
38
10
7C
00
00
ENDCHAR
STARTCHAR U+010652
ENCODING 67154
SWIDTH 500 0
DWIDTH 8 0
BBX 8 16 0 -2
BITMAP 
00
00
00
00
70
56
4A
42
44
48
48
44
42
7E
00
00
ENDCHAR
STARTCHAR U+010653
ENCODING 67155
SWIDTH 1000 0
DWIDTH 16 0
BBX 16 16 0 -2
BITMAP 
0000
0000
0000
0000
1F80
1080
1080
1080
1FF8
1088
1088
1090
1090
1FE0
0000
0000
ENDCHAR
STARTCHAR U+010654
ENCODING 67156
SWIDTH 1000 0
DWIDTH 16 0
BBX 16 16 0 -2
BITMAP 
0000
0000
0000
0000
07C0
0820
1010
1010
1010
1FF0
1080
1080
0900
0600
0000
0000
ENDCHAR
STARTCHAR U+010655
ENCODING 67157
SWIDTH 1000 0
DWIDTH 16 0
BBX 16 16 0 -2
BITMAP 
0000
0000
0000
0000
00F0
0110
0210
0210
0110
00F0
0050
0190
0610
1810
0000
0000
ENDCHAR
STARTCHAR U+010656
ENCODING 67158
SWIDTH 500 0
DWIDTH 8 0
BBX 8 16 0 -2
BITMAP 
00
00
00
00
10
08
24
14
48
28
10
10
20
20
00
00
ENDCHAR
STARTCHAR U+010657
ENCODING 67159
SWIDTH 500 0
DWIDTH 8 0
BBX 8 16 0 -2
BITMAP 
00
00
00
04
08
20
0C
20
28
24
20
20
20
20
00
00
ENDCHAR
STARTCHAR U+010658
ENCODING 67160
SWIDTH 500 0
DWIDTH 8 0
BBX 8 16 0 -2
BITMAP 
00
00
00
00
10
38
54
92
10
10
10
10
10
10
00
00
ENDCHAR
STARTCHAR U+010659
ENCODING 67161
SWIDTH 500 0
DWIDTH 8 0
BBX 8 16 0 -2
BITMAP 
00
00
00
00
00
0C
32
40
30
08
30
40
32
0C
00
00
ENDCHAR
STARTCHAR U+01065A
ENCODING 67162
SWIDTH 1000 0
DWIDTH 16 0
BBX 16 16 0 -2
BITMAP 
0000
0000
0000
0000
1C10
2020
2080
1C20
0190
0240
0240
0420
0420
0420
0000
0000
ENDCHAR
STARTCHAR U+01065B
ENCODING 67163
SWIDTH 1000 0
DWIDTH 16 0
BBX 16 16 0 -2
BITMAP 
0000
0000
0000
0000
0100
0100
0FE0
0380
0540
0920
0FE0
1110
1110
1110
0000
0000
ENDCHAR
STARTCHAR U+01065C
ENCODING 67164
SWIDTH 1000 0
DWIDTH 16 0
BBX 16 16 0 -2
BITMAP 
0000
0000
0000
0000
0000
0070
0190
0610
1810
3FF0
1810
0610
0190
0070
0000
0000
ENDCHAR
STARTCHAR U+01065D
ENCODING 67165
SWIDTH 1000 0
DWIDTH 16 0
BBX 16 16 0 -2
BITMAP 
0000
0000
0000
07C0
0820
1010
2008
2008
2008
2008
2008
1010
0820
07C0
0000
0000
ENDCHAR
STARTCHAR U+01065E
ENCODING 67166
SWIDTH 1000 0
DWIDTH 16 0
BBX 16 16 0 -2
BITMAP 
0000
0000
0000
07C0
0820
1010
1010
1010
1010
1010
0820
07C0
0830
080C
0400
0000
ENDCHAR
STARTCHAR U+01065F
ENCODING 67167
SWIDTH 1000 0
DWIDTH 16 0
BBX 16 16 0 -2
BITMAP 
0000
0000
0000
07C0
0820
1010
2388
2448
2448
2448
2388
1010
0820
07C0
0000
0000
ENDCHAR
STARTCHAR U+010660
ENCODING 67168
SWIDTH 1000 0
DWIDTH 16 0
BBX 16 16 0 -2
BITMAP 
0000
0000
0000
03E0
0420
0DE0
1200
1400
1400
1400
1200
0DE0
0420
03E0
0000
0000
ENDCHAR
STARTCHAR U+010661
ENCODING 67169
SWIDTH 1000 0
DWIDTH 16 0
BBX 16 16 0 -2
BITMAP 
0000
0000
0000
0000
07C0
0820
1010
2008
2008
4004
4444
4284
2288
1C70
0000
0000
ENDCHAR
STARTCHAR U+010662
ENCODING 67170
SWIDTH 500 0
DWIDTH 8 0
BBX 8 16 0 -2
BITMAP 
00
00
00
00
10
28
28
28
44
44
7C
10
10
38
00
00
ENDCHAR
STARTCHAR U+010663
ENCODING 67171
SWIDTH 1000 0
DWIDTH 16 0
BBX 16 16 0 -2
BITMAP 
0000
0000
0000
0000
0C00
1000
2000
2400
0200
0100
0080
0040
0020
0010
0000
0000
ENDCHAR
STARTCHAR U+010664
ENCODING 67172
SWIDTH 1000 0
DWIDTH 16 0
BBX 16 16 0 -2
BITMAP 
0000
0000
0000
0000
0000
0000
0018
0004
3FF4
0004
0018
0000
0000
0000
0000
0000
ENDCHAR
STARTCHAR U+010665
ENCODING 67173
SWIDTH 1000 0
DWIDTH 16 0
BBX 16 16 0 -2
BITMAP 
0000
0000
0000
0000
0800
0400
0200
0100
0080
0040
0024
0004
0008
0030
0000
0000
ENDCHAR
STARTCHAR U+010666
ENCODING 67174
SWIDTH 1000 0
DWIDTH 16 0
BBX 16 16 0 -2
BITMAP 
0000
0000
0000
0000
3330
0888
0444
0444
0888
1110
2220
2440
1480
0F80
0000
0000
ENDCHAR
STARTCHAR U+010667
ENCODING 67175
SWIDTH 500 0
DWIDTH 8 0
BBX 8 16 0 -2
BITMAP 
00
00
00
00
08
48
28
10
18
24
20
42
44
38
00
00
ENDCHAR
STARTCHAR U+010668
ENCODING 67176
SWIDTH 1000 0
DWIDTH 16 0
BBX 16 16 0 -2
BITMAP 
0000
0000
0120
0240
0000
0FC0
0800
0A40
0920
0800
0800
0800
0800
0800
0000
0000
ENDCHAR
STARTCHAR U+010669
ENCODING 67177
SWIDTH 1000 0
DWIDTH 16 0
BBX 16 16 0 -2
BITMAP 
0000
0000
0000
0000
0100
0100
3FF8
2108
2108
2108
3FF8
0100
0100
0100
0000
0000
ENDCHAR
STARTCHAR U+01066A
ENCODING 67178
SWIDTH 500 0
DWIDTH 8 0
BBX 8 16 0 -2
BITMAP 
00
00
00
00
7C
44
44
28
28
10
28
28
44
44
00
00
ENDCHAR
STARTCHAR U+01066B
ENCODING 67179
SWIDTH 500 0
DWIDTH 8 0
BBX 8 16 0 -2
BITMAP 
00
00
00
00
7C
10
10
10
10
10
10
10
10
7C
00
00
ENDCHAR
STARTCHAR U+01066C
ENCODING 67180
SWIDTH 500 0
DWIDTH 8 0
BBX 8 16 0 -2
BITMAP 
00
00
00
00
38
44
44
44
38
28
44
44
82
82
00
00
ENDCHAR
STARTCHAR U+01066D
ENCODING 67181
SWIDTH 1000 0
DWIDTH 16 0
BBX 16 16 0 -2
BITMAP 
0000
0000
0380
0C60
5114
793C
5014
793C
5114
1FF0
0100
0100
0100
07C0
0000
0000
ENDCHAR
STARTCHAR U+01066E
ENCODING 67182
SWIDTH 1000 0
DWIDTH 16 0
BBX 16 16 0 -2
BITMAP 
0000
0000
0000
0000
0380
0440
0440
0440
0440
1FF0
2008
2008
2008
1FF0
0000
0000
ENDCHAR
STARTCHAR U+01066F
ENCODING 67183
SWIDTH 1000 0
DWIDTH 16 0
BBX 16 16 0 -2
BITMAP 
0000
0000
0000
0000
0100
0100
0380
0540
0540
0920
0920
1110
1110
1FF0
0000
0000
ENDCHAR
STARTCHAR U+010670
ENCODING 67184
SWIDTH 1000 0
DWIDTH 16 0
BBX 16 16 0 -2
BITMAP 
0000
0000
0000
0000
0700
0880
1080
0110
01E0
0220
03C0
0440
0400
0200
0000
0000
ENDCHAR
STARTCHAR U+010671
ENCODING 67185
SWIDTH 500 0
DWIDTH 8 0
BBX 8 16 0 -2
BITMAP 
00
00
00
00
38
44
44
44
38
10
10
10
10
7C
00
00
ENDCHAR
STARTCHAR U+010672
ENCODING 67186
SWIDTH 500 0
DWIDTH 8 0
BBX 8 16 0 -2
BITMAP 
00
00
00
00
38
54
54
54
38
10
10
10
10
10
00
00
ENDCHAR
STARTCHAR U+010673
ENCODING 67187
SWIDTH 500 0
DWIDTH 8 0
BBX 8 16 0 -2
BITMAP 
00
00
00
80
FE
92
92
FE
92
92
FE
92
92
FE
80
00
ENDCHAR
STARTCHAR U+010674
ENCODING 67188
SWIDTH 1000 0
DWIDTH 16 0
BBX 16 16 0 -2
BITMAP 
0000
0000
0000
0000
07C0
1110
2108
5114
0920
0100
0100
0100
0100
0100
0000
0000
ENDCHAR
STARTCHAR U+010675
ENCODING 67189
SWIDTH 1000 0
DWIDTH 16 0
BBX 16 16 0 -2
BITMAP 
0000
0000
0000
0000
0E38
11C0
1100
11C0
0E38
0400
0400
0400
0400
0400
0000
0000
ENDCHAR
STARTCHAR U+010676
ENCODING 67190
SWIDTH 1000 0
DWIDTH 16 0
BBX 16 16 0 -2
BITMAP 
0000
0000
0000
0000
0000
47FC
4608
2A10
2A20
1240
2A20
2A10
4608
47FC
0000
0000
ENDCHAR
STARTCHAR U+010677
ENCODING 67191
SWIDTH 1000 0
DWIDTH 16 0
BBX 16 16 0 -2
BITMAP 
0000
0000
0000
0000
1FF0
1110
1550
1110
1110
1FF0
1110
1550
1110
1110
0000
0000
ENDCHAR
STARTCHAR U+010678
ENCODING 67192
SWIDTH 500 0
DWIDTH 8 0
BBX 8 16 0 -2
BITMAP 
00
00
00
00
10
08
04
04
48
28
10
10
20
20
00
00
ENDCHAR
STARTCHAR U+010679
ENCODING 67193
SWIDTH 1000 0
DWIDTH 16 0
BBX 16 16 0 -2
BITMAP 
0000
0000
0000
1010
0BA0
0440
0440
0440
0380
07C0
0100
0100
0100
0100
0000
0000
ENDCHAR
STARTCHAR U+01067A
ENCODING 67194
SWIDTH 1000 0
DWIDTH 16 0
BBX 16 16 0 -2
BITMAP 
0000
0000
0000
0010
07A0
0840
0050
0260
0480
0FE0
0100
0200
0400
0F00
0000
0000
ENDCHAR
STARTCHAR U+01067B
ENCODING 67195
SWIDTH 1000 0
DWIDTH 16 0
BBX 16 16 0 -2
BITMAP 
0000
0000
0000
0000
3FFE
2002
2222
0888
0000
2220
0080
4080
4100
7FC0
0000
0000
ENDCHAR
STARTCHAR U+01067C
ENCODING 67196
SWIDTH 1000 0
DWIDTH 16 0
BBX 16 16 0 -2
BITMAP 
0000
0000
0000
0000
1400
2A00
2F80
1040
1470
1008
1008
10B0
1080
1F80
0000
0000
ENDCHAR
STARTCHAR U+01067D
ENCODING 67197
SWIDTH 1000 0
DWIDTH 16 0
BBX 16 16 0 -2
BITMAP 
0000
0000
0000
0000
0780
0840
0040
0E40
0880
0FE0
0100
0200
0400
0800
0000
0000
ENDCHAR
STARTCHAR U+01067E
ENCODING 67198
SWIDTH 1000 0
DWIDTH 16 0
BBX 16 16 0 -2
BITMAP 
0000
0000
0000
0000
03F0
0210
0210
0210
0210
0210
0610
0810
1010
3FF0
0000
0000
ENDCHAR
STARTCHAR U+01067F
ENCODING 67199
SWIDTH 500 0
DWIDTH 8 0
BBX 8 16 0 -2
BITMAP 
00
00
00
00
44
28
28
10
28
28
44
44
44
38
00
00
ENDCHAR
STARTCHAR U+010680
ENCODING 67200
SWIDTH 1000 0
DWIDTH 16 0
BBX 16 16 0 -2
BITMAP 
0000
0000
0000
0000
0F80
1040
2000
21FC
0004
0004
21FC
2000
1040
0F80
0000
0000
ENDCHAR
STARTCHAR U+010681
ENCODING 67201
SWIDTH 1000 0
DWIDTH 16 0
BBX 16 16 0 -2
BITMAP 
0000
0000
0000
0000
0060
0090
0090
1C90
2290
4080
411C
4062
2182
1E3C
0000
0000
ENDCHAR
STARTCHAR U+010682
ENCODING 67202
SWIDTH 1000 0
DWIDTH 16 0
BBX 16 16 0 -2
BITMAP 
0000
0000
0000
0000
0380
0440
0820
1010
1010
3838
0000
5454
5454
5454
0000
0000
ENDCHAR
STARTCHAR U+010683
ENCODING 67203
SWIDTH 1000 0
DWIDTH 16 0
BBX 16 16 0 -2
BITMAP 
0000
0000
0000
2828
1010
2BA8
0440
0440
0440
0280
0100
0280
0440
0820
0000
0000
ENDCHAR
STARTCHAR U+010684
ENCODING 67204
SWIDTH 1000 0
DWIDTH 16 0
BBX 16 16 0 -2
BITMAP 
0000
0000
0000
0010
0038
0010
3BB8
4444
8002
7FFC
5454
5454
5294
F11E
0000
0000
ENDCHAR
STARTCHAR U+010685
ENCODING 67205
SWIDTH 500 0
DWIDTH 8 0
BBX 8 16 0 -2
BITMAP 
00
00
00
BA
44
AA
92
AA
44
BA
10
10
1C
10
00
00
ENDCHAR
STARTCHAR U+010686
ENCODING 67206
SWIDTH 500 0
DWIDTH 8 0
BBX 8 16 0 -2
BITMAP 
00
00
00
00
00
40
40
40
7E
42
42
42
42
7E
00
00
ENDCHAR
STARTCHAR U+010687
ENCODING 67207
SWIDTH 1000 0
DWIDTH 16 0
BBX 16 16 0 -2
BITMAP 
0000
0000
0000
1740
0880
1578
1240
1078
0880
0700
0200
0200
0200
0200
0000
0000
ENDCHAR
STARTCHAR U+010688
ENCODING 67208
SWIDTH 1000 0
DWIDTH 16 0
BBX 16 16 0 -2
BITMAP 
0000
0180
0040
0100
0138
0244
0494
0420
0240
0D80
3000
4000
4000
2000
0000
0000
ENDCHAR
STARTCHAR U+010689
ENCODING 67209
SWIDTH 500 0
DWIDTH 8 0
BBX 8 16 0 -2
BITMAP 
00
00
00
00
38
44
40
20
18
04
38
40
20
10
00
00
ENDCHAR
STARTCHAR U+01068A
ENCODING 67210
SWIDTH 1000 0
DWIDTH 16 0
BBX 16 16 0 -2
BITMAP 
0000
0000
0000
0000
0080
0080
01F0
00C0
0920
1120
1210
2210
2408
0408
0000
0000
ENDCHAR
STARTCHAR U+01068B
ENCODING 67211
SWIDTH 1000 0
DWIDTH 16 0
BBX 16 16 0 -2
BITMAP 
0000
0000
0000
0000
0600
0800
11F0
1000
0800
0600
0180
0440
0440
0080
0000
0000
ENDCHAR
STARTCHAR U+01068C
ENCODING 67212
SWIDTH 500 0
DWIDTH 8 0
BBX 8 16 0 -2
BITMAP 
00
00
00
10
10
00
7C
44
28
10
28
28
44
44
00
00
ENDCHAR
STARTCHAR U+01068D
ENCODING 67213
SWIDTH 1000 0
DWIDTH 16 0
BBX 16 16 0 -2
BITMAP 
0000
0000
0000
0000
0000
0000
0000
1C00
1300
20C0
20B0
410C
7FFC
0000
0000
0000
ENDCHAR
STARTCHAR U+01068E
ENCODING 67214
SWIDTH 1000 0
DWIDTH 16 0
BBX 16 16 0 -2
BITMAP 
0000
0000
0000
0000
0FE0
0100
0100
0110
05F0
0910
0100
2100
0100
0100
0000
0000
ENDCHAR
STARTCHAR U+01068F
ENCODING 67215
SWIDTH 1000 0
DWIDTH 16 0
BBX 16 16 0 -2
BITMAP 
0000
0000
0000
0000
2020
1040
08A8
0510
0220
0200
0200
0200
0200
0200
0000
0000
ENDCHAR
STARTCHAR U+010690
ENCODING 67216
SWIDTH 1000 0
DWIDTH 16 0
BBX 16 16 0 -2
BITMAP 
0000
0000
0000
0000
1E00
1180
1040
1FA0
00A0
0110
0110
0208
0208
03F8
0000
0000
ENDCHAR
STARTCHAR U+010691
ENCODING 67217
SWIDTH 1000 0
DWIDTH 16 0
BBX 16 16 0 -2
BITMAP 
0000
0000
0600
0100
0100
03E0
0610
0650
0508
08FC
1E08
0888
0B48
0C38
0800
0000
ENDCHAR
STARTCHAR U+010692
ENCODING 67218
SWIDTH 500 0
DWIDTH 8 0
BBX 8 16 0 -2
BITMAP 
00
00
00
00
90
50
30
10
18
14
12
14
18
10
00
00
ENDCHAR
STARTCHAR U+010693
ENCODING 67219
SWIDTH 1000 0
DWIDTH 16 0
BBX 16 16 0 -2
BITMAP 
0000
0000
0000
0000
0040
0FF0
1048
2800
2400
2200
2400
2800
1010
0FF0
0000
0000
ENDCHAR
STARTCHAR U+010694
ENCODING 67220
SWIDTH 1000 0
DWIDTH 16 0
BBX 16 16 0 -2
BITMAP 
0000
0000
0000
0000
0000
0000
3FFC
2104
2104
2104
2104
3FFC
0000
0000
0000
0000
ENDCHAR
STARTCHAR U+010695
ENCODING 67221
SWIDTH 1000 0
DWIDTH 16 0
BBX 16 16 0 -2
BITMAP 
0000
0000
0000
0000
644C
1290
0BA0
0820
0FE0
0100
0100
0100
0100
07C0
0000
0000
ENDCHAR
STARTCHAR U+010696
ENCODING 67222
SWIDTH 500 0
DWIDTH 8 0
BBX 8 16 0 -2
BITMAP 
00
00
2A
2A
2A
1C
22
E2
22
1C
08
1C
08
3E
00
00
ENDCHAR
STARTCHAR U+010697
ENCODING 67223
SWIDTH 1000 0
DWIDTH 16 0
BBX 16 16 0 -2
BITMAP 
0000
0000
0000
0000
1F00
0400
3F8E
4472
4402
4472
3F8E
0400
0400
1F00
0000
0000
ENDCHAR
STARTCHAR U+010698
ENCODING 67224
SWIDTH 1000 0
DWIDTH 16 0
BBX 16 16 0 -2
BITMAP 
0000
0000
0000
0000
3808
4464
0184
1C02
2102
1C02
0584
0464
0408
0400
0000
0000
ENDCHAR
STARTCHAR U+010699
ENCODING 67225
SWIDTH 500 0
DWIDTH 8 0
BBX 8 16 0 -2
BITMAP 
00
00
00
00
38
54
92
92
10
10
16
18
16
18
00
00
ENDCHAR
STARTCHAR U+01069A
ENCODING 67226
SWIDTH 1000 0
DWIDTH 16 0
BBX 16 16 0 -2
BITMAP 
0000
0000
0280
0440
0000
0C60
1390
0000
0C60
1390
0000
0820
0820
0820
0000
0000
ENDCHAR
STARTCHAR U+01069B
ENCODING 67227
SWIDTH 1000 0
DWIDTH 16 0
BBX 16 16 0 -2
BITMAP 
0000
0000
0000
0000
0180
0200
048C
7452
4442
47C2
4442
0440
0280
0100
0000
0000
ENDCHAR
STARTCHAR U+01069C
ENCODING 67228
SWIDTH 500 0
DWIDTH 8 0
BBX 8 16 0 -2
BITMAP 
00
00
00
00
7C
82
AA
82
12
54
10
10
10
10
00
00
ENDCHAR
STARTCHAR U+01069D
ENCODING 67229
SWIDTH 1000 0
DWIDTH 16 0
BBX 16 16 0 -2
BITMAP 
0000
0000
0400
0400
04F0
0308
0008
0148
0150
01E0
1F20
2110
4080
5400
1400
0000
ENDCHAR
STARTCHAR U+01069E
ENCODING 67230
SWIDTH 500 0
DWIDTH 8 0
BBX 8 16 0 -2
BITMAP 
00
00
00
00
7E
42
42
42
42
7E
40
40
40
40
00
00
ENDCHAR
STARTCHAR U+01069F
ENCODING 67231
SWIDTH 1000 0
DWIDTH 16 0
BBX 16 16 0 -2
BITMAP 
0000
0000
0000
0000
07C0
0100
0500
097C
0100
0100
0920
27C8
1110
0FE0
0000
0000
ENDCHAR
STARTCHAR U+0106A0
ENCODING 67232
SWIDTH 1000 0
DWIDTH 16 0
BBX 16 16 0 -2
BITMAP 
0000
0000
0000
0000
1FF0
1010
0820
0820
0440
0440
0280
0280
0100
1FF0
0000
0000
ENDCHAR
STARTCHAR U+0106A1
ENCODING 67233
SWIDTH 1000 0
DWIDTH 16 0
BBX 16 16 0 -2
BITMAP 
0000
0000
0000
0000
1FF0
1010
1010
1010
0820
783C
0820
0440
0440
0FE0
0000
0000
ENDCHAR
STARTCHAR U+0106A2
ENCODING 67234
SWIDTH 1000 0
DWIDTH 16 0
BBX 16 16 0 -2
BITMAP 
0000
0000
0000
0000
1FF0
1010
1010
1010
0820
0820
0820
0440
0440
07C0
0000
0000
ENDCHAR
STARTCHAR U+0106A3
ENCODING 67235
SWIDTH 1000 0
DWIDTH 16 0
BBX 16 16 0 -2
BITMAP 
0000
0000
0000
0000
1FF0
1010
1010
1010
0820
0820
0820
07C0
0440
07C0
0000
0000
ENDCHAR
STARTCHAR U+0106A4
ENCODING 67236
SWIDTH 1000 0
DWIDTH 16 0
BBX 16 16 0 -2
BITMAP 
0000
0000
0000
0000
0FF8
0808
0808
1808
2410
1C10
0410
0220
0220
03E0
0000
0000
ENDCHAR
STARTCHAR U+0106A5
ENCODING 67237
SWIDTH 1000 0
DWIDTH 16 0
BBX 16 16 0 -2
BITMAP 
0000
0000
0000
0000
1FF0
1010
1010
3018
4824
3838
0820
0440
0440
07C0
0000
0000
ENDCHAR
STARTCHAR U+0106A6
ENCODING 67238
SWIDTH 1000 0
DWIDTH 16 0
BBX 16 16 0 -2
BITMAP 
0000
0000
0000
0000
07C0
0820
1010
1FF0
3018
4824
3838
0820
0440
07C0
0000
0000
ENDCHAR
STARTCHAR U+0106A7
ENCODING 67239
SWIDTH 1000 0
DWIDTH 16 0
BBX 16 16 0 -2
BITMAP 
0000
0000
0000
0820
1450
1450
1FF0
1010
1010
0820
0820
0820
0440
07C0
0000
0000
ENDCHAR
STARTCHAR U+0106A8
ENCODING 67240
SWIDTH 1000 0
DWIDTH 16 0
BBX 16 16 0 -2
BITMAP 
0000
0000
0000
0000
1FF0
0820
1830
2448
1C70
0280
0680
0980
1240
1240
0000
0000
ENDCHAR
STARTCHAR U+0106A9
ENCODING 67241
SWIDTH 1000 0
DWIDTH 16 0
BBX 16 16 0 -2
BITMAP 
0000
0000
0000
0000
1FF0
1010
1010
0820
07C0
07C0
0920
1110
1110
1110
0000
0000
ENDCHAR
STARTCHAR U+0106AA
ENCODING 67242
SWIDTH 1000 0
DWIDTH 16 0
BBX 16 16 0 -2
BITMAP 
0000
0000
0820
1450
1450
1FF0
1010
1010
0820
07C0
07C0
0920
1110
1110
0000
0000
ENDCHAR
STARTCHAR U+0106AB
ENCODING 67243
SWIDTH 1000 0
DWIDTH 16 0
BBX 16 16 0 -2
BITMAP 
0000
0000
0000
0000
1FF0
1010
701C
0820
07C0
07C0
0920
1110
1110
1110
0000
0000
ENDCHAR
STARTCHAR U+0106AC
ENCODING 67244
SWIDTH 1000 0
DWIDTH 16 0
BBX 16 16 0 -2
BITMAP 
0000
0000
0000
03C0
0E40
1240
0A40
0420
0810
0810
0810
0420
0240
03C0
0000
0000
ENDCHAR
STARTCHAR U+0106AD
ENCODING 67245
SWIDTH 1000 0
DWIDTH 16 0
BBX 16 16 0 -2
BITMAP 
0000
0000
0000
0000
3FFC
4808
4808
3808
0410
0410
0220
0220
0220
03E0
0000
0000
ENDCHAR
STARTCHAR U+0106AE
ENCODING 67246
SWIDTH 1000 0
DWIDTH 16 0
BBX 16 16 0 -2
BITMAP 
0000
0000
0000
0000
3FE0
4440
4440
3830
2008
2008
1010
1010
0820
0FE0
0000
0000
ENDCHAR
STARTCHAR U+0106AF
ENCODING 67247
SWIDTH 1000 0
DWIDTH 16 0
BBX 16 16 0 -2
BITMAP 
0000
0000
0000
0000
0FE0
0440
0440
1830
2008
2008
1010
1010
0820
0FE0
0000
0000
ENDCHAR
STARTCHAR U+0106B0
ENCODING 67248
SWIDTH 1000 0
DWIDTH 16 0
BBX 16 16 0 -2
BITMAP 
0000
0000
0000
0000
0FE0
0440
0440
1830
2388
2448
1450
1010
0820
0FE0
0000
0000
ENDCHAR
STARTCHAR U+0106B1
ENCODING 67249
SWIDTH 1000 0
DWIDTH 16 0
BBX 16 16 0 -2
BITMAP 
0000
0000
0000
0820
1450
1450
1FF0
1550
1290
0D60
0AA0
0D60
06C0
07C0
0000
0000
ENDCHAR
STARTCHAR U+0106B2
ENCODING 67250
SWIDTH 1000 0
DWIDTH 16 0
BBX 16 16 0 -2
BITMAP 
0000
0000
1C00
0200
0100
0100
02C0
1430
190C
1004
0448
08B0
1100
0A00
0400
0000
ENDCHAR
STARTCHAR U+0106B3
ENCODING 67251
SWIDTH 500 0
DWIDTH 8 0
BBX 8 16 0 -2
BITMAP 
00
00
00
00
44
48
50
60
40
40
48
5C
48
40
00
00
ENDCHAR
STARTCHAR U+0106B4
ENCODING 67252
SWIDTH 1000 0
DWIDTH 16 0
BBX 16 16 0 -2
BITMAP 
0000
0000
0000
0888
0888
0888
0FF8
0800
4900
4900
3E00
0800
0F00
0800
0800
0000
ENDCHAR
STARTCHAR U+0106B5
ENCODING 67253
SWIDTH 1000 0
DWIDTH 16 0
BBX 16 16 0 -2
BITMAP 
0000
0000
0000
0000
0078
0088
2108
2508
2888
3078
2028
20C8
0308
3C08
0000
0000
ENDCHAR
STARTCHAR U+0106B6
ENCODING 67254
SWIDTH 1000 0
DWIDTH 16 0
BBX 16 16 0 -2
BITMAP 
0000
0000
0000
0000
0800
0800
0800
7F00
0800
0840
0840
0FF0
0840
0840
0000
0000
ENDCHAR
STARTCHAR U+0106B7
ENCODING 67255
SWIDTH 1000 0
DWIDTH 16 0
BBX 16 16 0 -2
BITMAP 
0000
0000
0000
0000
0800
0800
0800
7F00
0800
7F40
0840
0FF0
0840
0840
0000
0000
ENDCHAR
STARTCHAR U+0106B8
ENCODING 67256
SWIDTH 1000 0
DWIDTH 16 0
BBX 16 16 0 -2
BITMAP 
0000
0000
0000
0000
7F00
0000
4900
4900
0070
0888
0954
0904
0924
0888
0870
0000
ENDCHAR
STARTCHAR U+0106B9
ENCODING 67257
SWIDTH 1000 0
DWIDTH 16 0
BBX 16 16 0 -2
BITMAP 
0000
0000
0000
0920
0540
0380
0100
0FE0
0820
0540
0280
0100
0100
07C0
0000
0000
ENDCHAR
STARTCHAR U+0106BA
ENCODING 67258
SWIDTH 1000 0
DWIDTH 16 0
BBX 16 16 0 -2
BITMAP 
0000
0000
0000
208C
1102
0A02
0404
3FF8
2054
1494
0A94
0400
0400
1F00
0000
0000
ENDCHAR
STARTCHAR U+0106BB
ENCODING 67259
SWIDTH 1000 0
DWIDTH 16 0
BBX 16 16 0 -2
BITMAP 
0000
0000
0000
000C
0002
0002
0004
3FF8
2054
1494
0A94
0400
0400
1F00
0000
0000
ENDCHAR
STARTCHAR U+0106BC
ENCODING 67260
SWIDTH 1000 0
DWIDTH 16 0
BBX 16 16 0 -2
BITMAP 
0000
0000
0000
8280
4440
2840
10AA
FFAA
835C
5548
2D48
1000
1000
7C00
0000
0000
ENDCHAR
STARTCHAR U+0106BD
ENCODING 67261
SWIDTH 1000 0
DWIDTH 16 0
BBX 16 16 0 -2
BITMAP 
0000
0000
0000
0000
1E00
2100
2100
1FF0
0100
0540
0920
07C0
0100
0100
0000
0000
ENDCHAR
STARTCHAR U+0106BE
ENCODING 67262
SWIDTH 1000 0
DWIDTH 16 0
BBX 16 16 0 -2
BITMAP 
0000
0000
0000
0000
3398
4D64
8102
0510
0908
0104
07C8
0114
07C2
0104
0108
0000
ENDCHAR
STARTCHAR U+0106BF
ENCODING 67263
SWIDTH 1000 0
DWIDTH 16 0
BBX 16 16 0 -2
BITMAP 
0000
0000
0000
0000
0248
0248
0248
03F8
0200
0A80
1240
0F80
0200
0200
0000
0000
ENDCHAR
STARTCHAR U+0106C0
ENCODING 67264
SWIDTH 1000 0
DWIDTH 16 0
BBX 16 16 0 -2
BITMAP 
0000
0000
2082
21C2
2EBA
3086
2EBA
21C2
3FFE
4000
4000
3FFE
0100
0100
0100
0000
ENDCHAR
STARTCHAR U+0106C1
ENCODING 67265
SWIDTH 1000 0
DWIDTH 16 0
BBX 16 16 0 -2
BITMAP 
0000
0000
0000
0000
5478
5488
5508
7D08
4088
7C78
1028
10C8
0308
7C08
0000
0000
ENDCHAR
STARTCHAR U+0106C2
ENCODING 67266
SWIDTH 1000 0
DWIDTH 16 0
BBX 16 16 0 -2
BITMAP 
0000
0000
0000
0000
3C40
4220
4200
3FF0
0280
0240
1220
0A40
02A0
0240
0280
0000
ENDCHAR
STARTCHAR U+0106C3
ENCODING 67267
SWIDTH 1000 0
DWIDTH 16 0
BBX 16 16 0 -2
BITMAP 
0000
0000
0000
0000
1010
1010
1FF0
1110
1110
0100
0380
0540
0920
1110
0000
0000
ENDCHAR
STARTCHAR U+0106C4
ENCODING 67268
SWIDTH 1000 0
DWIDTH 16 0
BBX 16 16 0 -2
BITMAP 
0000
0000
0000
0000
03F8
0448
0348
0084
0102
0102
0102
1084
2848
4478
0000
0000
ENDCHAR
STARTCHAR U+0106C5
ENCODING 67269
SWIDTH 1000 0
DWIDTH 16 0
BBX 16 16 0 -2
BITMAP 
0000
0000
0000
0000
2008
0AA0
0000
0380
0440
1FF0
0820
1C70
0820
0820
0000
0000
ENDCHAR
STARTCHAR U+0106C6
ENCODING 67270
SWIDTH 1000 0
DWIDTH 16 0
BBX 16 16 0 -2
BITMAP 
0000
0000
0000
0380
0540
07C0
0540
0380
0380
0440
1FF0
0820
1C70
0820
0000
0000
ENDCHAR
STARTCHAR U+0106C7
ENCODING 67271
SWIDTH 1000 0
DWIDTH 16 0
BBX 16 16 0 -2
BITMAP 
0000
0000
0000
0000
00C0
071E
0D32
7552
5452
507E
4092
0092
0092
00FE
0000
0000
ENDCHAR
STARTCHAR U+0106C8
ENCODING 67272
SWIDTH 1000 0
DWIDTH 16 0
BBX 16 16 0 -2
BITMAP 
0000
0000
0000
0000
1FF0
0000
1110
1110
1110
0000
0540
0920
07C0
0100
0100
0000
ENDCHAR
STARTCHAR U+0106C9
ENCODING 67273
SWIDTH 1000 0
DWIDTH 16 0
BBX 16 16 0 -2
BITMAP 
0000
0000
0000
0000
0490
0490
0490
07F0
0400
1500
2480
1F00
0400
0400
0000
0000
ENDCHAR
STARTCHAR U+0106CA
ENCODING 67274
SWIDTH 1000 0
DWIDTH 16 0
BBX 16 16 0 -2
BITMAP 
0000
0000
0000
0030
3848
0450
0464
3FC8
0432
1504
2482
1F04
0400
0400
0000
0000
ENDCHAR
STARTCHAR U+0106CB
ENCODING 67275
SWIDTH 1000 0
DWIDTH 16 0
BBX 16 16 0 -2
BITMAP 
0000
0000
0000
00C0
7120
8940
8990
7F20
08C4
2A2E
495A
3E2E
084A
081F
0000
0000
ENDCHAR
STARTCHAR U+0106CC
ENCODING 67276
SWIDTH 1000 0
DWIDTH 16 0
BBX 16 16 0 -2
BITMAP 
0000
0000
0000
1FF0
1010
1450
1110
0820
0FE0
0100
0540
0920
07C0
0100
0100
0000
ENDCHAR
STARTCHAR U+0106CD
ENCODING 67277
SWIDTH 1000 0
DWIDTH 16 0
BBX 16 16 0 -2
BITMAP 
0000
0000
0000
0010
3C10
4210
0100
017C
0100
0228
0228
0444
0444
0000
0550
1004
ENDCHAR
STARTCHAR U+0106CE
ENCODING 67278
SWIDTH 1000 0
DWIDTH 16 0
BBX 16 16 0 -2
BITMAP 
0000
0000
0100
0080
0140
0080
0140
0080
0100
3FF8
2008
2008
3FF8
2108
2108
0000
ENDCHAR
STARTCHAR U+0106CF
ENCODING 67279
SWIDTH 1000 0
DWIDTH 16 0
BBX 16 16 0 -2
BITMAP 
0000
0000
0000
3FF8
2008
2108
2288
27C8
2108
2388
2008
3FF8
2108
2108
2108
0000
ENDCHAR
STARTCHAR U+0106D0
ENCODING 67280
SWIDTH 1000 0
DWIDTH 16 0
BBX 16 16 0 -2
BITMAP 
0000
0000
0380
0440
0820
0AA0
0820
0920
0440
0380
7FFC
1110
1110
1110
7FFC
0000
ENDCHAR
STARTCHAR U+0106D1
ENCODING 67281
SWIDTH 1000 0
DWIDTH 16 0
BBX 16 16 0 -2
BITMAP 
0000
0000
0000
0440
0820
0920
06C0
1FF0
1010
1FF0
1010
1010
1FF0
1010
1FF0
0000
ENDCHAR
STARTCHAR U+0106D2
ENCODING 67282
SWIDTH 1000 0
DWIDTH 16 0
BBX 16 16 0 -2
BITMAP 
0000
0000
0380
0540
07C0
0540
0380
1FF0
1010
1FF0
1010
1010
1FF0
1010
1FF0
0000
ENDCHAR
STARTCHAR U+0106D3
ENCODING 67283
SWIDTH 1000 0
DWIDTH 16 0
BBX 16 16 0 -2
BITMAP 
0000
0000
0000
0000
7E78
4204
4242
5E22
4082
4044
4018
4060
4180
7E00
0000
0000
ENDCHAR
STARTCHAR U+0106D4
ENCODING 67284
SWIDTH 1000 0
DWIDTH 16 0
BBX 16 16 0 -2
BITMAP 
0000
0000
0070
10A8
10F8
10A8
1070
1000
1070
1088
1080
1070
1010
1FF0
0000
0000
ENDCHAR
STARTCHAR U+0106D5
ENCODING 67285
SWIDTH 1000 0
DWIDTH 16 0
BBX 16 16 0 -2
BITMAP 
0000
0000
0000
0000
8400
DF00
9500
9538
DF44
8482
8CAA
9482
A492
C444
8438
0000
ENDCHAR
STARTCHAR U+0106D6
ENCODING 67286
SWIDTH 1000 0
DWIDTH 16 0
BBX 16 16 0 -2
BITMAP 
0000
0000
0000
3C40
4220
4200
3FFC
0200
0300
03E0
0620
03C0
0240
03C0
0000
0000
ENDCHAR
STARTCHAR U+0106D7
ENCODING 67287
SWIDTH 500 0
DWIDTH 8 0
BBX 8 16 0 -2
BITMAP 
00
00
00
00
10
10
7C
10
7E
92
54
38
10
FE
00
00
ENDCHAR
STARTCHAR U+0106D8
ENCODING 67288
SWIDTH 1000 0
DWIDTH 16 0
BBX 16 16 0 -2
BITMAP 
0000
0000
0000
1000
1000
1000
1000
1000
13E0
1410
1808
1FF8
1808
1FF8
0000
0000
ENDCHAR
STARTCHAR U+0106D9
ENCODING 67289
SWIDTH 1000 0
DWIDTH 16 0
BBX 16 16 0 -2
BITMAP 
0000
0000
0000
1400
1000
1200
1080
1020
1788
1840
1020
1FE0
1020
1FE0
0000
0000
ENDCHAR
STARTCHAR U+0106DA
ENCODING 67290
SWIDTH 1000 0
DWIDTH 16 0
BBX 16 16 0 -2
BITMAP 
0000
0000
0000
1410
1888
19C8
16B0
1080
13E0
1410
1808
1FF8
1808
1FF8
0000
0000
ENDCHAR
STARTCHAR U+0106DB
ENCODING 67291
SWIDTH 1000 0
DWIDTH 16 0
BBX 16 16 0 -2
BITMAP 
0000
0000
1490
1490
17F0
1400
13F0
1080
13E0
1410
1808
1FF8
1808
1FF8
0000
0000
ENDCHAR
STARTCHAR U+0106DC
ENCODING 67292
SWIDTH 1000 0
DWIDTH 16 0
BBX 16 16 0 -2
BITMAP 
0000
0000
0000
11C0
12A0
13E0
12A0
11C0
13E0
1410
1808
1FF8
1808
1FF8
0000
0000
ENDCHAR
STARTCHAR U+0106DD
ENCODING 67293
SWIDTH 1000 0
DWIDTH 16 0
BBX 16 16 0 -2
BITMAP 
0000
0000
0000
0000
8078
8088
8508
AD08
A488
B478
8828
70C8
0308
7C08
0000
0000
ENDCHAR
STARTCHAR U+0106DE
ENCODING 67294
SWIDTH 1000 0
DWIDTH 16 0
BBX 16 16 0 -2
BITMAP 
0000
0000
0000
0000
2008
2008
3FF8
2108
2108
07C0
0920
0FE0
0920
07C0
0000
0000
ENDCHAR
STARTCHAR U+0106DF
ENCODING 67295
SWIDTH 1000 0
DWIDTH 16 0
BBX 16 16 0 -2
BITMAP 
0000
0000
0000
0000
00FE
0038
0054
1C54
2254
4138
5510
4138
4910
2238
1C10
0000
ENDCHAR
STARTCHAR U+0106E0
ENCODING 67296
SWIDTH 1000 0
DWIDTH 16 0
BBX 16 16 0 -2
BITMAP 
0000
0000
0000
0000
2008
1110
0AA0
0280
0280
0440
0440
07C0
0000
0AA0
2008
0000
ENDCHAR
STARTCHAR U+0106E1
ENCODING 67297
SWIDTH 1000 0
DWIDTH 16 0
BBX 16 16 0 -2
BITMAP 
0000
0000
0000
1010
1010
1FF0
1110
1110
0100
1110
0AA0
0440
0820
0FE0
0000
0000
ENDCHAR
STARTCHAR U+0106E2
ENCODING 67298
SWIDTH 1000 0
DWIDTH 16 0
BBX 16 16 0 -2
BITMAP 
0000
0000
0000
0000
0820
1110
1390
0D60
0100
1110
0AA0
0440
0820
0FE0
0000
0000
ENDCHAR
STARTCHAR U+0106E3
ENCODING 67299
SWIDTH 1000 0
DWIDTH 16 0
BBX 16 16 0 -2
BITMAP 
0000
0000
0000
0888
0550
0220
0410
07F0
0000
0888
0550
0220
0410
07F0
0000
0000
ENDCHAR
STARTCHAR U+0106E4
ENCODING 67300
SWIDTH 1000 0
DWIDTH 16 0
BBX 16 16 0 -2
BITMAP 
0000
0200
0100
0080
0040
0080
0100
0280
0040
0080
0100
0200
0000
0AA0
2008
0000
ENDCHAR
STARTCHAR U+0106E5
ENCODING 67301
SWIDTH 1000 0
DWIDTH 16 0
BBX 16 16 0 -2
BITMAP 
0000
0000
0000
0000
0038
0028
003E
002A
883E
5000
3FFE
2012
101E
0FE0
0000
0000
ENDCHAR
STARTCHAR U+0106E6
ENCODING 67302
SWIDTH 1000 0
DWIDTH 16 0
BBX 16 16 0 -2
BITMAP 
0000
0000
0000
0000
001E
0012
0012
00FE
8892
5092
3FFE
2012
101E
0FE0
0000
0000
ENDCHAR
STARTCHAR U+0106E7
ENCODING 67303
SWIDTH 1000 0
DWIDTH 16 0
BBX 16 16 0 -2
BITMAP 
0000
0000
0000
021C
722A
4FFE
422A
4D1C
7500
0F80
0880
0F80
1040
1860
0000
0000
ENDCHAR
STARTCHAR U+0106E8
ENCODING 67304
SWIDTH 1000 0
DWIDTH 16 0
BBX 16 16 0 -2
BITMAP 
0000
0000
0000
0408
6408
5FFE
4408
5A14
6A14
1F3E
1122
1F3E
20A2
30E2
0000
0000
ENDCHAR
STARTCHAR U+0106E9
ENCODING 67305
SWIDTH 1000 0
DWIDTH 16 0
BBX 16 16 0 -2
BITMAP 
0000
0000
3000
4040
5E40
45C0
3440
05A0
06A0
01F0
0110
01F0
0208
030C
0000
0000
ENDCHAR
STARTCHAR U+0106EA
ENCODING 67306
SWIDTH 1000 0
DWIDTH 16 0
BBX 16 16 0 -2
BITMAP 
0000
0000
0000
0208
3204
2FF4
2204
2D08
3500
0F80
0880
0F80
1040
1860
0000
0000
ENDCHAR
STARTCHAR U+0106EB
ENCODING 67307
SWIDTH 1000 0
DWIDTH 16 0
BBX 16 16 0 -2
BITMAP 
0000
0000
0000
0400
6400
5F08
44C4
5A34
6A04
1F08
1100
1F00
2080
30C0
0000
0000
ENDCHAR
STARTCHAR U+0106EC
ENCODING 67308
SWIDTH 500 0
DWIDTH 8 0
BBX 8 16 0 -2
BITMAP 
00
00
00
00
7C
38
54
54
54
38
10
1C
10
10
00
00
ENDCHAR
STARTCHAR U+0106ED
ENCODING 67309
SWIDTH 500 0
DWIDTH 8 0
BBX 8 16 0 -2
BITMAP 
00
00
00
00
7C
38
54
54
38
10
7C
10
38
10
10
00
ENDCHAR
STARTCHAR U+0106EE
ENCODING 67310
SWIDTH 1000 0
DWIDTH 16 0
BBX 16 16 0 -2
BITMAP 
0000
0000
0000
0000
7C00
3800
5400
5400
54F0
3938
1154
10FC
1092
1092
0000
0000
ENDCHAR
STARTCHAR U+0106EF
ENCODING 67311
SWIDTH 1000 0
DWIDTH 16 0
BBX 16 16 0 -2
BITMAP 
0000
0000
0000
0000
F800
7000
A888
A95C
AA28
7008
205C
2088
201C
2008
0000
0000
ENDCHAR
STARTCHAR U+0106F0
ENCODING 67312
SWIDTH 1000 0
DWIDTH 16 0
BBX 16 16 0 -2
BITMAP 
0000
0000
0000
0000
3E00
1C00
2A00
2A88
2AF8
1C88
08F8
0888
08F8
0888
0000
0000
ENDCHAR
STARTCHAR U+0106F1
ENCODING 67313
SWIDTH 1000 0
DWIDTH 16 0
BBX 16 16 0 -2
BITMAP 
0000
0000
0000
0000
7C00
3800
5470
5488
5504
3954
1104
1124
1088
1070
0000
0000
ENDCHAR
STARTCHAR U+0106F2
ENCODING 67314
SWIDTH 1000 0
DWIDTH 16 0
BBX 16 16 0 -2
BITMAP 
0000
0000
0000
0000
1F00
0E00
1520
1510
1508
0E10
0420
0450
0408
0410
0420
0000
ENDCHAR
STARTCHAR U+0106F3
ENCODING 67315
SWIDTH 1000 0
DWIDTH 16 0
BBX 16 16 0 -2
BITMAP 
0000
0000
0000
0000
3E00
1C00
2A00
2A00
2A20
1C20
08F8
0820
0820
0800
0000
0000
ENDCHAR
STARTCHAR U+0106F4
ENCODING 67316
SWIDTH 1000 0
DWIDTH 16 0
BBX 16 16 0 -2
BITMAP 
0000
0000
0000
0000
1F00
0E00
1500
1530
1548
0E08
0410
0420
0440
0480
0000
0000
ENDCHAR
STARTCHAR U+0106F5
ENCODING 67317
SWIDTH 1000 0
DWIDTH 16 0
BBX 16 16 0 -2
BITMAP 
0000
0000
0000
0000
1F00
0E00
1500
1530
1548
0E08
0410
04F8
0440
0480
0000
0000
ENDCHAR
STARTCHAR U+0106F6
ENCODING 67318
SWIDTH 1000 0
DWIDTH 16 0
BBX 16 16 0 -2
BITMAP 
0000
0000
0000
0000
3E00
1C00
2A00
2A60
2A90
1C10
0820
0840
08A0
0910
0000
0000
ENDCHAR
STARTCHAR U+0106F7
ENCODING 67319
SWIDTH 1000 0
DWIDTH 16 0
BBX 16 16 0 -2
BITMAP 
0000
0000
0000
0000
7C00
38E0
552C
5520
552C
38E0
1000
1380
1100
1100
0000
0000
ENDCHAR
STARTCHAR U+0106F8
ENCODING 67320
SWIDTH 1000 0
DWIDTH 16 0
BBX 16 16 0 -2
BITMAP 
0000
0000
0000
0000
7C00
3800
5400
5400
54E0
392C
1120
112C
10E0
1000
0000
0000
ENDCHAR
STARTCHAR U+0106F9
ENCODING 67321
SWIDTH 1000 0
DWIDTH 16 0
BBX 16 16 0 -2
BITMAP 
0000
0000
0000
0000
7CEC
3920
552C
5520
54EC
3800
10EC
1120
112C
1120
10EC
0000
ENDCHAR
STARTCHAR U+0106FA
ENCODING 67322
SWIDTH 1000 0
DWIDTH 16 0
BBX 16 16 0 -2
BITMAP 
0000
0000
0100
2284
510A
2004
0910
0520
0000
0FE0
0920
0540
0380
0FE0
0000
0000
ENDCHAR
STARTCHAR U+0106FB
ENCODING 67323
SWIDTH 1000 0
DWIDTH 16 0
BBX 16 16 0 -2
BITMAP 
0000
0000
3FF8
2000
2000
3FF8
2108
2548
2388
2108
2548
2388
2108
2548
2388
0100
ENDCHAR
STARTCHAR U+0106FC
ENCODING 67324
SWIDTH 1000 0
DWIDTH 16 0
BBX 16 16 0 -2
BITMAP 
0000
0000
3FFC
2000
2000
3FFC
2024
28A4
2524
2224
2224
2224
2024
2024
0000
0000
ENDCHAR
STARTCHAR U+0106FD
ENCODING 67325
SWIDTH 1000 0
DWIDTH 16 0
BBX 16 16 0 -2
BITMAP 
0000
0000
FFBE
8022
803E
FFAA
88AA
8880
8880
AA80
CC80
8880
8880
8880
0000
0000
ENDCHAR
STARTCHAR U+0106FE
ENCODING 67326
SWIDTH 1000 0
DWIDTH 16 0
BBX 16 16 0 -2
BITMAP 
0000
FFC0
8000
803E
8022
FFFE
842A
842A
8420
94A0
A520
8420
8420
8420
0000
0000
ENDCHAR
STARTCHAR U+0106FF
ENCODING 67327
SWIDTH 1000 0
DWIDTH 16 0
BBX 16 16 0 -2
BITMAP 
0000
0040
0480
04C0
07C0
0000
7FF0
4000
4000
7FF0
4210
4210
4A50
5290
4210
0000
ENDCHAR
STARTCHAR U+010700
ENCODING 67328
SWIDTH 1000 0
DWIDTH 16 0
BBX 16 16 0 -2
BITMAP 
0000
0000
0020
0240
0260
3FF8
2000
2000
3FF8
2108
2108
2528
2948
2108
0000
0000
ENDCHAR
STARTCHAR U+010701
ENCODING 67329
SWIDTH 1000 0
DWIDTH 16 0
BBX 16 16 0 -2
BITMAP 
0000
0380
0540
07C0
0540
0380
3FF8
2000
2000
3FF8
2108
2528
2948
2108
0000
0000
ENDCHAR
STARTCHAR U+010702
ENCODING 67330
SWIDTH 1000 0
DWIDTH 16 0
BBX 16 16 0 -2
BITMAP 
0000
0000
0000
0000
7F80
4000
4000
7F80
503C
5064
50A4
50FC
50A4
50A4
0000
0000
ENDCHAR
STARTCHAR U+010703
ENCODING 67331
SWIDTH 1000 0
DWIDTH 16 0
BBX 16 16 0 -2
BITMAP 
0000
0000
0000
0000
7E00
42C0
4140
4040
4088
6308
553E
4888
4848
7FC0
0000
0000
ENDCHAR
STARTCHAR U+010704
ENCODING 67332
SWIDTH 1000 0
DWIDTH 16 0
BBX 16 16 0 -2
BITMAP 
0000
0000
0000
0000
7E00
42C0
4140
4046
4098
6328
553E
4880
4840
7FC0
0000
0000
ENDCHAR
STARTCHAR U+010705
ENCODING 67333
SWIDTH 1000 0
DWIDTH 16 0
BBX 16 16 0 -2
BITMAP 
0000
0000
0000
0000
7C00
4580
4280
4080
4110
4210
427C
4110
4090
7F80
0000
0000
ENDCHAR
STARTCHAR U+010706
ENCODING 67334
SWIDTH 1000 0
DWIDTH 16 0
BBX 16 16 0 -2
BITMAP 
0000
0000
0000
0000
7C00
4580
4280
408C
4130
4250
427C
4100
4080
7F80
0000
0000
ENDCHAR
STARTCHAR U+010707
ENCODING 67335
SWIDTH 1000 0
DWIDTH 16 0
BBX 16 16 0 -2
BITMAP 
0000
0020
0010
0008
0050
0020
0010
1F20
1140
1100
1FF0
1110
1110
1FF0
0000
0000
ENDCHAR
STARTCHAR U+010708
ENCODING 67336
SWIDTH 1000 0
DWIDTH 16 0
BBX 16 16 0 -2
BITMAP 
0000
0000
0000
0000
003C
0044
0084
0084
0044
07FC
0804
13C4
2424
2664
0000
0000
ENDCHAR
STARTCHAR U+010709
ENCODING 67337
SWIDTH 1000 0
DWIDTH 16 0
BBX 16 16 0 -2
BITMAP 
0000
0000
0000
0000
1C00
227C
0100
4154
2254
0254
4400
2410
0810
0810
0000
0000
ENDCHAR
STARTCHAR U+01070A
ENCODING 67338
SWIDTH 1000 0
DWIDTH 16 0
BBX 16 16 0 -2
BITMAP 
0000
0000
0000
0000
1C00
2200
0100
3100
0200
3200
0400
4480
7F80
4880
0800
0000
ENDCHAR
STARTCHAR U+01070B
ENCODING 67339
SWIDTH 1000 0
DWIDTH 16 0
BBX 16 16 0 -2
BITMAP 
0000
0000
0000
0000
1C00
2200
0100
3100
0220
3220
04F8
0420
0820
0800
0000
0000
ENDCHAR
STARTCHAR U+01070C
ENCODING 67340
SWIDTH 1000 0
DWIDTH 16 0
BBX 16 16 0 -2
BITMAP 
0000
0000
0000
0000
0C1C
0220
0448
6884
0922
6610
0288
0240
0440
0400
0000
0000
ENDCHAR
STARTCHAR U+01070D
ENCODING 67341
SWIDTH 500 0
DWIDTH 8 0
BBX 8 16 0 -2
BITMAP 
00
00
38
44
02
62
04
64
08
3E
10
7C
20
70
00
00
ENDCHAR
STARTCHAR U+01070E
ENCODING 67342
SWIDTH 1000 0
DWIDTH 16 0
BBX 16 16 0 -2
BITMAP 
0000
0000
0000
0000
0300
1880
0080
1880
0100
0280
1FF0
0440
1EF0
0820
0000
0000
ENDCHAR
STARTCHAR U+01070F
ENCODING 67343
SWIDTH 500 0
DWIDTH 8 0
BBX 8 16 0 -2
BITMAP 
00
00
38
44
02
62
04
64
08
28
50
20
40
7C
00
00
ENDCHAR
STARTCHAR U+010710
ENCODING 67344
SWIDTH 500 0
DWIDTH 8 0
BBX 8 16 0 -2
BITMAP 
00
00
70
88
04
C4
08
C8
1E
12
20
40
82
FE
00
00
ENDCHAR
STARTCHAR U+010711
ENCODING 67345
SWIDTH 500 0
DWIDTH 8 0
BBX 8 16 0 -2
BITMAP 
00
00
70
88
04
C4
08
C8
10
16
28
48
86
FE
00
00
ENDCHAR
STARTCHAR U+010712
ENCODING 67346
SWIDTH 1000 0
DWIDTH 16 0
BBX 16 16 0 -2
BITMAP 
0000
0000
0000
0000
3800
4400
0210
82A0
447E
04C2
893C
4824
1018
107E
0000
0000
ENDCHAR
STARTCHAR U+010713
ENCODING 67347
SWIDTH 1000 0
DWIDTH 16 0
BBX 16 16 0 -2
BITMAP 
0000
0000
0000
0000
7022
8814
0FF8
D40C
1212
D3F0
2120
2120
00C0
03F0
0000
0000
ENDCHAR
STARTCHAR U+010714
ENCODING 67348
SWIDTH 1000 0
DWIDTH 16 0
BBX 16 16 0 -2
BITMAP 
0000
00E0
0140
03E0
7240
8A00
0814
D7F8
140C
D210
23F0
2120
00C0
01E0
0000
0000
ENDCHAR
STARTCHAR U+010715
ENCODING 67349
SWIDTH 1000 0
DWIDTH 16 0
BBX 16 16 0 -2
BITMAP 
0000
0660
0678
0380
7230
8A00
0814
D7F8
140C
D210
23F0
2120
00C0
01E0
0000
0000
ENDCHAR
STARTCHAR U+010716
ENCODING 67350
SWIDTH 1000 0
DWIDTH 16 0
BBX 16 16 0 -2
BITMAP 
0000
0700
0880
0040
0640
0040
0640
0080
1FF0
08A0
0540
0380
0100
0FE0
0000
0000
ENDCHAR
STARTCHAR U+010717
ENCODING 67351
SWIDTH 1000 0
DWIDTH 16 0
BBX 16 16 0 -2
BITMAP 
0000
0000
1C00
2200
0100
1900
0100
1900
0200
0410
0808
10A8
1088
0FF0
0000
0000
ENDCHAR
STARTCHAR U+010718
ENCODING 67352
SWIDTH 1000 0
DWIDTH 16 0
BBX 16 16 0 -2
BITMAP 
0000
1C00
2200
1A00
0200
1A7C
0400
0854
3E54
4154
5500
4110
4910
3E10
0000
0000
ENDCHAR
STARTCHAR U+010719
ENCODING 67353
SWIDTH 1000 0
DWIDTH 16 0
BBX 16 16 0 -2
BITMAP 
0000
0000
0300
0400
1000
2B80
1000
0460
1310
1010
1020
1040
1080
10F0
0000
0000
ENDCHAR
STARTCHAR U+01071A
ENCODING 67354
SWIDTH 1000 0
DWIDTH 16 0
BBX 16 16 0 -2
BITMAP 
0000
0000
0300
0400
1000
2B80
1000
0460
1310
1010
1020
1040
1080
1080
0000
0000
ENDCHAR
STARTCHAR U+01071B
ENCODING 67355
SWIDTH 1000 0
DWIDTH 16 0
BBX 16 16 0 -2
BITMAP 
0000
0000
0300
0400
1000
2B80
1000
0400
137C
1010
1010
1010
1010
1010
0000
0000
ENDCHAR
STARTCHAR U+01071C
ENCODING 67356
SWIDTH 1000 0
DWIDTH 16 0
BBX 16 16 0 -2
BITMAP 
0000
0000
0100
0380
0540
0920
0100
1FF0
1010
1FF0
1010
1FF0
0000
0000
0AA0
2008
ENDCHAR
STARTCHAR U+01071D
ENCODING 67357
SWIDTH 500 0
DWIDTH 8 0
BBX 8 16 0 -2
BITMAP 
00
00
00
00
10
38
54
92
10
7C
10
7C
10
10
00
00
ENDCHAR
ENDFONT
